<?xml version="1.0" encoding="utf-8"?>
<!-- Generator: Adobe Illustrator 20.1.0, SVG Export Plug-In . SVG Version: 6.00 Build 0)  -->
<svg version="1.1" id="Calque_1" xmlns="http://www.w3.org/2000/svg" xmlns:xlink="http://www.w3.org/1999/xlink" x="0px" y="0px"
	 viewBox="0 0 432 432" style="enable-background:new 0 0 432 432;" xml:space="preserve">
<style type="text/css">
	.st0{fill:#EC5F62;}
	.st1{fill:#C9973C;}
	.st2{fill:#C9973D;}
	.st3{fill:#CC7B26;}
	.st4{fill:#B36927;}
	.st5{fill:#E83F3F;}
	.st6{fill:#FED173;}
	.st7{fill:#FDD98C;}
	.st8{fill:#F1F2F2;}
	.st9{fill:#F7A52D;}
	.st10{fill:#E94871;}
	.st11{fill-rule:evenodd;clip-rule:evenodd;fill:#C9973D;}
	.st12{fill:#CB9B3F;}
	.st13{fill:#3AAA35;}
	.st14{fill:#E30613;}
	.st15{fill:#E94374;}
	.st16{fill:#F08898;}
	.st17{fill:#79BD6E;}
	.st18{fill:#F7A645;}
	.st19{fill-rule:evenodd;clip-rule:evenodd;fill:#CB9A3E;}
	.st20{fill:#CB9A3E;}
	.st21{fill:#BE1622;}
	.st22{fill:#936037;}
</style>
<g>
	<g>
		<g>
			<path d="M156.5,172.5c0.9,1.4,1.9,2.7,3.3,3.5c2.6,1.9,5.7,2,8.7,2c0.3-0.2,0.7-0.3,1.1-0.4c2-0.9,3.9-1.9,5.5-3.5
				c1.6-2,2.9-3.9,3.4-6.3c0.4-1.5,0-2.6-0.7-3.8c-0.3,0.2-0.5,0.4-0.6,0.6c-0.4,0.4-0.8,0.8-1.1,1.3c-0.8,1.4-1.7,2.7-2.8,3.6
				c-0.4,0.4-0.9,0.7-1.3,1.3c-1.2,1.6-3,2.3-4.9,2.9c-0.9,0.4-1.7,0.3-2.5-0.6c-1-0.9-1.9-1.9-2.7-3.3c-1-1.6-1.5-3.6-2.1-5.3
				c-0.6-2.1-1-4.2-1.2-6.1c-0.4-3.3-0.4-6.7,0.2-10c0.2-1.5,0.3-2.7,0.4-4.2c0.2-2.1,0.3-4.3,0.6-6.4c1.4-6.8,2.8-15,6.6-14.6
				c1.1,0.1,2.2,0.6,5,1.9c0.4,0.5,0.5,1,0.8,1.3c0.2,0.2,0.5,0.2,0.8,0.2c0.3-0.1,0.5-0.3,0.6-0.5c0.2-1.2,0.1-2.2-0.9-3
				c-1.2-1-2-2-3.7-2c-0.2,0-0.4-0.1-0.8-0.1c-2.8-0.8-5.6,0.4-8.1,1.6c-0.3,0.1-0.6,0.4-0.9,0.7c-1.8,1.6-3.1,3.6-3.7,5.9
				c-0.4,2-1,3.9-1.6,5.7c-1.1,4.3-1.6,8.6-1.8,12.8c-0.1,3.6,0,7.3,0.5,10.7C152.7,163.6,153.9,168.4,156.5,172.5z"/>
			<path d="M182.3,163.7c0.6,1.1,1.1,2,1.6,2.8c1.9,2.8,3.7,5.4,6.3,7.3c1.3,1,2.7,1.8,4.2,2.3c0.4,0.1,0.9,0.2,1.2,0.1
				c1-0.1,1.9-0.3,2.7-0.7c4.3-2.4,7.6-7.6,7.9-8.5c1.9-5.9,2.2-7,2.6-8.2c0.4-2.7,0.9-5.7,1.4-8.3c0.5-3.4,0.4-6.8,0.6-9.9
				c0.2-1.2,0-2.5,0-3.8c0-0.3,0-1-0.1-1.4c-0.4-1.8-1-3.5-1.7-5c-1.1-2.4-2.5-4.3-4-5.9c-4.6-5.3-13-2.7-16.6,1.7
				c-1,1.2-1.8,2.6-2.5,3.8c-1.4,2-2.5,4.2-3.2,6.7c-0.5,1.3-0.9,2.8-1.2,4.2l-0.3,1.5c-0.7,4.8-1.1,9.6-0.7,14.3
				C180.7,159,181.2,161.5,182.3,163.7z M188.9,156.3c0.2-1.9,0.3-3.6,0.2-5.5c-0.1-1,0-2,0.1-2.9c0-0.6,0.1-1.3,0.1-1.9
				c0-2.8,0.5-5.5,1.1-8.2c0.4-1.3,0.6-3,0.9-4.4c0.3-1.5,0.7-3,1.1-4.5c0.3-1.2,1.2-1.8,1.7-2.7l0.4-0.3c4-4.3,8.6,0.6,10,9
				c0.4,1.9,0.4,3.9,0.6,5.8c0.1,1.1,0,2.2,0,3.5v1.2c0,3.1-0.2,6.4-0.7,9.3c-0.3,1.5-0.7,2.9-1,4.3c-0.4,2-1.1,4.1-1.7,6.2
				c-0.4,1.3-1.2,2.7-1.7,4.2c-0.5,1.2-1.3,2.2-2.3,2.8c-0.9,0.8-2,1.2-3.2,1.2c-0.7,0-1.2-0.4-1.6-1.2c-0.9-1.6-1.9-2.9-2.4-4.8
				c-0.4-1.2-0.5-2.2-0.7-3.4c-0.4-1.9-0.6-4-0.8-6C188.8,157.6,188.8,156.9,188.9,156.3z"/>
			<path d="M213.8,175.8c0.6,0.2,7.1,1.2,7.8,1.1c0.4-0.2,0.7-0.3,1.1-0.4c0.5-0.4,0.7-1.2,0.4-1.6c-0.5-0.6-1.5-0.4-1.9-1.3
				c0.5-1.9,0.6-4,0.8-6c0.1-3.2,0.3-6.5,0.4-9.7l0.3-2c1.2-0.7,2.3-0.7,3.4-0.8c1-0.1,1.9-0.2,2.9-0.4c1.3-0.1,2.6-0.3,4-0.5
				c0.8-0.2,1.6-0.3,2.3-0.6c0.4-0.1,0.8-0.6,1-1c0.4-1.5,0.1-3-0.4-4.5c-0.1-0.4-0.9-0.7-1.5-0.6c-0.4,0.1-0.7,0.4-0.8,0.7
				c-0.2,0.5-0.2,1.2-0.4,1.8c-0.2,0.8-0.7,1.2-1.7,1.3c-1.9,0.4-4,0.7-5.9,1c-0.5,0.2-1.2,0.2-1.7,0.3c-0.5,0-1-0.3-1-0.8
				c-0.1-0.7,0-1.3,0-1.9c0.3-3.9,0.1-7.7,0-11.6c-0.7-9.8-1.1-10-0.9-11c1.4-1,2.7-1.2,4.2-1.4c3.5-0.4,7.1-1,10.5-1.2
				c0.8-0.1,1.3,0.3,1.5,1.1l0.3,2.9c0.2,0.9,0.5,1.7,1.2,2.3c0.7,0.8,1.5,1,2.4,0.7c0.4-0.1,0.6-0.4,0.8-0.7
				c0.2-0.4,0.2-0.7,0.1-1.1c0.2-1.9-0.9-3.8-1.1-5.8c-0.4-4.4-4.9-2.9-5.6-2.7c-1.5,0.2-2.9,0.4-4.3,0.6c-0.9,0.1-1.8,0.2-2.7,0.4
				c-3.1,0.5-12.8,2.4-14.1,2.7c-0.4,0.1-0.8,0.4-1.1,0.5c-0.4,0.4-0.4,1.4,0,1.8c0.1,0.2,0.4,0.3,0.5,0.4c1.3,0.4,1.6,1.3,1.5,2.5
				c0,0.7,0,1.4-0.1,2.1c-0.1,4-0.2,8-0.2,12c0,1-0.2,1.9-0.2,2.7c0,2.7-0.2,5.2-0.3,7.9c-0.1,1.9-0.4,3.9-0.4,5.8
				c0,3.8,0.1,7.5,0.1,11.3l-0.3,0.9c-0.3,0.2-0.4,0.3-0.7,0.3c-0.2,0.1-0.4,0.1-0.7,0.2c-0.7,0.3-1,0.7-1,1.4
				C212.6,175.2,213,175.7,213.8,175.8z"/>
			<path d="M246,175.8c0.6,0.2,7.1,1.2,7.8,1.1c0.4-0.2,0.7-0.3,1.1-0.4c0.5-0.4,0.7-1.2,0.4-1.6c-0.5-0.6-1.5-0.4-1.9-1.3
				c0.5-1.9,0.6-4,0.8-6c0.1-3.2,0.3-6.5,0.4-9.7l0.3-2c1.2-0.7,2.3-0.7,3.4-0.8c1-0.1,1.9-0.2,2.9-0.4c1.3-0.1,2.6-0.3,4-0.5
				c0.8-0.2,1.6-0.3,2.3-0.6c0.4-0.1,0.8-0.6,1-1c0.4-1.5,0.1-3-0.4-4.5c-0.1-0.4-0.9-0.7-1.5-0.6c-0.4,0.1-0.7,0.4-0.8,0.7
				c-0.2,0.5-0.2,1.2-0.4,1.8c-0.2,0.8-0.7,1.2-1.7,1.3c-1.9,0.4-4,0.7-5.9,1c-0.5,0.2-1.2,0.2-1.7,0.3c-0.5,0-1-0.3-1-0.8
				c-0.1-0.7,0-1.3,0-1.9c0.3-3.9,0.1-7.7,0-11.6c-0.7-9.8-1.1-10-0.9-11c1.4-1,2.7-1.2,4.2-1.4c3.5-0.4,7.1-1,10.5-1.2
				c0.8-0.1,1.3,0.3,1.5,1.1l0.3,2.9c0.2,0.9,0.5,1.7,1.2,2.3c0.7,0.8,1.5,1,2.4,0.7c0.4-0.1,0.6-0.4,0.8-0.7
				c0.2-0.4,0.2-0.7,0.1-1.1c0.2-1.9-0.9-3.8-1.1-5.8c-0.4-4.4-4.9-2.9-5.6-2.7c-1.5,0.2-2.9,0.4-4.3,0.6c-0.9,0.1-1.8,0.2-2.7,0.4
				c-3.1,0.5-12.8,2.4-14.1,2.7c-0.4,0.1-0.8,0.4-1.1,0.5c-0.4,0.4-0.4,1.4,0,1.8c0.1,0.2,0.4,0.3,0.5,0.4c1.3,0.4,1.6,1.3,1.5,2.5
				c0,0.7,0,1.4-0.1,2.1c-0.1,4-0.2,8-0.2,12c0,1-0.2,1.9-0.2,2.7c0,2.7-0.2,5.2-0.3,7.9c-0.1,1.9-0.4,3.9-0.4,5.8
				c0,3.8,0.1,7.5,0.1,11.3l-0.3,0.9c-0.3,0.2-0.4,0.3-0.7,0.3c-0.2,0.1-0.4,0.1-0.7,0.2c-0.7,0.3-1,0.7-1,1.4
				C244.9,175.2,245.2,175.7,246,175.8z"/>
			<path d="M279.1,175.1c1.9,0.7,3.9,1.1,5.8,1.1c2,0.1,4.2-0.2,6.3-0.3c1.2-0.1,2.3-0.1,3.5-0.3c0.6,0,1.2,0,1.9,0.1
				c1.9,0.3,4,0.2,5.9,0c0.4-0.1,0.8-0.2,1.1-0.5c0.5-0.5,0.9-1.4,1.1-2.2l0.3-2.8c0.1-0.8-0.2-1.2-0.8-1.7
				c-0.3-0.1-0.5-0.3-0.8-0.4c-0.4-0.3-1-0.1-1.2,0.4l-0.5,1.9c-0.2,0.6-0.5,1-1.1,1.1c-0.5,0.1-1.1,0.3-1.6,0.3l-3,0.3
				c-1.5,0-3.2,0.1-4.8,0.1c-0.8,0-1.5-0.2-2.3-0.3c-0.4-1.9-0.7-3.5-0.6-5.4c0-1.1,0.2-2.3,0.1-3.5c-0.1-4,0.4-8,0.7-11.9
				c0.1-0.4,0.2-1,0.6-1.2c0.8,0,1.7,0.3,2.6,0.4c1,0.2,1.9,0.2,2.7,0.2c0.2,0.4,0.3,0.4,0.3,0.5c0.3,1.7,1.2,2.4,2.4,3.1
				c0.7,0.6,1.4,0,1.4-1c0-0.4,0-0.8-0.1-1.2c0-1.2-0.1-2.4-0.3-3.5c-0.1-0.5-0.4-1.2-0.5-1.8c-0.3-0.7-0.7-1-1.4-1.2
				c-0.9-0.4-1.4,0.1-1.7,1.2v0.4c-0.2,0.4-0.4,0.7-0.5,0.8c-1.4,0.3-2.7,0.4-4.2,0.3c-0.5-0.1-0.8-0.4-0.8-1.2v-0.7
				c0.2-3.3,0.4-6.5,0.5-9.5c0.1-3.8,0.2-7.6-0.4-11.5c0,0,0-0.1,0.1-0.2c0.4-0.4,1-0.2,1.5-0.1l9.3,0.2c0.1,0,0.1,0.1,0.2,0.1
				c0.3,0.5,0.2,1.2,0,1.7c-0.4,1.4-0.2,2.6,0.9,3.5c0.3,0.2,0.4,0.6,0.6,0.8c1.1,1.2,2,1.2,2.5,0.1c0.1-0.2,0.1-0.4,0.2-0.6
				c0.2-1.5,0.4-3.1,0.6-4.7c0-0.3,0.1-0.5,0.1-1c-0.1-1-0.5-1.6-1.3-1.9c-0.8-0.1-1.5-0.3-2.2-0.4c-0.6-0.1-1.1-0.2-1.7-0.2
				l-10.7-0.2c-1.3-0.2-2.7-0.1-3.9,0.1c-0.7,0.2-1.3,0.2-2,0.3c-1.2,0.2-2.2,0.4-3.4,0.6c-0.4,0.3-0.8,0.6-0.9,1.1
				c-0.1,0.9,0,1.8,0.4,2.6c0.2,0.5,0.5,0.6,1,0.6s0.8-0.1,1-0.7c0.1-0.3,0.2-0.6,0.4-1c0.1-0.3,0.5-0.4,0.9-0.3
				c0.2,0.1,0.4,0.4,0.4,0.5c0,0.7-0.2,1.6-0.2,2.4c0.2,1.7-0.1,3.4-0.3,5.1c-0.3,3.9-0.4,7.8-0.6,11.9c-0.1,2.3-0.1,4.5-0.3,6.8
				c-0.4,6-0.7,12-0.4,17.8v1.5c0,0.4,0.5,0.9,0.2,1.5c-0.5,0.3-1.1,0.2-1.7,0.1h-1.9c-0.2,0-0.4,0.2-0.4,0.4
				c-0.1,0.4,0,0.8,0.2,1.1C278.5,174.8,278.8,175,279.1,175.1z"/>
			<path d="M310.4,175.1c1.9,0.7,3.9,1.1,5.8,1.1c2,0.1,4.2-0.2,6.3-0.3c1.2-0.1,2.3-0.1,3.5-0.3c0.6,0,1.2,0,1.9,0.1
				c1.9,0.3,4,0.2,5.9,0c0.4-0.1,0.8-0.2,1.1-0.5c0.5-0.5,0.9-1.4,1.1-2.2l0.3-2.8c0.1-0.8-0.2-1.2-0.8-1.7
				c-0.3-0.1-0.5-0.3-0.8-0.4c-0.4-0.3-1-0.1-1.2,0.4l-0.5,1.9c-0.2,0.6-0.5,1-1.1,1.1c-0.5,0.1-1.1,0.3-1.6,0.3l-3,0.3
				c-1.5,0-3.2,0.1-4.8,0.1c-0.8,0-1.5-0.2-2.3-0.3c-0.4-1.9-0.7-3.5-0.6-5.4c0-1.1,0.2-2.3,0.1-3.5c-0.1-4,0.4-8,0.7-11.9
				c0.1-0.4,0.2-1,0.6-1.2c0.8,0,1.7,0.3,2.6,0.4c1,0.2,1.9,0.2,2.7,0.2c0.2,0.4,0.3,0.4,0.3,0.5c0.3,1.7,1.2,2.4,2.4,3.1
				c0.7,0.6,1.4,0,1.4-1c0-0.4,0-0.8-0.1-1.2c0-1.2-0.1-2.4-0.3-3.5c-0.1-0.5-0.4-1.2-0.5-1.8c-0.3-0.7-0.7-1-1.4-1.2
				c-0.9-0.4-1.4,0.1-1.7,1.2v0.4c-0.2,0.4-0.4,0.7-0.5,0.8c-1.4,0.3-2.7,0.4-4.2,0.3c-0.5-0.1-0.8-0.4-0.8-1.2v-0.7
				c0.2-3.3,0.4-6.5,0.5-9.5c0.1-3.8,0.2-7.6-0.4-11.5c0,0,0-0.1,0.1-0.2c0.4-0.4,1-0.2,1.5-0.1l9.3,0.2c0.1,0,0.1,0.1,0.2,0.1
				c0.3,0.5,0.2,1.2,0,1.7c-0.4,1.4-0.2,2.6,0.9,3.5c0.3,0.2,0.4,0.6,0.6,0.8c1.1,1.2,2,1.2,2.5,0.1c0.1-0.2,0.1-0.4,0.2-0.6
				c0.2-1.5,0.4-3.1,0.6-4.7c0-0.3,0.1-0.5,0.1-1c-0.1-1-0.5-1.6-1.3-1.9c-0.8-0.1-1.5-0.3-2.2-0.4c-0.6-0.1-1.1-0.2-1.7-0.2
				l-10.7-0.2c-1.3-0.2-2.7-0.1-3.9,0.1c-0.7,0.2-1.3,0.2-2,0.3c-1.2,0.2-2.2,0.4-3.4,0.6c-0.4,0.3-0.8,0.6-0.9,1.1
				c-0.1,0.9,0,1.8,0.4,2.6c0.2,0.5,0.5,0.6,1,0.6s0.8-0.1,1-0.7c0.1-0.3,0.2-0.6,0.4-1c0.1-0.3,0.5-0.4,0.9-0.3
				c0.2,0.1,0.4,0.4,0.4,0.5c0,0.7-0.2,1.6-0.2,2.4c0.2,1.7-0.1,3.4-0.3,5.1c-0.3,3.9-0.4,7.8-0.6,11.9c-0.1,2.3-0.1,4.5-0.3,6.8
				c-0.4,6-0.7,12-0.4,17.8v1.5c0,0.4,0.5,0.9,0.2,1.5c-0.5,0.3-1.1,0.2-1.7,0.1h-1.9c-0.2,0-0.4,0.2-0.4,0.4
				c-0.1,0.4,0,0.8,0.2,1.1C309.8,174.8,310,175,310.4,175.1z"/>
		</g>
		<g>
			<path d="M208.3,217c9.3,1.8,15.8-10.7,18.4-14.4c0.1-0.1,0.1-0.1,0.2-0.2c0.7,0.7,1.7,1.5,2.7,2.4h0.1c1.6,1.1,3.4,2.5,5.6,4.1
				c-0.1,0,0.7,0.5,0.7,0.5l-3.7,2.3c-1.3,0.8-2.6,1.6-3.2,2.1c-4.1,3.3-8.5,7.3-7.7,11.7l0.2,0.8c1.1,4.8,6.8,6.8,12,4.8
				c1.8-0.7,2.9-1.5,3.8-2.1h-0.1c2.1-1.6,3.4-3.2,4.2-4.6c1-1.8,1.5-3.3,1.9-4.7c0.7-2.9,0.4-5.5-1.4-8.4c-0.1-0.2-0.1-0.4-0.3-0.8
				h-0.1c0.1-0.1,0.2-0.2,0.3-0.2c1.8-0.4,3.3-0.4,5.2-0.3c0.2,0,0.3,0.1,0.4,1c0,1.8,4.9,0.5,4.4-1.6c-0.2-0.6-1.2-1.2-2.4-1.5
				c-2.1-0.5-4.6-0.5-6.7-0.2c-1.1,0.1-2.2,0.4-2.8,0.6h-0.1c-0.1,0-0.1,0.1-0.1,0.1l-0.3-0.3h-0.1l-0.4-0.4
				c-0.7-0.4-1.7-1.4-3.3-2.7h0.1c-0.6-0.4-1.5-1.1-2.7-2.1l-0.9-0.6c-1.5-0.9-2.6-2.4-3.3-4.8c-0.6-2.1,1.4-5,2.8-5.6
				c3.8-1.5,6.7-2.1,9.1,1.1c1.6,2.1,5.2,1.2,3.5-1.1h0.1c-0.3-0.6-1.1-1.4-2.4-2.1c-5.1-2.6-11.1-0.5-13.7,1.2
				c-1.9,1.2-3.6,2.9-3.7,5c0,1.2,0.1,2.3,0.5,3.4c-5.4,7.3-11.9,19.8-16.8,13.7c-0.6-0.8-1-2-1.4-3.4c-0.4-2-0.6-3.8-0.4-6
				c0.1-1.6,0.5-2.6,0.7-4c0.1-0.6,0.3-1.3,0.3-1.9c0.9-0.6-2.1-1.6-3.1-0.6c-1.5,1.5-1.2,1.9-1.5,3.1c-0.3,1.1-0.6,2.2-0.6,2.4
				c-0.3,1.6-0.2,2.4-0.2,4C202.2,209.6,203.3,216,208.3,217z M237.5,211.6l0.3,0.5c0.4,0.7,1.4,1.7,1.5,3.1l0.2,1.6
				c-0.1,2.1-0.1,4.1-2.3,7.3c-0.5,0.9-0.8,1.3-0.9,1.4c-1.3,1.3-2.3,2.3-3.3,2.9c-2.2,1.3-3.6,1.5-5.6,0.4h-0.1
				c-0.9-0.4-2.7-2.5-2.1-4.8c0.8-3.4,2.4-6.1,5-8.1c2.4-1.9,4.8-3.3,7.2-4.3C237.4,211.6,237.4,211.6,237.5,211.6z"/>
			<path d="M205,192c-0.3,0.6-0.1,0.6,1,1.1h0.1c1.1,0.2,2.9-0.4,2.9-0.8C209.9,190.6,206.3,189.8,205,192z"/>
			<path d="M270.5,196.7c0.4,3.2,0.8,6.6,1.1,10c0.3,2.4,0.6,5,0.7,7.5c0.1,0.9,0.8,1.6,2.2,1.7c1.3,0.1,1.8-0.6,1.9-0.8l0.1-0.1
				l0.3-1.6c0.4-1.9,0.9-3.8,1.6-5.1c2.3-4.3,4.6-8.3,7.4-10.9c1.6-1.4,2.9-2.1,3.6-2.4c0.2-0.1,0,0.1-0.1,1.4c0,1.3-0.1,2.7-0.3,4
				c-0.3,2-0.6,4-1,5.5c-0.6,1.6-0.8,3.4-1.1,4.7c-0.1,0.8,0.1,1.2,0.9,1.8c1.6,1,2.9,0.1,3.2-0.6l0.4-1.1h0.1l0.6-1.8
				c1.1-2.7,2.6-4.9,3.7-6.8h-0.1c1.9-2.6,3.3-4.7,4.8-6.1c1.4-1.3,2.6-1.9,3.5-2.4c0.3-0.1,0.4-0.1,0.6-0.1h0.1
				c0.4-0.1-2.4,16.1-2.4,17.4c-0.1,2.1-0.3,4.3-0.4,6.3v0.8c0.1,2,0.4,4.1,1.1,6.2c0.3,1,0.3,1.8,1.1,3.1c0.1,0.2,1.1,3.2,4.5,4.1
				h0.1c2.5,1.1,5.5,0.4,7.5-0.7h0.1c2.5-1.7,4.2-4.1,5.2-6.3h-0.1c0.9-1.6,2.1-2.2,1.3-3.6c-0.8-1.4-3.8,0.6-5.7,4.3
				c-1,2.1-2.4,2.8-4,3.5c-1.6,0.6-2.4,0.4-3.9-0.9c-1.3-1.3-2-3.6-2.4-6.1c-0.6-2.6-0.6-5.6-0.3-8.4c0.1-1.9,0.4-4,0.7-5.7
				c0.3-2.9,0.9-5.5,1.3-8c0.3-3.5,1-7.2-2.7-8.2c-1.9-0.8-4.1,0.3-5.1,0.9c-1.1,0.7-3.1,2.4-3.8,3.2c-0.9,0.8-1.9,2.3-2.2,2.4
				c-0.4,0.6-1,0.9-0.9,1.1l-0.1,0.1c0.2-1.7,0.1-3.2-0.6-5c-0.1-0.5-0.8-1.3-2.2-1.8c-2-0.5-4.2,0.5-5.4,1.4
				c-4.6,3.8-8.3,9.3-9.6,12c-0.1-1.2-0.2-2.5-0.4-3.7c-0.4-2.1-0.7-4.5-1.1-6.8c-0.1-0.2-0.3-0.6-0.6-1.7
				C270.8,194.5,270.4,195,270.5,196.7z"/>
			<path d="M343.2,206.7c-0.6-4.6-1.3-9.1-2.3-13.7l-0.1-0.1c-0.2-0.4-0.3-0.9-0.6-1.8c-0.3-0.6-2.6-0.8-3.2-0.1
				c-0.9,0.9-0.8,0.9-0.8,1.8c-0.2,2.6-0.9,5-1.8,7.2c-0.9,2.6-3.6,6.2-3.7,6.5c-3.5,3.4-6.8,5.3-6.3,0.5c0.2-1.4,0.3-2.8,0.5-4.1
				c0.3-1.5,0.8-2.7,1.1-3.6c0.1-0.6,0.3-0.9,0.2-1.2c0-0.3,0-0.3-0.7-0.9c-1.1-0.8-2.8,0.4-3.5,1.4c-0.4,1.3-0.8,2.3-1.1,3.1
				c-0.5,2-1.1,3.8-1.1,5.6c0,1,0.3,2,0.8,3.2c0.4,0.6,1.4,1.6,3.1,2c1.6,0.4,3.8,0.3,5.3-0.6c3.3-2,5.8-4.5,7.2-7.3
				c0.7-1.4,1.3-2.8,1.8-4c0.5,2.8,0.9,6.9,0.9,10c-0.9,1-4.4,4-5.4,5c-1.2,1.3-2.3,2.2-3.1,2.9v-0.1c-0.8,0.7-1.1,1-1.2,1.2
				l-1.9,2.1c-5.7,6.1-7.5,10.4-8.3,12c-1.3,2.4-0.9,4.3,0.8,6.5c0.4,0.5,1.1,1.2,2.1,2.1c0-0.1,0.7,0.4,1.6,0.6h-0.1
				c1.9,0.4,4.3,0.4,6.1-0.3c2.8-1.3,5-2.8,6.5-4.5c3.3-3.6,5.2-7.5,6.3-11.5c0.6-2.3,0.9-4.5,1.3-6.5c0.4-2.6,0.3-4.8-0.1-7.3
				c-0.3-1.8,0.4-2.9,1.3-3.5c1.1-0.8,1.9-1.4,2.4-1.8c1.8-1.4,3.3-2.3,4.5-3.4c1.8-1.1,8.1-5,5.6-6.1c-1.7-0.3-3.6,0.8-3.6,1.3
				c-3.1,2.4-10,7.4-10.6,8V206.7z M339.5,215.1c0.1,5.8-0.8,11.3-3.1,16.1c-1.4,3-3.1,5.3-5.1,6.8c-1.7,1.4-3.1,2.1-4.4,2.3
				c-1.3,0.4-2,0.1-3.4-1.1c-0.6-0.5-1.2-1.8-0.9-3.3s0.8-2.8,1.3-3.8c1.1-2.4,2.4-4.2,3.6-5.8c2.6-3.5,5.3-6.2,7.9-8.6l-0.1,0.1
				c1.4-1.1,2.3-2,3-2.7c0.4-0.4,0.9-1,1.3-1.6C339.4,214,339.4,214.7,339.5,215.1z"/>
		</g>
		<g>
			<path d="M190.4,273.2c0.2,1.9,1.1,4,2.7,5.2c3.2,2.6,7.5,2.8,10.3,1.2c1.9-0.9,3.3-2.4,4.4-4.2c0.6-0.9,1-2.1,1.3-3.2
				c0.6-2,0.8-4,0.8-6c0-1.5-0.3-3-0.8-4.4c-0.7-2.2-1.8-4.1-3.7-5.6c-1.1-0.8-2.2-1.7-3.7-2.2c-0.8-0.2-1.5-0.6-2.3-1.1
				c-0.5-0.8-1.1-1.5-1.8-2.2c-0.1-0.2-0.3-0.4-0.3-0.6c-0.2-0.6-0.7-1.5-0.8-2.2c-0.4-1.4-0.3-2.8,0.4-4.4c0.4-1.3,3.3-4,6.2-3.5
				c0.3,0.1,0.8,0.3,1,0.4l1.5,1.5c0.6,0.6,1.1,3.1,1.3,3.2c1.2,0.2,1.6,0.2,2.4-0.7l-0.8-2.3c0,0-0.1-0.1-0.1-0.2
				c-0.4-0.8-1-1.5-1.3-2c-4.4-4.6-8.4-4.5-12.3-0.8c-0.3,0.4-0.8,0.8-1,1c-1,0.7-1.7,3.5-1.7,4c-0.3,2.1-1.5,5.5,3.7,10.1
				c0.5,0.4,1.3,0.7,1.8,1.1c0.5,0.3,1,0.6,1.3,0.9c1.2,0.9,2.3,1.7,3.3,2.7c0.4,0.3,0.7,0.7,0.9,1.1c0.8,1.2,1.2,2.4,1.7,3.9
				c0.3,0.8,0.3,1.8,0.3,2.8c-0.1,1.7-0.7,3.3-1,4.9c-0.3,1.7-1.2,3.2-2.2,4.6c-0.3,0.6-0.8,1-1.3,1.6c-0.3,0.3-0.8,0.5-1.4,0.3
				c-0.7-0.2-1.4-0.3-2.1-0.8c-2.2-1.5-3.5-5.9-3.3-9.5c0-0.3,0.3-0.5,0.3-0.7c0.3-0.7,0.2-1-0.6-1.3c-0.2,0-0.5-0.1-0.8-0.1
				c-0.9,0.1-2,0.2-3.1,0.3c-0.1,0-0.6,0.2-0.8,0.3c-0.2,0.1-0.2,0.8,0,0.9c0.1,0.1,0.3,0.2,0.7,0.3c0.1,0.1,0.6,0.3,0.8,0.3
				c0,0.3,0,0.5-0.1,0.6c-0.1,0.7-0.1,1.2-0.1,1.9c0.1,0.5,0,1.2,0,1.9C190.3,272.8,190.3,273.1,190.4,273.2z"/>
			<path d="M224.8,261.2c0.8-0.3,1.6-0.6,2.4-0.8c0.3,0,0.6-0.1,0.9-0.3c2.1-0.9,3.8-2.4,5.3-4.4c1.2-1.7,1.7-3.7,1.7-5.8
				c0-1.9-0.4-3.7-1-5.4c-0.1-0.3-0.2-0.8-0.5-1.1c-0.3-0.8-0.8-1.5-1.2-2.2c-0.1-0.4-0.3-0.7-0.7-1c-0.6-0.6-1.2-1.2-2-1.5
				c-1.9-1-4-1.5-6.1-1.5c-2.3,0.1-4.5,0.6-6.7,1.3c-0.2,0.1-0.5,0.2-0.8,0.3c-1.2,0.1-2.3,0.8-3.3,1.3c-0.1,0.1-0.3,0.4-0.5,0.6
				c-0.3,0.3-0.2,0.8,0.1,1c0.3,0.1,0.5,0.2,0.8,0.3c0.3,0,0.8,0,1.2-0.1c0.7-0.1,1.2-0.1,1.8-0.3c0.3,0.3,0.3,0.6,0.3,1
				c-0.1,0.5-0.2,1-0.2,1.6c-0.2,2.3-0.5,4.6-0.7,6.8c-0.1,1.6-0.3,3.2-0.3,4.8c-0.1,3.3-0.1,6.6,0,9.9c-0.1,3.2-0.1,7,0.3,10.3
				l-0.1,1.3c-2.8,0.8-2.4,2.9-0.4,2.6c0.8-0.2,1.5-0.1,2.2,0.1c0.8,0.1,1.5,0.2,2.2,0.3c0.6,0,1.2-0.1,1.7-0.1
				c0.9-0.1,1.4-1,0.8-1.9c-0.2-0.3-0.6-0.1-0.8-0.4c-0.3-0.1-0.6-0.3-0.8-0.3c-0.1-1.4-0.1-3.5-0.1-4.7v-4.3
				c0.1-1.9-0.1-3.7-0.2-5.7c0-0.1,0-0.2-0.1-0.3h0.1C220.6,262.3,224.1,261.4,224.8,261.2z M220.2,240.1c0.3-0.1,0.6-0.3,1-0.3
				c1.5-0.3,2.9-0.4,4.4-0.3c0.8,0.1,1.5,0.2,2.2,0.6c0.6,0.3,1,0.5,1.2,0.9c1.1,1.4,2,2.8,2.4,4.7c0.3,1.5,0.4,3,0.3,4.6
				c-0.1,1.4-0.6,2.6-1.4,3.7c-1.6,2.4-3.7,3.8-6.3,4.5c-0.6,0.3-1.1,0.4-1.7,0.6c-0.4,0.1-0.8,0.2-1,0.3c-0.9,0.1-1.4-0.3-1.4-1.4
				c0.3-3.5,0.3-15.5,0.3-17.3C220.2,240.5,220.2,240.3,220.2,240.1z"/>
			<path d="M246.8,239.4c0.2,0,0.4,0.1,0.6,0.1c0.1,0,0.3-0.2,0.5-0.2c0.4-0.1,0.6-0.8,0.3-1.1c-0.1-0.1-0.3-0.3-0.5-0.3
				c-0.4-0.1-0.7-0.3-1-0.3c-1.1-0.1-2.2-0.3-3.2-0.3c-1.4,0-2.7,0.2-4,0.3c-0.6,0-1,0.3-1.5,0.8c-0.2,0.2-0.1,0.8,0.1,0.9
				c0.5,0.1,0.9,0.3,1.2,0.2h1.8v2.2c-0.1,0.7-0.2,1.4-0.2,2.2c-0.2,2.4-0.3,5.1-0.3,7.4c0,1-0.1,1.8-0.1,2.7
				c-0.1,2.2-0.1,4.5-0.1,6.7c-0.1,2.8,0.1,5.5,0.1,8.3c0,1.7-0.1,3.4,0,5c0,0.9-0.1,1.7-0.4,2.5c-0.1,0.4-0.3,0.8-0.8,0.8l-1.3,0.4
				c-0.1,0.1-0.1,0.4,0,0.6c0.2,0.5,0.8,0.8,1.5,0.8c0.8-0.1,2.8,0.1,3.7,0.1c0.6-0.1,1.2,0,1.8-0.2c0.3-0.1,0.6-0.1,0.9-0.3
				c0.1-0.2,0.3-0.3,0.2-0.6l-0.5-0.3c-0.4-0.1-0.8,0.1-1.3-0.1c0.1-0.1,0.2-0.4,0.1-0.6c0.1-0.8,0.3-1.5,0.3-2.2
				c0.1-0.7,0-1.5-0.1-2.2l-0.1-5.5c0.1-1.2,0.1-2.3,0.1-3.4c0.1-1.5,0-3.1,0-4.5c0.1-1.9,0.2-3.7,0.3-5.5c0.1-1,0.1-2,0.1-3.1
				c0-1.4,0-2.8,0.2-4.3c0.1-0.5,0.1-1,0.1-1.3c0.1-0.5,0-0.9,0.1-1.3c0.1-0.6,0.1-1.2,0.1-1.8c-0.1-0.3-0.1-0.8,0-1.3
				C245.6,239.5,245.7,239.4,246.8,239.4z"/>
			<path d="M260.2,256.4c0-0.7,0-1.4,0.2-2c1.7-0.4,1.3,0.1,3.1-0.3c0.3,0.1,0.9,0,1.3,0.2c1.4,1.7,2.4,4,2.8,6
				c0.1,0.8,0.4,1.8,0.6,2.6c0.3,1.9,0.3,4.6,0.6,6.7c-0.1,3.1,1,6.9,2.4,8.6c0.4,0.6,3,3.4,6.5,2c0.7-0.3,0.8-1.1,0.6-1.9
				c-0.4-0.3-0.8-0.9-1.1-1.3c-0.3,0.1-0.6,0.1-0.7,0.4c-0.5,0.3-0.8,0.4-1.2,0.4c-0.3,0.1-0.6-0.3-0.9-0.6
				c-0.3-0.8-0.6-1.4-0.7-2.2c-0.3-1.5-0.5-3.1-0.3-4.6c0.1-0.4,0.1-0.7,0.1-1.1c0-1.5-0.3-4.9-0.6-6.2c-0.5-1.5-1-3-1.5-4.4
				c-0.5-0.9-0.9-1.6-1.3-2.2c-0.9-1.2-1.8-2.3-2.8-3.3c-0.2-0.3-0.3-0.5-0.6-0.7c4.2-1.3,5.7-4.6,6.5-5.5c1-1.6,1.2-3.3,0.6-5
				l-0.2-0.8c-1.1-2.4-3.1-4.2-5.8-4.7c-2.2-0.3-4.3-0.4-6.2-0.3c-2.7,0.2-5.1,0.8-7.3,2.1c-0.7,0.3-1.4,0.8-1.9,1.2
				c-0.2,0.1-0.3,0.3-0.2,0.6c-0.1,0.2,0.3,0.4,0.4,0.4c0.4,0,0.9,0.1,1.2,0c1-0.2,1.9-0.3,2.8-0.5c0.2,0.1,0.1,0.5,0.1,0.8
				c0,1.2-0.3,2.4-0.3,3.7c0,1.6-0.6,7.7-0.6,8.8c-0.1,1.4-0.3,2.8-0.3,4c-0.1,2.7-1.3,16-1.5,18.3v1.2c-0.7,0.3-1.1,0.4-1.6,0.5
				c-0.5,0.1-0.6,0.4-0.3,0.8c0.6,0.6,1.2,1.2,2.2,1.2c1.9-0.1,3.6,0.1,5.4,0.1c0.3-0.1,0.7-0.1,0.9-0.2c0.1-0.1,0.2-0.6,0.3-0.6
				c0.1-0.2,0-0.4-0.2-0.4c-0.1-0.1-0.1-0.3-0.3-0.3c-0.8-0.2-1.1-0.8-1-1.5c0.1-1.3,0.1-2.5-0.1-3.8c-0.2-2.3,0.6-10.6,0.6-11.5
				c0.1-0.2,0.1-0.6,0.1-0.7C260.1,258.9,260.1,257.5,260.2,256.4z M260.8,238.2c1.9-0.4,3.9-0.2,5.9-0.1c0.3,0,0.6,0.1,0.9,0.3
				c0.9,0.9,1.5,1.8,1.6,3.3c0.1,1.2,0.1,2.4-0.1,3.6c-0.4,1.4-1.4,2.8-2.5,3.7c-2.5,2.4-3.6,2.4-6,2.4c-0.1-0.6-0.1-1.2-0.1-1.8
				c0-0.5,0.1-1,0.1-1.5c0-0.8,0-1.7,0.1-2.7c0-1.5-0.1-6-0.5-6.7C260.3,238.4,260.4,238.4,260.8,238.2z"/>
			<path d="M290.1,239.4c0.2,0,0.4,0.1,0.6,0.1c0.1,0,0.3-0.2,0.5-0.2c0.4-0.1,0.6-0.8,0.3-1.1c-0.1-0.1-0.3-0.3-0.5-0.3
				c-0.4-0.1-0.7-0.3-1-0.3c-1.1-0.1-2.2-0.3-3.2-0.3c-1.4,0-2.7,0.2-4,0.3c-0.6,0-1,0.3-1.5,0.8c-0.2,0.2-0.1,0.8,0.1,0.9
				c0.5,0.1,0.9,0.3,1.2,0.2h1.8v2.2c-0.1,0.7-0.2,1.4-0.2,2.2c-0.2,2.4-0.3,5.1-0.3,7.4c0,1-0.1,1.8-0.1,2.7
				c-0.1,2.2-0.1,4.5-0.1,6.7c-0.1,2.8,0.1,5.5,0.1,8.3c0,1.7-0.1,3.4,0,5c0,0.9-0.1,1.7-0.4,2.5c-0.1,0.4-0.3,0.8-0.8,0.8l-1.3,0.4
				c-0.1,0.1-0.1,0.4,0,0.6c0.2,0.5,0.8,0.8,1.5,0.8c0.8-0.1,2.8,0.1,3.7,0.1c0.6-0.1,1.2,0,1.8-0.2c0.3-0.1,0.6-0.1,0.9-0.3
				c0.1-0.2,0.3-0.3,0.2-0.6l-0.5-0.3c-0.4-0.1-0.8,0.1-1.3-0.1c0.1-0.1,0.2-0.4,0.1-0.6c0.1-0.8,0.3-1.5,0.3-2.2
				c0.1-0.7,0-1.5-0.1-2.2l-0.1-5.5c0.1-1.2,0.1-2.3,0.1-3.4c0.1-1.5,0-3.1,0-4.5c0.1-1.9,0.2-3.7,0.3-5.5c0.1-1,0.1-2,0.1-3.1
				c0-1.4,0-2.8,0.2-4.3c0.1-0.5,0.1-1,0.1-1.3c0.1-0.5,0-0.9,0.1-1.3c0.1-0.6,0.1-1.2,0.1-1.8c-0.1-0.3-0.1-0.8,0-1.3
				C288.9,239.5,289,239.4,290.1,239.4z"/>
			<path d="M306.2,239.5c1.6-0.2,3.3-0.3,4.9-0.4c0.3-0.1,0.5,0,0.7,0c0.4,1.2,0.5,1.3,1.5,2.1c0.1,0.1,0.1,0.2,0.2,0.2
				c0.4,0.3,0.8,0.3,1.1-0.1c0.2-0.3,0.4-0.7,0.5-1c0-0.6,0.1-1.2,0.2-1.9c0-0.5-0.3-0.9-1-1l-0.6-0.2c-0.4-0.1-0.8-0.2-1.2-0.2
				c-0.3,0-0.8-0.1-1.2-0.1c-1.8,0.1-3.6,0.2-5.4,0.3c-0.1,0-0.3,0.1-0.4,0.1c-1.1,0.1-2.3,0.1-3.3,0.3c-0.6,0.1-1.2,0.1-1.8,0.3
				c-1.5,0.3-2.8,0.5-4.1,0.7c-0.6,0.1-1.2,0.2-1.7,0.4c-0.3,0.1-0.6,0.6-0.8,1c0.1,0.8,0,1.7,0.1,2.4c0,0.3,0.3,0.4,0.5,0.5
				c0.6,0.1,1.1-0.1,1.1-0.7c0.1-0.6,0.1-1.2,0.4-1.7c0.8-0.3,1.7-0.4,2.6-0.4c0.7,0,1.5-0.1,2.4,0.1c0.1,0.2,0.1,0.5,0.1,0.8
				c-0.1,1.4-0.3,2.9-0.2,4.2c0,1.5-0.3,2.8,0,4.2c0,0.1,0,0.3-0.1,0.6c0,0.8-0.1,1.6-0.1,2.4v1.4c-0.1,1.5-0.1,3-0.2,4.6
				c-0.1,1.3-0.3,2.6-0.3,3.9c-0.1,1.1-0.2,2.2-0.1,3.3c0,1.2,0.1,2.5,0.1,3.7c0.1,0.8,0.1,1.6,0.1,2.4c-0.1,1-0.1,2,0,3
				c0.2,0.5,0.1,1,0.1,1.5c0,0.3-0.3,0.6-0.6,0.6c-0.3,0-0.6,0.2-0.8,0.3c-0.2,0.1-0.6,0.1-0.9,0.1c-0.4,0.1-0.6,0.5-0.3,0.8
				c0.3,0.5,0.8,0.8,1.3,0.8c1,0.1,1.9,0.3,2.7,0.2c0.9,0,1.9-0.1,2.8,0.1c0.9,0.1,1.6-0.1,2-0.8c0.2-0.2,0.3-0.4,0.3-0.6
				c-0.1-0.3-0.3-0.4-0.6-0.5c-0.4,0-0.7,0.1-1,0.1c-0.4,0-0.6-0.2-0.6-0.5c0.2-1.4,0.3-2.7,0.1-4.1c0-0.1,0.1-0.3,0.1-0.5
				c0.1-0.8,0.1-1.5,0.1-2.2c0.1-0.8-0.1-1.5,0.1-2.1c0.1-1.4,0.1-2.6,0.3-4l0.3-3.8l0.2-3.5c0.1-0.2,0.1-0.5,0.1-0.8
				c0-0.6,0-1.2,0.1-1.8c0.1-1.4,0.2-2.7,0.3-4.1c0.2-2.4,0.3-4.9,0.3-7.4c-0.1-0.8-0.1-1.9-0.5-2.6v-0.3
				C306.1,239.6,306.1,239.5,306.2,239.5z"/>
		</g>
		<g>
			<path d="M205.2,323.3C205.2,323.3,205.2,323.3,205.2,323.3C205.2,323.3,205.2,323.3,205.2,323.3L205.2,323.3z"/>
			<path d="M209.4,319.4c-1.1,0.9-1.9,1.3-3.2,1.6h-0.1c-1.3,0.4-3.8-1.3-4.5-2.4c-0.3-0.5-0.8-1.4-0.9-2.6
				c-0.4-2.6-0.4-9.7-0.1-12.3c0.1-0.6,0.1-1.4,0.3-1.9l0.1-0.1c0.1-0.9,0.1-1.8,0.3-2.5c0.5-5.2,1.9-11.1-5.9-8.8
				c-1.8,0.5-3.3,1.3-4.1,2.1l0.1-0.1c-0.8,0.8-1.3,1.2-1.4,1.3c-2,1.6-3.3,3.4-4.4,4.6h-0.1c-0.9,1.2-1.6,2.1-1.9,2.8l-1.5,2.4
				c0.3-2.4,0.1-4.8,0.1-7.3c-0.1-1.6-0.5-3.5-0.1-4.3c0.4-0.8,0.3-1.4-1.2-1.9c0-0.1-1.8-0.1-1.8,0c-1.3,0.5-1.5,1.1-1.6,1.8
				c0,0.3,0.1,0.5,0.1,0.9l0.2,3.1c-0.1,0.1-0.1,0.2-0.2,0.3c-2.8,6.6-9.9,16.2-15,17.5c-1.5,0.6-5.9,1.2-5.8-8.8
				c-0.1-1.9,0.1-4,0.3-5.8c0.3-1.4,0.3-2.9,0.4-4.1c0.1-0.6-0.1-2.4,0.1-2.9c0.1-1.6-3.8-2.9-4.3,0c-0.2,1.3-0.3,1.9-0.3,2.3
				l-0.6-0.6c-0.5-0.3-3.1-2.1-5.5-2.3h-0.1c-1.6-0.1-6.2,0.8-7.4,3.5c-0.8,1-1.2,1.9-1.3,2.6c-0.3,1.2-0.6,2.1-0.8,3
				c-0.6,3.3-0.8,11.8,4.7,10.7c1.7-0.3,4.2-1.6,5-2.3l0.5-0.6l-0.1,0.1c0.9-0.7,3.5-4.1,5.4-7.3c-0.1,0.6-0.1,1.3-0.1,1.9
				c-0.1,2.2,0,4.3,0.4,6.2c0,0.3,0.4,3.4,4.6,6.1c0.5,0.3,2.3,1.5,5.4,0.9c3.1-0.9,3.5-1.4,5.3-2.4c2.3-1.5,4.1-2.9,5.3-4.2
				c1.3-1.4,3-4.3,4.4-6.9c-0.1,2.8-0.4,6.8-0.5,7.6c-0.1,1.1-0.1,2.2,0,3.4c0,0.3,0.7,0.8,1.6,1.1c0.8,0.3,2.3-0.4,2.4-0.6h0.1
				c0.3-0.7,0.4-1.2,0.5-1.4l-0.1,0.1c0.5-1.6,0.8-3,1.3-4.1c0.8-1.6,1.4-2.9,1.9-3.9c1.3-2.3,2.6-4.3,3.7-5.7
				c1.4-1.6,2.7-2.9,3.7-3.9c1.5-1.6,2.8-2.4,4.1-2.9c1.9-0.6,0.4,5.8,0.2,8c-0.2,2.1-0.6,3.9-0.6,5.8c-0.1,1.6-0.1,3.7-0.2,5.1
				c0,3.5-0.2,4.7,1.3,7.7h-0.1c0.3,0.7,0.9,1.6,2.1,2.5v-0.1c0.9,1.1,3.3,2,5.6,1.9c1.4,0,3.1-0.4,3.9-0.8c2.1-0.9,5.2-3.9,5.8-5.1
				C216.3,315,212.7,315.4,209.4,319.4z M149.1,299.9c-1,1.6-4.2,6.3-5,7c-0.9,0.7-1.6,1.4-1.8,1.6c-0.3-0.3-0.8-2-0.8-3.3
				c-0.1-2-0.2-3.7,0.3-5.6c0.3-1.8,0.8-3.3,1.5-4.5c1.4-1.9,2-2.2,3.6-1.3c1.3,0.8,2.6,1.8,4.2,2.5
				C150.7,297.2,149,299.7,149.1,299.9z"/>
			<path d="M217.4,291.1h0.1c1.1,0.2,2.9-0.4,2.9-0.8c0.9-1.6-2.8-2.5-4.1-0.3C216.1,290.6,216.3,290.7,217.4,291.1z"/>
			<path d="M288.4,318.9c-0.8-1.4-3.8,0.6-5.7,4.3c-1,2.1-2.4,2.8-4,3.5c-1.6,0.6-2.4,0.4-3.9-0.9c-1.3-1.3-2-3.6-2.4-6.1
				c-0.6-2.6-0.6-5.6-0.3-8.4c0.1-1.9,0.4-4,0.7-5.7c0.3-2.9,0.9-5.5,1.3-8c0.3-3.5,1-7.2-2.7-8.2c-1.9-0.8-4.1,0.3-5.1,0.9
				c-1.1,0.7-3.1,2.4-3.8,3.2c-0.9,0.8-1.9,2.3-2.2,2.4c-0.4,0.6-1,0.9-0.9,1.1l-0.1,0.1c0.2-1.7,0.1-3.2-0.6-5
				c-0.1-0.5-0.8-1.3-2.2-1.8c-2-0.5-4.2,0.5-5.4,1.4c-4.6,3.8-8.3,9.3-9.6,12c-0.1-1.2-0.2-2.5-0.4-3.7c-0.4-2.1-0.7-4.5-1.1-6.8
				c-0.1-0.2-0.3-0.6-0.6-1.7c-2.7,1-3.1,1.5-2.9,3.3c0.1,0.8,0.2,1.6,0.3,2.5c0,0,0,0,0,0c-5.5,7.2-12,20.3-17,14
				c-0.6-0.8-1-2-1.4-3.4c-0.4-2-0.6-3.8-0.4-6c0.1-1.6,0.5-2.6,0.7-4c0.1-0.6,0.3-1.3,0.3-1.9c0.9-0.6-2.1-1.6-3.1-0.6
				c-1.5,1.5-1.2,1.9-1.5,3.1c-0.3,1.1-0.6,2.2-0.6,2.4c-0.3,1.6-0.2,2.4-0.2,4c0.1,2.9,1.2,9.3,6.2,10.3
				c8.5,1.6,14.6-8.5,17.5-13.2c0.1,0.9,0.2,1.9,0.3,2.8c0.3,2.4,0.6,5,0.7,7.5c0.1,0.9,0.8,1.6,2.2,1.7c1.3,0.1,1.8-0.6,1.9-0.8
				l0.1-0.1l0.3-1.6c0.4-1.9,0.9-3.8,1.6-5.1c2.3-4.3,4.6-8.3,7.4-10.9c1.6-1.4,2.9-2.1,3.6-2.4c0.2-0.1,0,0.1-0.1,1.4
				c0,1.3-0.1,2.7-0.3,4c-0.3,2-0.6,4-1,5.5c-0.6,1.6-0.8,3.4-1.1,4.7c-0.1,0.8,0.1,1.2,0.9,1.8c1.6,1,2.9,0.1,3.2-0.6l0.4-1.1h0.1
				l0.6-1.8c1.1-2.7,2.6-4.9,3.7-6.8h-0.1c1.9-2.6,3.3-4.7,4.8-6.1c1.4-1.3,2.6-1.9,3.5-2.4c0.3-0.1,0.4-0.1,0.6-0.1h0.1
				c0.4-0.1-2.4,16.1-2.4,17.4c-0.1,2.1-0.3,4.3-0.4,6.3v0.8c0.1,2,0.4,4.1,1.1,6.2c0.3,1,0.3,1.8,1.1,3.1c0.1,0.2,1.1,3.2,4.5,4.1
				h0.1c2.5,1.1,5.5,0.4,7.5-0.7h0.1c2.5-1.7,4.2-4.1,5.2-6.3h-0.1C288,320.9,289.2,320.3,288.4,318.9z"/>
			<path d="M313.1,316.6c-0.4-1.3-3.1-0.3-3.2,0.1c-0.1,0.5,0,0.6,0.1,0.7l-0.4,0.1c-0.9,0-2.1-0.4-3-1.3l-0.1-0.1
				c-0.6-0.5-1.4-1.4-2.2-3.1c-1.8-3.9-1.3-13.4-1.1-14.1c0.4-1.5,0.4-2.9,0.8-4.1c0.1-0.7,0.1-2.4,0.3-2.9c0.1-1.6-3.5-3.1-4.3-0.2
				l-0.4,2.1l-0.6-0.6c-0.5-0.1-2.1-2.3-5.2-2.6c-1.1-0.1-6.3,0.1-7.8,2.9c-1.1,1.1-1.4,1.9-1.6,2.7c-0.5,1.1-0.8,2-1,2.8l0.1-0.1
				c-0.4,1.2-0.5,2.3-0.6,3.4c-0.6,2.6,0.6,8,4.3,7.6c1.8-0.1,4.8-1.4,5.3-2.1c0.3-0.1,0.5-0.3,0.6-0.4c1.1-0.9,3.8-4.1,5.8-7
				c-0.3,3.1-0.6,7.8,0.7,11.5l0.4,1.1c0.2,0.6,0.8,1.7,1.8,2.9c0.9,1.1,2.1,2.1,3.9,2.7c0.8,0.4,2.1,0.6,3.3,0.7l1.5-0.1
				c0.5,0,1.3-0.1,1.4-0.3c1.1-0.2,1.9-0.8,2-1.1l0.1-0.1C314,317.4,313.9,317.2,313.1,316.6z M289.8,306.1
				c-0.9,0.7-1.6,1.3-1.9,1.5c-0.3-0.3-0.7-2.1-0.6-3.4c0.1-2.1,0.1-3.7,0.6-5.6c0.4-1.8,1-3.3,1.9-4.5h-0.1
				c2.3-2.5,5.6,0.9,7.6,1.9C296.9,297.7,290.9,305.3,289.8,306.1z"/>
			<path d="M335.7,310.8c-0.6-0.7-2.4-0.5-3.1,0l-1.8,1.2c-0.9,0.6-1.6,0.9-2.2,1.1c-0.5,0.2-0.8,0.3-1,0.3c-0.1,0-0.3-0.1-0.7-0.2
				c0.1-0.1-0.4-0.1-0.8-0.3c-0.3-0.1-0.3-0.1-0.9-0.8c0-0.6,0.1-0.6,0.1-0.5l0.1-0.5c0.3-0.6,0.5-1,0.6-1.1l1.5-4
				c0.3-0.9,0.6-1.4,0.6-1.8c0.5-1.1,0.6-1.8,0.8-1.8c0.4-1.4,0.9-2.5,1.1-3.3l0.7-2.3c0.6-1.8,1.2-3.8,1.6-5.4l0.6-2.3
				c0.5-2.3,1.1-4.3,1.5-6.3c0.3-1.9,0.5-3.7,0.6-5.3c0.5-3.3,0.4-6.2-0.4-9.4c-0.5-1.6-1.6-2.9-3.3-3.4h0.1
				c-0.9-0.5-5.8-2.6-10.8,6.7c-1.4,2.8-2.4,5.1-2.9,7c-0.4,1.3-1.6,6.5-1.6,7.2l-0.1,1.3l-0.2,1.3c-0.1,0.6-0.2,1-0.2,1.4
				c-0.2,2.1-0.1,4.1-0.1,6.2c0,0.5,0,0.8,0.1,1.4c0,2.8,0.4,5.6,2.6,11.7h0.1l0.9,1.8l0.9,1.9l-0.8,1.8l-0.7,1.1l-3.1,4.8l-0.6,0.6
				c-0.9,0.9,0.4,2.4,2.3,2.2c1.6-0.1,2.1-1.3,2.1-1.6c0-0.1,0.1-0.2,0.1-0.3c1.3-1.9,2.1-3.2,2.7-4.1c0.5-0.8,0.9-1.6,1.1-1.9
				l0.9,0.4l0.8,0.6c0.9,0.3,1.4,0.4,2.4,0.4c0.7,0,1.8-0.2,2.3-0.4c2.3-1,4.1-2.1,5.5-3.3l0.1-0.1h0.1l0.1-0.1h-0.1l0.2-0.1
				l-0.1,0.1C336.4,312.4,337.2,312.4,335.7,310.8z M323.4,306.3c-0.4,0.6-0.6,1.1-0.7,1.4c-0.1,0.3-2.5-6-3-10
				c-0.1-0.8-0.1-1.4-0.1-2.2c-0.2-4.4,0.2-8.9,1-13.1c1.1-4.3,2.4-7.8,3.9-10.5c1.3-2.4,2.6-3.8,4.5-4.9l0.5-0.1h-0.1
				c1.1-0.3,1.7,1.9,2,3.8c0.2,1.1,0.4,2.1,0.4,3.1c0,0.8-0.1,1.4-0.1,2.1c-0.1,0.4-0.1,0.8-0.1,1.1l-0.3,2.4
				c-0.1,0.3-0.1,0.4-0.1,0.6l-1.5,6.6c-0.2,1.1-0.4,2.2-0.6,2.9l-2.1,6.8l-0.1,0.1v0.2L323.4,306.3z"/>
		</g>
	</g>
	<path class="st2" d="M193.8,219.9c-0.5-0.7-1.1-1.4-1.9-2.1c-1.2-1-2.6-1.9-4.3-2.6c-0.1,0-0.2-0.1-0.3-0.1c-0.3-0.1-0.6-0.3-1-0.4
		c-0.2-0.1-0.5-0.1-0.7-0.2c-2.1-0.8-2.6-2.5-2.3-4.9c0.5-3.9,0.7-7.9,0.8-11.8c0,0,0-0.1,0-0.1c0-2.6-0.3-4.7-1-6.3
		c-0.3-0.6-0.7-1.2-1.1-1.7c-1-1.1-2.4-2-4.4-2.6c-0.7-0.2-1.4-0.4-2.2-0.6c-0.6-0.1-1.1-0.2-1.7-0.3c-1.2-0.3-2.5-0.5-3.8-0.7
		c-1.8-0.3-3.6-0.5-5.4-0.6c-1.5-0.1-3-0.1-4.4,0c-0.2,0-0.3,0-0.5,0c-1.4,0.1-2.8,0.2-4.1,0.3c-2,0.1-3.9,0.3-5.9,0.5
		c-1,0.1-2,0.2-3.1,0.3c-1.1,0.1-2.2,0.2-3.3,0.3c-1.4,0.2-2.8,0.3-4.3,0.5c-2,0.2-4,0.4-6,0.6c-1.6,0.2-3.1,0.3-4.7,0.5
		c-1,0.3-2.1,0.6-3.1,0.8c-1.3,0.3-2.6,0.7-3.9,1c-2.3,0.6-4.6,1.1-6.8,1.7c-1.4,0.4-2.9,0.8-4.3,1.2c-2.6,0.8-5.3,1.7-7.8,2.9
		c-0.6,0.3-1.1,0.5-1.7,0.8c-1.1,0.6-2.2,1.2-3.3,1.8c-2.7-3.1-5.6-6.2-8.3-9.3c-0.6-0.7-1.3-1.4-1.9-2.1c-0.7-0.7-1.3-1.5-1.9-2.2
		c-0.8-1-1.7-1.9-2.6-2.9c-0.6-0.6-1.1-1.3-1.6-2c-1.1-1.5-0.8-3-0.6-4.8c0.2-2.1,0.3-4.2,0.4-6.4c0-0.8,0-3.4-1.6-2.5
		c-1.8,0.9-0.9,5.5-1.3,7.2c-0.2,1.1-0.3,1.9-1.4,1.5c-1.4-0.5-2.8-2.5-3.8-3.5c-1.1-1.1-0.9-0.8-0.9-2.1c0-1.3,0-2.7,0.3-4
		c0.3-1.5,0.7-3.3,0.6-4.8c0-1.1-1.1-2.8-2.2-1.4c-0.5,0.7-0.7,3.4-0.8,4.3c-0.2,1.4-0.3,2.8-0.4,4.2c-1-1.2-3.7-2.3-4.2-3.9
		c-0.2-0.6,0.2-1.9,0.3-2.5c0.4-2.2,1-4.3,1-6.6c0-1,0-3.8-1.7-3.6c-1.2,0.1-1,1.4-1,2.2c0.1,2.6,0.1,5.5-0.9,7.9
		c-1-1.1-2.8-2.1-3.3-3.5c-0.3-0.9-0.2-1.9-0.2-2.8c-0.1-1.9,0.4-4.3,0.1-6.2c-0.2-1-1.2-2.5-2.4-1.9c-1,0.5-0.8,2.1-0.7,2.9
		c0.4,2.6,0.5,5,0.8,7.6c-1.9-0.2-3.8-0.4-5.7-0.7c-1.2-0.2-2.7-0.7-3.9-0.6c-2.3,0.2-0.8,2.4,0.6,3c1.5,0.7,3.2,0.4,4.7,0.5
		c1.1,0.1,2.2,0.2,3.3,0.4c1,0.1,1.9,0.2,2.7,0.9c0.4,0.4,0.7,1,1.2,1.3c0.4,0.3,0.9,0.4,1.3,0.8c-0.2,0.2-1.8-0.1-2.3-0.1
		c-1.1,0.1-2.2,0.5-3.3,0.5c-1,0-2.3-0.7-3,0.2c-0.9,1.2,0.2,2.2,1.3,2.3c2.7,0.3,5.4-0.1,8-0.3c1.3-0.1,1.6-0.1,2.5,0.9
		c0.6,0.7,1.3,1.4,2,2c0.4,0.4,1.1,1.3,1.7,1.5c-1.9,0.3-3.7,0.9-5.5,1.3c-0.7,0.2-1.7,0.2-2.2,0.8c-0.4,0.6-0.3,1,0.3,1.4
		c0.7,0.6,0.9,0.4,1.7,0.1c1.3-0.4,2.8-0.5,4.1-0.7c1.2-0.2,3-0.7,4-0.3c1.1,0.5,5.2,4.1,3.4,5.1c-1,0.6-3.2,0-4.3,0.1
		c-0.4,0-1.2,0-1.5,0.3c-0.8,0.7-0.2,1.7,0.7,2c1.1,0.3,2.9-0.2,4.1-0.2c1.5,0,3.3-0.1,4.7,0.5c1.7,0.7,2.8,2.3,3.9,3.7
		c0.3,0.4,0.6,0.9,1,1.3c1.1,1.3,2.3,2.6,3.4,3.9c0.6,0.7,1.2,1.4,1.8,2.1c0.6,0.7,1.2,1.4,1.8,2.1c1.9,2.1,3.7,4.2,5.6,6.4
		c-0.5,0.3-1,0.7-1.5,1c-2.8,1.8-5.4,3.9-7.7,6.4c-1.7,1.8-2.9,3.7-3.3,5.8c-0.3,1.7-0.1,3.5,0.7,5.5c1.1,2.3,1.7,4.9,2.8,7.2
		c1.3,3,2.6,5.9,3.9,8.9c2.5,5.7,5,11.4,7.8,17c0,0,0,0.1,0.1,0.1c1.1,2.2,2.3,4.5,3.5,6.7c1.6,3,3.3,5.9,5,8.9
		c0.8,1.3,1.5,2.6,2.3,3.9c0.6,1,1.1,2,1.7,3c0.3,0.4,0.5,0.9,0.8,1.3c0.6,1.1,1.3,2,2.1,2.8c1,1,2.2,1.8,3.5,2.3
		c1,0.4,2,0.6,3.2,0.6c0.6,0,1.2,0,1.8-0.1c1.3-0.1,2.6-0.3,3.8-0.4c1.8-0.2,3.5-0.4,5.3-0.6c0.8-0.1,1.6-0.2,2.4-0.3
		c1.2-0.1,2.3-0.2,3.5-0.4c1.3-0.1,2.7-0.3,4-0.4c1.1-0.1,2.2-0.2,3.3-0.4c1.4-0.2,2.9-0.3,4.3-0.5c1-0.1,2.1-0.2,3.1-0.4
		c1.6-0.2,3.1-0.5,4.6-0.8c1.2-0.3,2.4-0.6,3.6-1c2.2-0.7,4.3-1.6,6.4-2.5c1.6-0.7,3.2-1.5,4.8-2.3c3.3-1.6,5-4,5-7.7
		c0-1.9,0.6-3.7,0.7-5.6c0-1.4,0.3-2.7,0.6-3.9c0.7-2.4,2.1-4.4,4-6.2c0.5-0.4,1-0.9,1.5-1.3c2.1-1.6,4-3.5,5.7-5.5
		c1.2-1.4,2.2-2.9,3.2-4.5c0.9-1.5,1.7-3,2.5-4.6C195.9,226.9,195.9,223,193.8,219.9z M174.9,201.3c1.5-0.7,3.1-1.5,4.6-2.2
		c-1.2,3.7-2,7.8-2.4,12.9c-0.6,7.4-3.2,15.3-6.9,22.8c-2.5,2.5-5.9,5.7-9.4,8.1c0.2-3.3,4.4-12.5,7.6-19.1
		c4.2-8.4,5.6-17.2,6.1-21.2C174.6,202.1,174.7,201.7,174.9,201.3z M173.5,189.8c0.6,0.1,1.2,0.3,1.8,0.5c-2.1,3.2-3.5,6.1-4.4,8.7
		c-1,0-2.1-0.1-3.2-0.4c0-0.8,0-1.6,0-2.3c-0.2-3.9,1.2-4.9,3.2-6.9C171.8,189.5,172.7,189.6,173.5,189.8z M167.8,188.9
		c-0.1,0.2-0.2,0.3-0.3,0.5c-1.5,2-2.4,5-2.2,7.2c0,0.4,0.1,0.8,0.1,1.2c-0.1,0-0.2-0.1-0.3-0.1c-0.8-0.4-1.7-0.8-2.6-1.1
		c0.2-2.8,0.3-5.4,0.9-8C164.9,188.5,166.3,188.7,167.8,188.9z M154.3,205.5c-0.6,0.2-1.1,0.4-1.7,0.5c-2,0.6-4,1.2-6,1.7
		c-1,0.2-1.9,0.5-2.9,0.7c-0.3,0.1-0.6,0.1-1,0.2c-3.4,0.7-6.8,1.4-10.2,2c-0.1,0-0.3,0.1-0.4,0.1c-1.1,0.2-2.2,0.4-3.3,0.6
		c-0.6,0.1-1.2,0.1-1.7,0.2c-1.5,0.1-2.9,0.1-4.4,0.3c-0.5,0-0.9,0.1-1.4,0.2c-1.7,0.2-3.3,0.5-5,0.7c0,0,0,0,0,0
		c-1.8,0.2-3.6,0.3-5.5,0.4c-2.2,0-4.3-0.2-6.3-0.8c0.2-0.3,0.5-0.7,0.8-1l2-1.9c1.1-0.9,2.3-1.6,3.5-2.3c0.1-0.1,0.2-0.1,0.3-0.2
		c1.6-0.9,3.3-1.8,4.9-2.5c1.5-0.7,3.1-1.3,4.7-1.9c0.4-0.2,0.9-0.3,1.3-0.4c1.8-0.6,3.6-1.2,5.4-1.6c1.4-0.4,2.7-0.7,4.1-0.9
		c0,0,0,0,0.1,0c1.6-0.3,3.2-0.8,4.8-1c2-0.2,3.9-0.4,5.9-0.6c0.1,0,0.2,0,0.3,0c1.5-0.1,3-0.2,4.5-0.3c1.7,0,3.3,0,5,0.2
		c0.9,0.1,1.7,0.2,2.6,0.4c1.2,0.2,2.4,0.5,3.5,1c0.3,0.1,0.6,0.2,0.9,0.4c0.2,0.1,2,1.2,2.8,1.8c0.3,0.2,0.5,0.4,0.5,0.4
		c-0.2,0.2-0.4,0.3-0.6,0.4c-1.6,1.1-3.4,1.8-5.3,2.4C155.8,205,155.1,205.3,154.3,205.5z M158.9,188.3c-0.4,2.6-0.6,5.2-0.3,6.8
		c0,0,0,0,0,0c-1.9-0.5-3.9-0.9-5.8-1.1c0.3-1.6,0.8-3.4,1.5-5.6C155.8,188.3,157.3,188.3,158.9,188.3z M148.7,188.8
		c-0.3,1.3-0.5,2.6-0.8,3.9c-0.6-0.7-1.1-2.1-1.3-3.7C147.3,188.9,148,188.8,148.7,188.8z M143.8,189.2c0.2,0.5,0.3,1,0.6,1.5
		c0.4,1,0.8,2.1,1.2,3.1c-1.4,0.1-2.7,0.2-4.1,0.4c-0.6-1.6-1.3-3-1.9-4.4C141,189.6,142.4,189.4,143.8,189.2z M132.4,190.9
		c-0.2,1.2-0.3,2.5-0.5,3.9c0,0.4-0.1,0.7-0.1,1.1c-1.7,0.3-3.3,0.7-5,1.1c-0.3-1.9-0.7-3.7-0.9-4.8
		C128.1,191.7,130.3,191.3,132.4,190.9z M121.5,193.1c0.2,2,0.4,3.8,0.5,5.2c0,0,0,0.1,0,0.1c-2.2,0.7-4.5,1.5-6.6,2.5
		c-0.1-0.6-0.2-1.1-0.3-1.6c-0.2-1.3-0.5-2.8-0.7-4.5C116.8,194.2,119.1,193.6,121.5,193.1z M110.1,195.9c0.1,2.3,0.5,4.7,0.7,7.2
		c-1.3,0.7-2.7,1.5-4,2.3c-0.7,0.4-1.3,0.9-2,1.3c-0.3-0.4-0.7-0.7-1-1.1c2.2-5.6,3.9-9.7,0.8-6.2c0,0-1.2,1.5-2.9,3.9
		c-0.3-0.3-0.6-0.7-0.8-1c-0.6-0.7-1.2-1.4-1.8-2.1c0-0.1,0.1-0.1,0.1-0.2C102.7,198.3,106.3,197,110.1,195.9z M100.1,205.9
		c-1.3,1.9-2.6,4.1-3.8,6.4c-1.4,0.4-2.8,0.6-4.3,0.5c1.7-3.2,3.7-6.6,5.6-9.9C98.5,203.9,99.3,204.9,100.1,205.9z M95.8,240.2
		c-2.5-5.5-5.1-11-7.5-16.6c0.4-2.5,1.1-4.9,1.8-6.9c1.4,0,2.7,0,4.1,0c-1,2.3-1.6,4.5-1.7,6.4c-0.4,7.7,4.4,16.8,5.5,21.8
		C97.2,243.3,96.5,241.8,95.8,240.2z M101.8,253.2c0.5-2,1.2-3.8,1.7-4.6c0.9-1.6,1.7-6.7-0.4-11.4c-2-4.4-4.7-12.7-3-20.5
		c3.3-0.1,6.5-0.2,9.7-0.3c-2.1,5-1.3,11.6-0.5,16.5c0.8,5.2,1.3,12.2-0.8,15.1c-2.1,2.9-0.8,7-0.7,9.3c0.1,1.1-0.2,3.5-0.8,6
		C105.1,260,103.4,256.6,101.8,253.2z M109.6,267.7c1.3-3.3,1.7-5.5,1.2-8.5c-0.8-4.8,1.4-9.3,3.5-12.1c2.1-2.8,3.5-6,2-14.7
		c-1.3-7.9-1.4-11.5-0.5-16.4c1.7-0.1,3.5-0.3,5.2-0.5c-0.2,2.3,0.1,5.5,0.8,9.2c0.9,4.7-0.3,23.1-4.5,26.8
		c-4.1,3.8-4.9,8.8-4.8,14.6c0,1-0.4,2.4-1.1,4.2C110.8,269.5,110.2,268.6,109.6,267.7z M114,273.7c0.7-2.8,1.1-5.5,1.2-8
		c0.2-14.3,2.2-9.4,4.9-12.5c2.7-3.1,8.7-10.9,9.8-17.7c1.1-6.8,0.8-13.5-0.8-16.7c-0.7-1.3-1.2-2.7-1.5-4.2
		c1.8-0.2,3.6-0.5,5.4-0.8c0.1,0.3,0.1,0.5,0.2,0.8c1.9,6.2,2.5,10.1,1.2,18.4c-1.3,8.3-6.3,16.2-9.8,20.2c-3.6,4-6.8,12.5-6.9,20.9
		c0,0.7-0.1,1.4-0.2,2.1C116,275.7,115,274.8,114,273.7z M122.5,277.2c-0.7,0.1-1.4,0.1-2,0c0.4-1.4,0.6-2.8,0.8-4
		c1.1-8.3-1.6-7.4,10.6-22.5c12.2-15.1,8.7-21.3,9.2-25.6c0.3-2.7,0.9-7.9,1.3-13.1c1.4-0.3,2.8-0.6,4.2-1c0.2,6-1.9,14.2-1.9,14.2
		c-0.3,3.5,0.8,3,4-2.9c2.2-2.4,8.1-9.1,11.2-15.2c1.2-0.4,2.5-0.8,3.7-1.3c-0.3,1.1-0.6,2.3-1,3.6c-2.4,8.3-10.2,16.7-15.8,25.3
		c-5.6,8.6-12.7,18.9-16.8,24.4c-3.8,5.2-4.7,9.3-4.8,17.7C124.4,276.9,123.5,277,122.5,277.2z M130.7,276.3c0-1.7,0-3.4-0.2-5.1
		c-0.6-7.3,7.9-15.5,15.4-24.3c7.4-8.8,10.4-15,10.7-16.7c0.3-1.8,2.7-9.2,6.5-14.1c2.2-2.9,3.5-7.3,4.2-11.6c0.8-0.3,1.6-0.6,2.4-1
		c-0.5,2.7-0.5,4.8-0.5,6.2c0.1,3.2-3.2,11.3-8.1,22.4c-3.1,7.1-10.3,14.7-15,19.5c-4,3.4-7.6,7.4-9.4,10c-3.4,4.8-3.1,6.3-3.1,10.6
		c0,1-0.1,2.3-0.2,3.8C132.4,276.1,131.5,276.2,130.7,276.3z M136.9,275.6c0.8-4.4,2-7,5.8-11.8c4.5-5.6,13.4-11.2,19-14.7
		c-0.1,0.2-0.3,0.4-0.4,0.6c-1.7,2.4-3.2,4.9-4.7,7.4c-1.6,1.5-3.2,3-4.3,3.6c-2.8,1.6-8.4,6.5-10.8,13.5c-0.1,0.3-0.2,0.5-0.3,0.8
		C139.9,275.3,138.4,275.5,136.9,275.6z M144.9,274.7c0.8-1.9,1.6-3.4,2.4-3.9c1.8-1.3,2.8-1.4,3.1-0.3c-0.5,1.3-0.9,2.5-1.4,3.7
		C147.7,274.4,146.3,274.6,144.9,274.7z M172.3,261c-0.6,4.2-2.2,7.1-6.3,8.5c0,0-0.1,0-0.1,0c1-8.2,5.1-15.8,6.2-17.8
		c1.4-2.8,0.2-3-0.6-2.1c-0.8,0.9-6,8.2-8.7,13.6c-1.4,2.8-2.5,5.6-3.1,8.6c-1.3,0.5-2.5,0.9-3.8,1.2c0.9-6.6,4.6-14.4,5.9-17
		c3.4-5.2,7-10,9.4-13.1c1.9-2.4,3.8-6,5.5-10C175.2,242.3,173.6,251.6,172.3,261z M191.1,227.2c-0.7,3.2-1.9,6.1-3.6,8.6
		c-1.9,2.9-4.2,5.4-6.9,7.8c-0.4,0.3-0.7,0.6-1.1,1c-0.4-0.2-0.9-0.5-1.3-0.7c0.1-1.3,0.2-2.6,0.4-3.9c0.6-3.5,1.2-7,1.8-10.5
		c0.4-2.4,0.9-4.8,1.3-7.2c0.5-2.4,1.3-3.4,2.9-3.3c0.6,0,1.2,0.2,2,0.5c0,0,0,0,0.1,0c1.8,0.7,3.1,1.7,3.8,3
		C191.3,223.6,191.5,225.2,191.1,227.2z"/>
</g>
</svg>
