<svg id="Layer_1" data-name="Layer 1" xmlns="http://www.w3.org/2000/svg" viewBox="0 0 500 500"><defs><style>.cls-1{fill:#b6bd55;}.cls-2{fill:#f4c06a;}</style></defs><path class="cls-1" d="M397,151.3c26.3-7.7,9.5-23.2-2.7-16.9-21.7,11.3-34.4,39.7-34.4,39.7S370.8,158.9,397,151.3Z"/><path class="cls-1" d="M387.8,130.2c22.4-15.7,1.5-25-8-15.1C363,132.8,360,163.7,360,163.7S365.4,145.9,387.8,130.2Z"/><path class="cls-1" d="M103,146.1c26.2,7.6,37.1,22.8,37.1,22.8s-12.7-28.3-34.4-39.7C93.5,122.9,76.7,138.5,103,146.1Z"/><path class="cls-1" d="M112.2,125c22.4,15.7,27.8,33.6,27.8,33.6s-3-30.9-19.8-48.6C110.7,100,89.8,109.4,112.2,125Z"/><path class="cls-1" d="M420.2,374.9a3.8,3.8,0,0,0-4.8-2.4,259.5,259.5,0,0,1-29.5,8.2c14.7-11.9,21.3-29.7,16.7-29.5s-16.5,4.2-25.3,14.4a32.5,32.5,0,0,0-7.7,17.9,211.4,211.4,0,0,1-29.7,2.1c18.7-7.9,30.6-25.7,25.8-26.5s-17.1.5-27.9,8.6A32.1,32.1,0,0,0,326,385a162.3,162.3,0,0,1-23.1-3.3c16.6-4.3,28.7-17.3,24.9-18.7s-14.8-2-25.2,3.3a27.6,27.6,0,0,0-12.3,12.1c-18.1-5.5-27.8-12.1-28-12.2a3.8,3.8,0,0,0-5.3.9,3.7,3.7,0,0,0,.9,5.2c1,.7,11.3,7.8,30,13.5a28.1,28.1,0,0,0,7.5,17.6c8,8.5,18,11.7,22.6,11.7s-2.6-15.9-16.4-25.7a182.2,182.2,0,0,0,23.4,3.4,31.9,31.9,0,0,0,13.5,17.9c11.2,7.3,23.2,8,28.4,6.7s-7.6-17.1-25.8-24.1a188,188,0,0,0,20.7-1.1l7.8-.9a31.7,31.7,0,0,0,16.9,14.5c12.6,4.7,24.4,2.8,29.2.4s-10.6-14.7-29.6-17.8a263.2,263.2,0,0,0,31.7-8.8A3.7,3.7,0,0,0,420.2,374.9Z"/><path class="cls-1" d="M237.7,366.2c-.2.1-9.9,6.7-28,12.2a27.6,27.6,0,0,0-12.3-12.1c-10.4-5.3-20.8-4.9-25.2-3.3s8.3,14.4,24.9,18.7A162.3,162.3,0,0,1,174,385a32.1,32.1,0,0,0-11.8-17.3c-10.8-8.1-22.6-9.6-27.9-8.6s7.1,18.6,25.8,26.5a211.4,211.4,0,0,1-29.7-2.1,32.5,32.5,0,0,0-7.7-17.9c-8.8-10.2-20-14.2-25.3-14.4s2,17.6,16.7,29.5a259.5,259.5,0,0,1-29.5-8.2,3.8,3.8,0,0,0-4.8,2.4,3.7,3.7,0,0,0,2.4,4.7,263.2,263.2,0,0,0,31.7,8.8c-19,3.1-33.7,15.7-29.6,17.8s16.6,4.3,29.2-.4a31.7,31.7,0,0,0,16.9-14.5l7.8.9a188,188,0,0,0,20.7,1.1c-18.2,7-30.3,23-25.8,24.1s17.2.6,28.4-6.7A31.9,31.9,0,0,0,175,392.8a182.2,182.2,0,0,0,23.4-3.4c-13.8,9.8-20.5,25.7-16.4,25.7s14.6-3.2,22.6-11.7a28.1,28.1,0,0,0,7.5-17.6c18.7-5.7,29-12.8,30-13.5a3.7,3.7,0,0,0,.9-5.2A3.8,3.8,0,0,0,237.7,366.2Z"/><path class="cls-1" d="M125.4,193.8a7.3,7.3,0,0,0-2.3-4.4,6.3,6.3,0,0,0-4.6-1.7,7,7,0,0,0-4.9,2,6.9,6.9,0,0,0-2.1,5,6.3,6.3,0,0,0,2.1,5.2,8.9,8.9,0,0,0,5.8,1.8,21.6,21.6,0,0,0,10.8-2.6,17.8,17.8,0,0,0,6.8-6.8,3.4,3.4,0,0,0,.6-1.2,29,29,0,0,1-4.8-5.7,12.7,12.7,0,0,1-1.7,4A13.6,13.6,0,0,1,125.4,193.8Z"/><path class="cls-1" d="M123.1,168.4c-10.5,0-18.8,5.1-24.8,15.4s-8.4,21.3-8.4,35.1c0,12,2.1,22.2,6.4,30.5s11.4,13.7,19.9,13.7c5.8,0,10.8-1.4,14.8-4.3h.2c.8-3,3.1-6.3,7.2-10.2l1.1-.9c.6-1.4,1.2-3,1.7-4.6a15.5,15.5,0,0,1-3.4.5,6.2,6.2,0,0,1-3.3-.8q-2.9,6.2-6.3,8.7a15.2,15.2,0,0,1-9,3.3c-7.5,0-12.7-6.1-15.3-18.2a85.7,85.7,0,0,1-1.7-17.2,98.1,98.1,0,0,1,1.4-16.4,62.4,62.4,0,0,1,4.1-14.2,30,30,0,0,1,6.6-10,12.2,12.2,0,0,1,8.8-3.8c3.4,0,5.8.9,7.5,2.6l.5.6a7.3,7.3,0,0,1,4.3-5.3,17,17,0,0,0-3-2.3C130,169,126.9,168.4,123.1,168.4Z"/><path class="cls-1" d="M261.5,260.5c.8-3.3,1.1-8.5,1.1-15.6a71.2,71.2,0,0,1,.8-10.2,233.4,233.4,0,0,1,3.9-23.6c2.1-9.5,4.7-14.2,7.8-14.2s5.3,4.8,6.8,14.4,2.8,27,2.8,47.7c0,2.8,1.8,4.1,5.2,4.1a7.4,7.4,0,0,0,3.4-.7,2.7,2.7,0,0,0,1.7-1.9q1.2-5,1.2-15.6c0-6.3-.3-12.6-.9-19.1-.9-11.6-2.7-21-5.3-28.3s-7-13-11.9-13-9.8,5.8-13.3,17.4c-1.3,4.3-2.5,9.4-3.8,15.6a110.3,110.3,0,0,0-4.4-20c-3-8.7-7-13-12.1-13s-9.7,5.8-13.2,17.4c-.9,2.9-1.7,6.1-2.5,9.6-.3-13.4-.5-21-.5-22.8s-1.3-3.7-3.9-4a48.2,48.2,0,0,1-7.1,7.8c-.2,1.5-.3,3.1-.4,5h.9c4.2,0,7.2,2.7,7.4,6.7s-3.7,6.2-8.7,8.2v.8a70,70,0,0,1,9.8-.9h1.9a27.5,27.5,0,0,1,5.2.4l.3-1.4c2.2-9.5,4.8-14.2,7.9-14.2s5.3,4.8,6.9,14.4,2.8,26.6,2.8,47.2c0,1.8.4,3.1,1.4,3.7a7,7,0,0,0,3.7.9,7.7,7.7,0,0,0,3.4-.7A2.5,2.5,0,0,0,261.5,260.5Z"/><path class="cls-1" d="M226,262.4a2.8,2.8,0,0,0,1.8-1.9,88.1,88.1,0,0,0,1.1-12.8c.3-6.3.7-11.9,1.4-16.9.1-.9.3-1.7.4-2.5h-1.3a95.3,95.3,0,0,1-12.6-1,4.8,4.8,0,0,0,0,1.2c4.5,1.9,7,4.3,7.7,7.2a6.4,6.4,0,0,1-1.7,6.2,5.3,5.3,0,0,1-4.2,1.7h-1.5v.6c.1,1.3.1,2.6.1,3.8,3.8,3.4,7.1,7,8.3,9.6a6.2,6.2,0,0,1,.4,4.9Z"/><path class="cls-1" d="M330.1,263.1a21.5,21.5,0,0,0,14.7-5.4c4.1-3.7,7.2-9.1,9.1-16.2a7.8,7.8,0,0,0,.2-1.4,2.3,2.3,0,0,0-.8-1.9,2.7,2.7,0,0,0-1.8-.7l-1.4.3c-.7.1-1.2.9-1.6,2.1-1.6,5.3-3.8,9.1-6.8,11.4a14.9,14.9,0,0,1-9,3.4,12.4,12.4,0,0,1-9.3-4.1,23.8,23.8,0,0,1-5.4-9.8,48.4,48.4,0,0,1-1.9-12.9c4.7,4.4,10.7,6.5,17.9,6.5q8.1,0,13.5-3.6a23.9,23.9,0,0,0,8.1-9.7,30.2,30.2,0,0,0,2.8-13.1,27.6,27.6,0,0,0-2.3-11.6,19.3,19.3,0,0,0-7.1-8.6c-3.2-2.2-7.1-3.3-12-3.3a29.1,29.1,0,0,0-19.8,7.2A37.8,37.8,0,0,0,307,207a57.1,57.1,0,0,0-3.3,19.3c0,9.8,2.2,18.2,6.7,25.3S321.9,263.1,330.1,263.1Zm-5.5-65.2c3.5-4.6,7.6-6.8,12.4-6.8a14.1,14.1,0,0,1,8.4,2.4,16.4,16.4,0,0,1,4.9,6.4,21.4,21.4,0,0,1-.4,17.6,17.9,17.9,0,0,1-5.9,7.2,17.2,17.2,0,0,1-9.9,2.7c-7.5,0-13.3-2.8-17.3-8.5Q318.6,205.7,324.6,197.9Z"/><path class="cls-1" d="M386.6,256.2a18,18,0,0,1-6.9-1.3,12.9,12.9,0,0,1-5.6-4,16.9,16.9,0,0,1-3.4-7.4c-.3-1.5-.8-2.4-1.4-2.4h-1.1a3.2,3.2,0,0,0-2.6,1.3,3.2,3.2,0,0,0-.9,2.4,4.4,4.4,0,0,0,.3,1.5c1.6,5.8,4.6,10,9,12.7a28.7,28.7,0,0,0,15.3,4.1c6.3,0,11.3-1.8,15.1-5.6s5.7-8.9,5.7-15.7c0-5.1-2-8.9-6-11.5s-7-3.3-12.9-4.9a64.6,64.6,0,0,1-7.4-2.3,15,15,0,0,1-5.5-3.3,7.2,7.2,0,0,1-2.1-5.5,37.9,37.9,0,0,1,1.6-11.4,19.5,19.5,0,0,1,5.4-8.5,13.7,13.7,0,0,1,9.5-3.2,11,11,0,0,1,5.9,1.3,8.3,8.3,0,0,1,3.1,3.4,8.6,8.6,0,0,1,.9,4,6.3,6.3,0,0,1-.7,3.2,2.5,2.5,0,0,1-2.3,1.3,6.9,6.9,0,0,0-2.2-4.3,6.8,6.8,0,0,0-9.5.3,6.3,6.3,0,0,0-2.2,4.9,6.6,6.6,0,0,0,2.2,5.3,8.4,8.4,0,0,0,5.7,1.7,15,15,0,0,0,7.8-1.8,12,12,0,0,0,4.6-4.9,15.2,15.2,0,0,0,1.4-6.3,15.5,15.5,0,0,0-1.8-7.3,14.6,14.6,0,0,0-5.6-5.4,19.3,19.3,0,0,0-9.2-2c-9.4,0-16.4,3.1-21,9.2s-6,11.8-6,19.5a13.7,13.7,0,0,0,1.8,7.4,14.1,14.1,0,0,0,4.6,4.8,27.1,27.1,0,0,0,6.4,3.1c2.4.7,4.8,1.5,7.2,2.1s5.4,1.5,7.8,2.3a17.8,17.8,0,0,1,5.7,3.5,7.8,7.8,0,0,1,2.2,5.8c0,4.4-1.1,7.9-3.4,10.4S390.7,256.2,386.6,256.2Z"/><path class="cls-2" d="M221.1,204.3c-.2-3.1-3.1-4.1-10-.9a46.5,46.5,0,0,0-6.7,3.6,29.8,29.8,0,0,0-12.9-12.9c3.1-4.7,7.5-13.9,5.8-15.5s-5.1-.6-7.8,6.5a46.1,46.1,0,0,0-2.1,7.3,28.4,28.4,0,0,0-18.2,0c-1.2-5.5-4.6-15.2-7-15.1s-4,3.1-.8,10.1a46.5,46.5,0,0,0,3.6,6.7A29,29,0,0,0,152.2,207a57.4,57.4,0,0,0-6.8-3.8c-6.9-3.2-9.9-2.2-10,.9s9.6,5.7,15.1,7a28,28,0,0,0-1.5,9.1,29.3,29.3,0,0,0,1.4,9,52.8,52.8,0,0,0-7.4,2.2c-7.1,2.6-8.5,5.4-6.5,7.7s10.9-2.7,15.6-5.7a30.1,30.1,0,0,0,12.8,12.9,45.1,45.1,0,0,0-3.7,6.7c-3.2,6.9-2.2,9.9.8,10.1s5.8-9.6,7.1-15.1a28.2,28.2,0,0,0,9.2,1.5,29.1,29.1,0,0,0,8.9-1.4,48.6,48.6,0,0,0,2.2,7.3c2.6,7.2,5.4,8.6,7.6,6.5s-2.6-10.7-5.6-15.5a29,29,0,0,0,12.9-12.8c4.8,3,14,7.4,15.5,5.7s.7-5.1-6.4-7.7a52.3,52.3,0,0,0-7.3-2.2,28.2,28.2,0,0,0,1.5-9.2,27.4,27.4,0,0,0-1.5-9C211.7,209.9,221.2,206.6,221.1,204.3Z"/><path class="cls-2" d="M180,186.4c1.6-2.8,4-24.8.2-26.1s-6.4,1.7-6,11.7,2.2,14.3,2.2,14.3S177.7,190.3,180,186.4Z"/><path class="cls-2" d="M176.4,254.2s-1.9,4.3-2.2,14.3,2.3,13,6,11.7,1.4-23.4-.2-26.1S176.4,254.2,176.4,254.2Z"/><path class="cls-2" d="M203.4,197.6c3.1-.8,20.4-14.7,18.6-18.3s-5.8-3.3-12.5,4-8.6,11.6-8.6,11.6S199,198.8,203.4,197.6Z"/><path class="cls-2" d="M137.2,264.1c3.6,1.7,17.5-15.5,18.4-18.6s-2.7-2.5-2.7-2.5-4.4,1.7-11.7,8.5S133.6,262.4,137.2,264.1Z"/><path class="cls-2" d="M141.2,189c7.3,6.7,11.7,8.5,11.7,8.5s3.8,1.9,2.7-2.5-14.8-20.3-18.4-18.6S133.9,182.2,141.2,189Z"/><path class="cls-2" d="M203.4,242.9c-4.4-1.2-2.5,2.7-2.5,2.7s1.8,4.3,8.6,11.6,10.8,7.6,12.5,4S206.5,243.7,203.4,242.9Z"/><path class="cls-2" d="M226.4,216.2c-9.9.4-14.2,2.2-14.2,2.2s-4.1,1.4-.2,3.7,24.8,4,26.2.2S236.4,215.8,226.4,216.2Z"/><path class="cls-2" d="M144.3,222.1c4-2.3-.1-3.7-.1-3.7s-4.3-1.8-14.3-2.2-13,2.3-11.7,6.1S141.6,223.7,144.3,222.1Z"/><path class="cls-2" d="M146.1,143.7c.4,10.9,1,18.3,1.9,22.3a2.4,2.4,0,0,0,1.6,1.7,7.3,7.3,0,0,0,3,.7c3.2,0,4.7-1.3,4.7-3.8,0-16.3-.2-32.4-.7-48.2h31.1c-.4,14.9-.7,31-.7,48.3,0,2.5,1.6,3.8,4.7,3.8a7.8,7.8,0,0,0,3.1-.7,2.3,2.3,0,0,0,1.5-1.7c.9-4,1.5-11.4,1.9-22.3s.7-22,.9-33.6.2-19.7.2-24.3c0-2.5-1.5-3.8-4.6-3.8a6.2,6.2,0,0,0-3.1.7,2.4,2.4,0,0,0-1.6,1.8c-.9,4.4-1.6,13.5-2.1,27.1H156.4c-.5-13.5-1.1-22.6-2-27a2.6,2.6,0,0,0-1.6-1.8,6.4,6.4,0,0,0-3.1-.7c-3.2,0-4.7,1.3-4.7,3.8,0,4.6.1,12.7.2,24.3S145.7,132.9,146.1,143.7Z"/><path class="cls-2" d="M247.8,99.7a18.7,18.7,0,0,0-10.9-3,26.4,26.4,0,0,0-18.1,6.6,33.9,33.9,0,0,0-9.2,14,51.1,51.1,0,0,0-3.1,17.5c0,8.9,2.1,16.6,6.2,23.1s10.4,10.5,17.9,10.5a19.7,19.7,0,0,0,13.4-5c3.7-3.4,6.5-8.3,8.2-14.7a3.2,3.2,0,0,0,.2-1.3,2.1,2.1,0,0,0-.7-1.8,2.5,2.5,0,0,0-1.6-.6l-1.3.3c-.6.1-1.1.8-1.5,1.9-1.4,4.8-3.4,8.3-6.1,10.3a13.3,13.3,0,0,1-8.3,3.2,11.3,11.3,0,0,1-8.4-3.7,21.8,21.8,0,0,1-5-9,44.7,44.7,0,0,1-1.6-11.7c4.2,3.9,9.7,5.9,16.3,5.9a21.6,21.6,0,0,0,12.2-3.3,21,21,0,0,0,7.4-8.8,28.3,28.3,0,0,0,2.6-11.9,26.9,26.9,0,0,0-2.1-10.7A19,19,0,0,0,247.8,99.7Zm.9,27.1a15.9,15.9,0,0,1-5.5,6.5,15.2,15.2,0,0,1-9,2.5c-6.8,0-12.1-2.6-15.8-7.7,1.2-8.1,3.5-14.5,7.1-19.2s7-6.2,11.4-6.2a12.5,12.5,0,0,1,7.6,2.3,13.6,13.6,0,0,1,4.5,5.8,19.3,19.3,0,0,1,1.5,7.5A20.6,20.6,0,0,1,248.7,126.8Z"/><path class="cls-2" d="M294.5,96.7c-2.6,0-5.2,1.5-7.6,4.4-4.4,5.1-8.2,13.3-11.5,24.6-.3-13.2-.4-21.6-.4-25.2s-1.6-3.7-4.7-3.7a6.2,6.2,0,0,0-3.1.7,2.4,2.4,0,0,0-1.6,1.7c-.9,4.6-1.3,11.8-1.3,21.4s.1,20.1.4,30.6c.2,6,.3,10.5.3,13.4s1.6,3.8,4.7,3.8a7.8,7.8,0,0,0,3.1-.7,2.7,2.7,0,0,0,1.6-1.7,131.8,131.8,0,0,0,1.8-18.2,74,74,0,0,1,2.2-14.4,114.7,114.7,0,0,1,4.2-13.6,55.1,55.1,0,0,1,5-10.3c1.7-2.7,3.4-4,4.9-4a3.3,3.3,0,0,1,3.3,2.3,11.2,11.2,0,0,1,1,4.8,21.8,21.8,0,0,1-2.8,10.2,3,3,0,0,0-.1,2.4,2.2,2.2,0,0,0,2.1,1.1,3.1,3.1,0,0,0,1.9-.8,11.5,11.5,0,0,0,3.2-5.1,23.4,23.4,0,0,0,1.5-6.1c.1-1.8.2-3.1.2-3.9,0-4.9-1.1-8.6-3.2-11.3A6,6,0,0,0,294.5,96.7Z"/><path class="cls-2" d="M346.4,99.7c-2.8-2-6.5-3-10.9-3a26,26,0,0,0-18,6.6,33.2,33.2,0,0,0-9.3,14,51.1,51.1,0,0,0-3,17.5c0,8.9,2,16.6,6.1,23.1s10.4,10.5,17.9,10.5a19.5,19.5,0,0,0,13.4-5c3.8-3.4,6.5-8.3,8.3-14.7a6.2,6.2,0,0,0,.1-1.3,2.1,2.1,0,0,0-.7-1.8,2.5,2.5,0,0,0-1.6-.6l-1.3.3c-.6.1-1.1.8-1.4,1.9-1.5,4.8-3.5,8.3-6.2,10.3a13.1,13.1,0,0,1-8.3,3.2,11.3,11.3,0,0,1-8.4-3.7,21.7,21.7,0,0,1-4.9-9,40.9,40.9,0,0,1-1.7-11.7c4.3,3.9,9.7,5.9,16.3,5.9a21.4,21.4,0,0,0,12.2-3.3,22,22,0,0,0,7.5-8.8,28.2,28.2,0,0,0,2.5-11.9,26.9,26.9,0,0,0-2.1-10.7A18.3,18.3,0,0,0,346.4,99.7Zm.9,27.1a15.2,15.2,0,0,1-14.4,9c-6.9,0-12.1-2.6-15.8-7.7,1.1-8.1,3.5-14.5,7.1-19.2s6.9-6.2,11.3-6.2a12.3,12.3,0,0,1,7.6,2.3,13.6,13.6,0,0,1,4.5,5.8,19.3,19.3,0,0,1,1.5,7.5A20.6,20.6,0,0,1,347.3,126.8Z"/><path class="cls-2" d="M132.1,269.6h-31a1.8,1.8,0,0,0-1.5.7,2,2,0,0,0-.6,1.5,2.2,2.2,0,0,0,2.1,2.3h12.1c-1.1,8.3-1.8,24.8-2.1,49.4-.1,10.6-.2,17.6-.2,21.2s1.5,3.4,4.4,3.4a6.7,6.7,0,0,0,2.8-.6,2.2,2.2,0,0,0,1.4-1.6c1.3-6.6,2.2-23.7,2.5-51.2.2-9.3.3-16.2.3-20.6h9.8a2.1,2.1,0,0,0,1.5-.7,1.9,1.9,0,0,0,.7-1.6,2.4,2.4,0,0,0-2.2-2.2Z"/><path class="cls-2" d="M163.1,282.5c-2.4,0-4.7,1.3-7,4s-6.7,10.6-9.5,19.2c.3-12.9.5-24,.5-33.3,0-2.3-1.5-3.4-4.3-3.4a6.8,6.8,0,0,0-2.9.6,2.6,2.6,0,0,0-1.5,1.6c-.8,4-1.4,11.1-1.7,21.3s-.7,20.5-.8,31-.2,17.6-.2,21.2,1.4,3.4,4.3,3.4a6.8,6.8,0,0,0,2.9-.6,2.2,2.2,0,0,0,1.4-1.6,155,155,0,0,0,2-16.6,93.9,93.9,0,0,1,5.6-24.6c3.1-7.9,6-11.9,8.8-11.9s4.4,4,5.8,12.1,2.2,22.3,2.2,39.4a3.6,3.6,0,0,0,1.3,3.1,5.6,5.6,0,0,0,3,.7,6.8,6.8,0,0,0,2.9-.6,2.6,2.6,0,0,0,1.5-1.6,67,67,0,0,0,.9-13c0-16.6-1.7-29.8-5.1-39.5C170.7,286.1,167.3,282.5,163.1,282.5Z"/><path class="cls-2" d="M222.5,285.2a17.3,17.3,0,0,0-10-2.7,24.4,24.4,0,0,0-16.6,6,30.5,30.5,0,0,0-8.4,12.8,45.7,45.7,0,0,0-2.8,16c0,8.2,1.8,15.3,5.6,21.2s9.5,9.6,16.4,9.6a17.9,17.9,0,0,0,12.3-4.5c3.4-3.1,6-7.6,7.6-13.5a5.7,5.7,0,0,0,.1-1.2,2,2,0,0,0-.6-1.6,2.4,2.4,0,0,0-1.5-.6l-1.2.3c-.6.1-1,.7-1.3,1.7-1.3,4.4-3.2,7.6-5.7,9.5a12.1,12.1,0,0,1-7.6,2.9,10.4,10.4,0,0,1-7.7-3.4,19.6,19.6,0,0,1-4.5-8.2,42,42,0,0,1-1.6-10.8c4,3.6,8.9,5.4,15,5.4a19.7,19.7,0,0,0,11.2-3A18.6,18.6,0,0,0,228,313a24.9,24.9,0,0,0,2.4-10.9,23.7,23.7,0,0,0-2-9.7A16.7,16.7,0,0,0,222.5,285.2Zm.8,24.8a14,14,0,0,1-5,6,14.4,14.4,0,0,1-8.2,2.3c-6.3,0-11.1-2.4-14.5-7.1,1-7.4,3.2-13.2,6.5-17.6s6.4-5.6,10.4-5.6a10.9,10.9,0,0,1,6.9,2,13.2,13.2,0,0,1,4.2,5.4,17.7,17.7,0,0,1,1.4,6.9A18.4,18.4,0,0,1,223.3,310Z"/><path class="cls-2" d="M292.2,314.8a64.8,64.8,0,0,0-7.3-5.3,63.3,63.3,0,0,1-6.3-4.4,20,20,0,0,1-4.7-5,10.4,10.4,0,0,1-1.9-6.3,29.5,29.5,0,0,1,1.5-9.5,15.6,15.6,0,0,1,4.4-7.1,11.5,11.5,0,0,1,7.9-2.7,8.7,8.7,0,0,1,4.9,1.2,7.2,7.2,0,0,1,2.7,2.8,8.4,8.4,0,0,1,.8,3.4,4.4,4.4,0,0,1-.7,2.6,2,2,0,0,1-1.8,1.1,6.3,6.3,0,0,0-1.9-3.6,5.6,5.6,0,0,0-3.9-1.5,5.7,5.7,0,0,0-4.1,1.7,5.6,5.6,0,0,0-1.8,4.2,5.4,5.4,0,0,0,1.8,4.4,7.8,7.8,0,0,0,4.8,1.4,12.5,12.5,0,0,0,6.5-1.5,10.6,10.6,0,0,0,3.8-4.1,10.9,10.9,0,0,0,1.3-5.3,11.5,11.5,0,0,0-1.6-6,12,12,0,0,0-4.6-4.6,16.5,16.5,0,0,0-7.7-1.7c-7.9,0-13.7,2.6-17.6,7.7s-5,9.9-5,16.3a17,17,0,0,0,5,12.5c2.3,2.5,5.9,5.1,10.7,7.9a68.3,68.3,0,0,1,6.9,4.5,20.1,20.1,0,0,1,5.2,5.3,12.9,12.9,0,0,1,2,7.5c0,3.7-.9,6.5-2.8,8.6a10.4,10.4,0,0,1-7.9,3.1,16.2,16.2,0,0,1-5.8-1.1,11.2,11.2,0,0,1-4.7-3.4,14.4,14.4,0,0,1-2.8-6.1q-.5-1.9-1.2-2.1h-.9a3.1,3.1,0,0,0-2.9,3.2,4.9,4.9,0,0,0,.1,1.2c1.5,4.8,4,8.4,7.7,10.6A23.2,23.2,0,0,0,283,348c5.2,0,9.4-1.5,12.6-4.6s4.8-7.5,4.8-13.2a16.8,16.8,0,0,0-2.3-8.9A26,26,0,0,0,292.2,314.8Z"/><path class="cls-2" d="M346.6,285.8c0-2.2-1.4-3.3-4.3-3.3a6.4,6.4,0,0,0-2.8.5,2.9,2.9,0,0,0-1.5,1.6,165.5,165.5,0,0,0-1.9,16.7,83.8,83.8,0,0,1-5.3,24.5q-4.7,12-8.7,12c-2.6,0-4.5-4.1-5.8-12.1s-2.3-22.3-2.3-39.4c0-1.5-.4-2.6-1.2-3.1a6.2,6.2,0,0,0-3.1-.7,6.1,6.1,0,0,0-2.8.5,2.8,2.8,0,0,0-1.6,1.6c-.6,2.6-.9,7.1-.9,13.6,0,4.9.3,10,.7,15.4.8,9.5,2.3,17.3,4.5,23.6s5.8,10.9,10,10.9c2.4,0,4.8-1.3,7.1-4,3.9-4.7,7.4-12.2,10.4-22.5,0,3,.1,6,.1,8.9q.3,9.2.3,14.1c0,2.2,1.4,3.4,4.3,3.4a7.2,7.2,0,0,0,2.9-.6c1.7-.8,2.6-7.9,2.6-21.2,0-9.1-.1-18.4-.4-28C346.7,292.7,346.6,288.5,346.6,285.8Z"/><path class="cls-2" d="M400.4,316.9a102.6,102.6,0,0,0-4.4-23.5c-2.5-7.3-5.9-10.9-10.1-10.9-2.4,0-4.7,1.3-7,4-4,4.7-7.5,12.2-10.5,22.4-.2-12-.4-19.7-.4-23s-1.4-3.3-4.3-3.3a8.2,8.2,0,0,0-2.8.5,2.6,2.6,0,0,0-1.5,1.6c-.8,4.3-1.2,10.8-1.2,19.7s.1,18.4.4,28q.3,8.3.3,12.3c0,2.3,1.4,3.4,4.3,3.4a6.4,6.4,0,0,0,2.8-.6,2.4,2.4,0,0,0,1.5-1.6,162.7,162.7,0,0,0,1.9-16.6,85.2,85.2,0,0,1,5.3-24.6c3.1-7.9,6-11.9,8.8-11.9s4.4,4,5.7,12.1,2.3,22.3,2.3,39.4a3.4,3.4,0,0,0,1.3,3.1,5.6,5.6,0,0,0,3,.7,6.8,6.8,0,0,0,2.9-.6,2.2,2.2,0,0,0,1.4-1.6c.6-2.5.9-7.4.9-14.4C401,327,400.8,322.1,400.4,316.9Z"/></svg>