<?xml version="1.0" encoding="utf-8"?>
<!-- Generator: Adobe Illustrator 18.1.1, SVG Export Plug-In . SVG Version: 6.00 Build 0)  -->
<svg version="1.1" id="Layer_1" xmlns="http://www.w3.org/2000/svg" xmlns:xlink="http://www.w3.org/1999/xlink" x="0px" y="0px"
	 viewBox="0 0 595.3 595.3" enable-background="new 0 0 595.3 595.3" xml:space="preserve">
<path fill="#9A7438" d="M165.7,70.9c-0.3-1.5,1.3-2.2,2-2.6c0.7-0.5,5.9-2.9,13.2-4.9c1.8-0.5,4-1.1,6-1.2c1.8-0.1,2.7,0.3,3.3,1.7
	c0.3,0.9,1.4,6,1.4,7c0,0.7-0.2,1.2-0.8,1.6c-0.5,0.3-0.9,0.6-1.5,0.7c-1.8,0.3-18.5,4.7-19.2,5c-0.2,0.1-0.4,0.1-0.6,0.1
	c-0.7,0-1.3-0.2-1.7-0.8C167.3,76.8,165.9,71.6,165.7,70.9z M200.5,56.7c0.7,3,4.4,18,6.7,23.6c0.1,0.5,0.3,0.9,0.5,1.3
	c0.3,0.6,0.6,0.8,1.2,0.8c2.6,0.1,6-0.6,8.2-1.4c1-0.5,1-0.5,1.2-1.2c0.1-0.6-0.1-2.8-0.9-6.3c-0.4-1.7-0.6-2.7,0.4-2.7
	c0.7,0,3.1,0.5,3.7,0.6c1.4,0.2,1.9,0.3,2,2.2c0.1,1.6,0.4,3.1,0.8,4.5c0.2,1,0.8,1.5,1.7,1.5c0.8,0.1,1.7,0.1,2.5,0.1
	c1.7-0.2,4.7-0.2,6.7-1.1c0.5-0.3,0.9-0.6,0.9-1.2c0.6-3-4.7-32.8-5-34.1c0,0-0.2-3.4-1.8-4.1c-1.5-0.6-5.4-0.1-8.3,0.6
	c-2.7,0.6-3,1.7-3,2.6c0.3,3.6,1,6.2,1.5,8.7c0.1,0.8,1.7,9.5,1.7,9.6c0.3,0.8-0.5,0.8-0.6,0.8c-1.7,0.1-2.9,0-4.2-0.3
	c-0.5-0.1-1-0.2-1.5-1.1c-0.5-0.9-1.7-5.7-2-7.4c-0.4-1.7-0.7-3.6-1.1-5.3c-0.2-1.1-0.4-2.3-0.4-3.4c-0.1-0.8-0.7-1.6-1.5-1.8
	c-1.2-0.3-7.8,1.1-9.2,1.6c-0.6,0.2-1.4,0.8-1.6,1.4c-0.6,1.4,0.2,5.9,0.5,7.2C199.7,53.6,200.2,55.4,200.5,56.7z M246,63.7
	c-0.8-2.1-2.6-6.7-2-12.8c0.2-2.4,1-4.7,2.1-6.8c1.1-1.9,2.4-3.7,4.2-5c1.2-0.8,4.4-2.9,8.9-3.8c4.6-0.7,9.2,0.2,13.3,3.4
	c1.6,1.3,2.7,2.8,3.8,4.5c2.2,2.9,2.9,7.7,3.2,9.1c0.8,3.5-0.1,11.5-3.2,15.8c-2.1,3-5.3,5.5-7.9,6.6c-1.2,0.6-3.2,1.1-6,1.2
	c-2.7,0.2-6-0.7-9.6-3.1C249.4,70.4,246.7,65.7,246,63.7z M256.1,57.4c0.2,2.2,1.4,3.9,3.4,5c0.4,0.2,3,1.2,5.3-0.2
	c0.9-0.7,1.5-1.4,2.1-2.7c1.1-2.6,1.2-5.5,0-8.2c-0.9-2.1-2.8-3.4-5.3-3.3c-0.9,0.1-1.8,0.5-2.5,0.9c-1.6,0.9-2.1,2.1-2.6,3.4
	C256.1,53.5,255.7,55.4,256.1,57.4z M292.1,74.8c3,0.7,6.8,0.8,8.6,0.4c0.9-0.2,1.4-0.8,1.5-1.3c0.1-0.2,0.1-0.3,0.1-0.5
	c0.1-1.6,0.3-3.1,0.3-5.3c-0.1-0.9-0.1-3-0.1-4c0-1.8-0.1-3.5,0.2-5.4c0-0.7,0.1-1.2,0.2-1.8c0.1-0.3,0.4-0.4,0.6-0.2
	c0.1,0.1,0.3,0.3,0.4,0.4c0.5,0.6,0.7,1,1.1,1.8c0.7,1.2,1.2,1.9,2,2.6c0.5,0.6,1.9,0.8,2.7,0.6c1.2-0.2,1.7-0.8,2.4-1.8
	c0.3-0.4,0.6-0.9,1-1.3c0.4-0.4,0.7-0.8,1.1-1.1c0.3-0.3,0.7-0.6,1.2-0.6c0.5,0.1,0.4,0.9,0.3,1.3c-0.1,1-0.2,2.1-0.3,3.1
	c-0.4,1.9-1.7,9.1-2.1,10.7c-0.1,0.7-0.2,1.4-0.2,2.1c0,0.7,0.5,1.3,1.2,1.5c0.1,0.1,7.2,1.5,9.6,0.9c1.1-0.5,1.3-1.6,1.4-2.4
	c0.1-1.5,1.4-9.7,2.1-18.4c0.6-5.2,1-12,1.2-14.6c0.1-0.5,0-1,0-1.5c-0.1-0.8-0.3-1.6-0.9-2.4c-0.4-0.6-1-1-1.8-1.1
	c-1.6-0.2-5.9-0.5-7.5-0.4c-1.7,0.2-2.9,0.6-3.6,1.9c-0.1,0.2-0.2,0.4-0.3,0.6c-0.5,1.1-1.1,2.3-1.6,3.4c-0.7,1.3-1.4,2.7-2,4
	c-0.2,0.3-0.9,1.9-1.6,1.7c-0.7-0.1-2-3-2.4-4.2c-0.6-1.6-1.2-3.2-1.8-4.8c-0.3-0.9-0.8-2.6-2.5-3.2c-1-0.3-1.8-0.6-2.8-0.8
	c-1.8-0.3-3.7-0.5-5.6-0.5c-2-0.1-2.9,1.3-3.1,2c-0.6,1.9-1,9.2-1,10.6c-0.1,2.4-0.1,19.9-0.2,21.3c0,1.4,0.1,2.9,0.3,4.4
	C290.6,73.8,291.3,74.6,292.1,74.8z M339.1,79.1c1.4,0.6,2.9,0.7,4.3,1c2.7,0.5,9.5,1.7,10.2,1.8c1.5,0.2,2.8,0.5,4.2,0.7
	c0.9,0.2,1.7,0.2,2.5,0.1c0.5-0.1,1-0.3,1.2-0.8c0.4-1,2.1-6.9,2.3-8.4c0.3-1.3-0.6-2.2-1.1-2.3c-1.9-0.6-6.5-0.8-10.9-2.3
	c-1.5-0.5-1.4-2.1-1.3-3c0.3-1,1.5-1.3,3.2-1c1.9,0.4,6.3,1.5,6.7,1.5c0.6,0,1-0.2,1.3-0.7c0.9-1.4,1.4-2.9,1.8-4.5
	c0.2-0.9,0.2-1.8,0.1-2.7c-0.1-0.7-0.5-1.3-1.2-1.6c-1-0.3-4.7-1.2-6.5-1.4c-1.1-0.2-1.5-0.3-2.2-0.5c-0.6-0.2-1-0.5-1-1.1
	c-0.1-0.6-0.2-1.5,0.7-2c1.4-1,6.6,0.9,8.7,1.4c3,0.6,5.2,1.2,6-0.5c2.1-4.9,1.6-7.4,0.7-8.5c-0.7-0.8-1.7-1-3.9-1.5
	c-4-0.8-9.4-2.2-20.6-3.2c-1.9-0.2-2.6,0.4-2.9,1.2c-3.7,21.8-4.5,31-4.9,36.1C336.6,78,337.4,78.4,339.1,79.1z M376.6,72.1
	c0.2,0.1,0.4,0.2,0.6,0.3c0.8,0.1,17.2,5.4,18.9,6c0.6,0.2,1.1,0.2,1.7,0.2c0.7,0,1.2-0.4,1.6-0.9c0.5-0.9,2.3-5.7,2.5-6.7
	c0.4-1.5-0.3-2.4-1.8-3.2c-1.7-1-4-1.6-5.8-2.2c-7.3-2.2-12.9-2.9-13.8-2.9c-0.8,0-2.5-0.2-3,1.2c-0.2,0.7-1.8,5.9-1.8,6.6
	C375.6,71.2,376,71.7,376.6,72.1z M258.2,317.9c0,15.8-9.8,30.2-21.6,40.6c-3.5,39.5-5.2,89.6-5.2,101.1c0,3.5,0.3,7.2,0.3,10.7
	c-1.7,1.2-4,1.4-6,1.4c-1.7,0-3.5,0-4.6-1.4c0-13.2-0.3-26.8-0.3-40c0-8.6,0-35.4,2.3-62.5c-6,3.2-12.4,5.8-18.4,8.1
	c-9.8,3.7-27.1,9.5-39.7,11.2c-0.3,13.2-1.2,26.2-2.3,39.2c-0.9,8.6-1.4,25.1-3.7,32.5c-0.6,2.3-1.4,2.9-3.7,2.9
	c-1.7,0-6.6-1.4-6.6-3.7c0-15-3.7-57.3-20.2-68.8c-3.7,0-9.5-0.6-13-2.3c-1.7-0.9-2.9-2.3-2.9-4c0-1.2,0.9-2,1.7-2.6
	c1.4-0.3,2.9-0.3,4.3-0.3c4.3,0,8.1,1.4,11.2,4h5.8c5.2,0,10.4-0.3,15.6-0.9c0.3-8.4,0.3-17,0.3-25.3c0-13,0-25.9-0.6-38.9
	c-0.3-6-1.2-12.4-1.2-18.4c0-1.7,2.9-1.7,4-1.7c2.3,0,3.5,0,5.2,1.7c5.8,5.8,6.6,49,6.6,58.7c0,7.2-0.3,14.4-0.3,21.6
	c18.1-3.2,41.8-10.9,58.5-20.2c3.2-30.8,9.5-59.6,23-59.6C254.5,301,258.2,311.6,258.2,317.9z M151.1,388.2
	c-5.5,0.6-10.7,0.9-15.8,0.9c7.5,9.8,12.1,25.6,14.7,40.3L151.1,388.2z M252.2,317.7c0-4-1.2-8.9-5.5-10.7
	c-3.7,1.4-6.9,19.9-9.2,43.5C245.6,341.8,252.2,328,252.2,317.7z M507.3,332.1c-34.3,0-58.2,2.9-89.3,6
	c-0.3,35.4-10.1,50.7-13.2,57.9c0,34.6-0.3,67.1,0.3,72c-2,4-8.4,3.5-8.4,1.2c-1-20.3-1.8-41.6-2.3-63.6
	c-6.9,14.5-19.1,33.9-29.9,25.3c-4.6-3.7-4-11.2-1.7-19.6c2-6.9,7.8-17.3,6.9-22.2c-0.3-1.7-3.2-3.7-3.7-3.7
	c-7.5,10.4-19.3,42.6-33.1,42.9c-10.7,0.3-9.5-15.6-8.6-22.2c-3.5,6.3-8.1,12.4-13,14.1c-4,2-6,1.2-8.6-2c-2.3-3.5-2.8-8.5-2-13.5
	c-7.3,9.4-21.1,26.5-35.4,15.6c-13-9.5,1.7-46.4,17.3-44.1c6.9,0.3,11.2,8.6-0.3,17.6c-2.9,2.9-6.6,5.2-10.7,7.2
	c-1.7,8.4-1.4,16.4,2.9,17.3c9.9,1.9,21.1-11.9,27.9-20.1c3.7-10,11.7-18.2,19.6-13.3c1.7,1.4,3.5,4.6,4.6,7.8l2.3-4.6
	c1.4-3.5,9.2-1.2,8.4,3.2c-4.6,21-4.9,29.7-3.7,31.4c4,5.5,26.2-33.4,28.5-38.6c-6-0.9-7.5-16.7-4.9-20.7c2.3-4.6,10.4-5.5,14.7-1.2
	c5.5,3.5-2.9,14.4-4,19c3.2,1.4,4.9,4,5.8,6.9c1.7,6.9-1.4,16.1-2.9,23c-2.3,11.2-1.7,16.7,0.9,16.7c6.1,1.9,20.1-23.4,22.9-29.7
	c-0.4-19-0.5-38.3-0.4-57.6c-29.1,3.2-58.7,6.9-60.8,2.9c-0.9-3.2,41.2-4.3,57-6.6c1.4,0,2.6-0.3,4-0.3c0.3-10.4,2.3-28.8,11.5-30.2
	c6.9-1.2,12.1,7.8,12.4,27.6c33.1-3.7,58.5-5.5,89.9-5.5C509.9,328.9,509.9,332.1,507.3,332.1z M272.3,396.9
	c2.6-1.4,4.6-2.9,6.6-4.3c4.3-3.7,10.4-13,5.2-13C279.5,379.6,274.9,387.9,272.3,396.9z M324.2,396.3c-0.9-5.2-2.3-8.4-4-8.4
	c-7.5-0.9-15.5,32.3-8.9,28.2c3.5-2.6,8.9-11.8,13-19.3V396.3z M414.3,338.4c-3.5,0.6-7.2,0.9-10.7,1.2c0.3,15,0.6,30.8,0.6,50.4
	C407.1,382.7,414.3,361.1,414.3,338.4z M414.3,334.1c-0.9-10.9-4-24.2-7.2-23.6c-2.9,0.6-3.7,13-3.5,24.8
	C407.4,334.9,410.9,334.7,414.3,334.1z M278.4,460.6c0,0,4.3-8.6,3.5-13.2c0-4.9-6.3-3.2-6.3-3.2s-4.3,11.2-2,14.1
	C276.7,461.5,278.4,460.6,278.4,460.6z M321.4,532c2,18.1-6.3,34-25.6,27.1c-4-1.2-8.1-4.6-11.2-8.1c-6-6.9-7.8-17-4.3-26.5
	c4-8.6,12.4-19,20.7-28.5c0-0.3-0.3-0.9-0.3-1.2c-1.4-4.8-3.7-11.3-5.6-18.4c-3.4,6.4-11.7,20.7-19.5,19.8
	c-11.2-1.4-8.1-22.2-5.8-30.2c0-1.2,8.4-1.2,8.4,1.2c0.6,2.3-4.6,19.6-1.4,23c1.6,3.3,12.1-10.1,17.1-19.1
	c-2.2-10.7-2.5-21.9,3.9-30.2c6.6-5.8,15.8-4,17.3,5.5c0,1.2-1.2,3.2-3.2,1.2c-0.6-5.8-7.5-8.9-10.9-3.5c-5.5,5.8,0.3,24.5,7.2,44.9
	c10.1-9.8,21-17.6,26.8-19.3c1.2-0.6,2.3,2.3,1.2,3.2c-8.4,4.6-17,13.2-25.6,21.6C316.2,509,320.8,521.7,321.4,532z M313,536.3
	c-0.6-8.1-4.9-23-9.8-35.7c-5.5,5.8-9.8,11.8-12.7,17.3c-6.6,10.1-7.5,23-2.6,30.5c2,4,6.6,6,9.2,7.2
	C305.8,556.8,313.9,550.2,313,536.3z M300.3,229.8c-0.7-0.4-1.8-0.6-3.2-0.6c-0.5,0-0.9,0-1.4,0c0,1.9,0,3.7,0,5.6c0.5,0,1,0,1.5,0
	c1.4,0,2.5-0.2,3.2-0.7c0.7-0.5,1-1.2,1-2.2C301.3,231,301,230.3,300.3,229.8z M449.1,226.3c-4.2,5.6-8.4,11.3-12.5,16.9
	c3,6.4,5.9,12.7,8.7,19.1c0.3,0.6,0.2,1.2-0.2,1.7c-0.3,0.5-0.9,0.7-1.4,0.7c-0.1,0-0.1,0-0.2,0c-103.8-11-209-11-312.8,0
	c-0.7,0.1-1.2-0.2-1.6-0.7c-0.4-0.5-0.4-1.2-0.2-1.7c2.9-6.4,5.8-12.8,8.7-19.1c-4.1-5.7-8.3-11.3-12.5-16.9
	c-0.4-0.5-0.5-1.2-0.2-1.8c0.3-0.6,0.8-1,1.4-1c106.7-11.3,214.8-11.3,321.5,0c0.6,0.1,1.2,0.5,1.4,1
	C449.6,225.1,449.5,225.8,449.1,226.3z M172.1,250.7c-0.5-6.9-1.1-13.8-1.6-20.6c-1.5,0.1-3,0.2-4.6,0.4c0.6,6.9,1.1,13.8,1.7,20.6
	C169.1,250.9,170.6,250.8,172.1,250.7z M193.2,243.5c-0.1-1.3-0.5-2.5-1.3-3.3c-0.8-0.9-2.2-1.7-4.3-2.5c-1.6-0.6-2.5-1-3-1.3
	c-0.4-0.2-0.7-0.5-0.9-0.8c-0.2-0.3-0.3-0.6-0.3-1c0-0.6,0.2-1.1,0.6-1.6c0.4-0.4,1.1-0.7,1.9-0.7c0.7,0,1.5,0,2.2,0.1
	c0.8,0.1,1.7,0.4,2.9,0.8c0.4-1.2,0.8-2.3,1.3-3.5c-1.1-0.4-2.2-0.7-3.2-0.9c-1-0.2-2.1-0.2-3.2-0.2c-2.3,0.2-4,0.8-5.2,1.9
	c-1.2,1.1-1.8,2.6-1.6,4.4c0.1,1,0.3,1.8,0.8,2.5c0.4,0.7,1,1.3,1.7,1.8c0.7,0.5,1.7,1,3.1,1.5c1.4,0.5,2.4,1,2.9,1.2
	c0.5,0.3,0.8,0.5,1.1,0.8c0.3,0.3,0.4,0.7,0.4,1.1c0,0.7-0.2,1.3-0.7,1.7c-0.5,0.4-1.2,0.6-2.2,0.7c-0.8,0.1-1.7,0-2.8-0.2
	c-1-0.2-2.3-0.5-3.7-1.1c0.1,1.4,0.2,2.7,0.3,4.1c1.8,0.7,3.8,1,6.1,0.8c2.5-0.2,4.3-0.8,5.6-2C192.7,246.8,193.3,245.3,193.2,243.5
	z M237.6,226.4c-1.5,0-3,0.1-4.5,0.2c-0.8,3.8-1.6,7.6-2.3,11.4c-0.2,0.7-0.3,1.6-0.5,2.7c-0.2,1.1-0.3,2-0.4,2.8
	c-0.1-0.8-0.3-1.7-0.6-2.7c-0.2-1.1-0.4-1.8-0.6-2.4c-1.2-3.8-2.4-7.6-3.6-11.5c-1.4,0.1-2.9,0.1-4.3,0.2c-0.9,3.9-1.7,7.8-2.6,11.7
	c-0.2,0.6-0.3,1.5-0.5,2.7c-0.2,1.1-0.3,2-0.3,2.5c-0.3-1.5-0.7-3.3-1.3-5.4c-1.1-3.7-2.2-7.4-3.3-11.1c-1.5,0.1-3,0.1-4.5,0.2
	c2.2,6.8,4.3,13.6,6.5,20.4c1.7-0.1,3.4-0.2,5.1-0.2c0.8-3.7,1.6-7.3,2.4-11c0.1-0.5,0.3-1.3,0.4-2.4c0.2-1.1,0.3-2,0.3-2.5
	c0.1,0.4,0.2,1.2,0.6,2.4c0.3,1.2,0.5,2,0.6,2.4c1.1,3.6,2.2,7.2,3.3,10.7c1.7-0.1,3.4-0.1,5.1-0.2
	C234.4,240.3,236,233.3,237.6,226.4z M261.9,246.5c-0.1-6.9-0.2-13.8-0.3-20.7c-1.5,0-3,0.1-4.5,0.1c0.1,2.7,0.1,5.4,0.2,8.1
	c-2.8,0.1-5.7,0.1-8.5,0.2c-0.1-2.7-0.1-5.4-0.2-8.1c-1.5,0-3,0.1-4.6,0.1c0.2,6.9,0.4,13.8,0.6,20.7c1.5,0,3-0.1,4.5-0.1
	c-0.1-3-0.2-6-0.2-8.9c2.8-0.1,5.6-0.1,8.5-0.2c0.1,3,0.1,6,0.2,8.9C258.9,246.5,260.4,246.5,261.9,246.5z M283.1,246.3
	c0-1.2,0-2.4,0-3.6c-2.6,0-5.2,0-7.7,0c0-1.8,0-3.6,0-5.3c2.4,0,4.8,0,7.2,0c0-1.2,0-2.4,0-3.6c-2.4,0-4.8,0-7.2,0c0-1.5,0-3,0-4.5
	c2.6,0,5.2,0,7.8,0c0-1.2,0-2.4,0-3.6c-4.1,0-8.3,0-12.4,0.1c0.1,6.9,0.2,13.8,0.2,20.7C274.9,246.3,279,246.3,283.1,246.3z
	 M308,246.4c-0.9-1.4-3-4.4-6.2-9.1c1.3-0.5,2.3-1.3,3-2.2c0.7-0.9,1.1-2,1.1-3.2c0-2.1-0.7-3.6-2-4.7c-1.4-1-3.6-1.6-6.5-1.6
	c-2.1,0-4.2,0-6.3,0c0,6.9,0,13.8-0.1,20.7c1.5,0,3,0,4.5,0c0-2.6,0-5.3,0-7.9c0.8,0,1.6,0,2.4,0c1.7,2.7,3.3,5.3,5,8
	C304.7,246.4,306.4,246.4,308,246.4z M327,226.1c-4.1-0.1-8.3-0.2-12.4-0.3c-0.1,6.9-0.3,13.8-0.4,20.7c4.1,0.1,8.2,0.2,12.2,0.3
	c0-1.2,0.1-2.4,0.1-3.6c-2.6-0.1-5.2-0.1-7.7-0.2c0-1.8,0.1-3.6,0.1-5.3c2.4,0.1,4.8,0.1,7.2,0.2c0-1.2,0.1-2.4,0.1-3.6
	c-2.4-0.1-4.8-0.1-7.2-0.2c0-1.5,0.1-3,0.1-4.5c2.6,0.1,5.2,0.1,7.8,0.2C327,228.5,327,227.3,327,226.1z M360.7,227.4
	c-5.4-0.3-10.8-0.5-16.2-0.7c0,1.2-0.1,2.4-0.1,3.7c1.9,0.1,3.9,0.2,5.8,0.2c-0.2,5.7-0.5,11.4-0.7,17c1.5,0.1,3,0.1,4.5,0.2
	c0.3-5.7,0.5-11.3,0.8-17c1.9,0.1,3.9,0.2,5.8,0.3C360.6,229.8,360.7,228.6,360.7,227.4z M385.3,228.7c-1.5-0.1-3-0.2-4.5-0.3
	c-0.2,2.7-0.3,5.4-0.5,8.1c-2.8-0.2-5.6-0.3-8.5-0.5c0.2-2.7,0.3-5.4,0.5-8.1c-1.5-0.1-3-0.2-4.6-0.2c-0.4,6.9-0.7,13.8-1.1,20.7
	c1.5,0.1,3,0.2,4.5,0.2c0.2-3,0.3-5.9,0.5-8.9c2.8,0.2,5.6,0.3,8.4,0.5c-0.2,3-0.4,5.9-0.6,8.9c1.5,0.1,3,0.2,4.5,0.3
	C384.4,242.5,384.8,235.6,385.3,228.7z M406.7,230.3c-4.1-0.3-8.2-0.6-12.4-0.9c-0.5,6.9-1,13.8-1.5,20.6c4.1,0.3,8.1,0.6,12.2,0.9
	c0.1-1.2,0.2-2.4,0.3-3.6c-2.6-0.2-5.2-0.4-7.7-0.6c0.1-1.8,0.3-3.5,0.4-5.3c2.4,0.2,4.8,0.4,7.2,0.5c0.1-1.2,0.2-2.4,0.3-3.6
	c-2.4-0.2-4.8-0.4-7.2-0.6c0.1-1.5,0.2-3,0.3-4.5c2.6,0.2,5.2,0.4,7.8,0.6C406.5,232.7,406.6,231.5,406.7,230.3z M442.4,277.8
	c1.3,0,2.4-1,2.5-2.2c0.1-1.4-0.9-2.6-2.2-2.8c-21.5-2.3-43.2-4.1-64.7-5.4c-1.4,0-2.6,1-2.7,2.3c-0.1,1.4,1,2.6,2.3,2.7
	c21.4,1.3,43.1,3.1,64.5,5.4C442.2,277.8,442.3,277.8,442.4,277.8z M345.3,270.8c1.4,0.1,2.5-1,2.6-2.4c0.1-1.4-1-2.5-2.4-2.6
	c-71.1-2.8-143.1-0.4-213.9,7c-1.4,0.1-2.4,1.4-2.2,2.8c0.1,1.3,1.2,2.2,2.5,2.2c0.1,0,0.2,0,0.3,0
	C202.7,270.3,274.4,268,345.3,270.8z M418.6,287.9c1.3,0,2.4-1,2.5-2.3c0.1-1.4-0.9-2.6-2.3-2.7c-51.4-4.6-103.7-6.6-155.3-5.7
	c-1.4,0-2.5,1.2-2.5,2.5c0,1.4,1.1,2.4,2.5,2.5c51.5-0.8,103.5,1.1,154.8,5.7C418.4,287.9,418.5,287.9,418.6,287.9z M155.5,282.9
	c-1.4,0.1-2.4,1.3-2.3,2.7c0.1,1.3,1.2,2.3,2.5,2.3c0.1,0,0.2,0,0.2,0c27.6-2.5,55.5-4.2,83.1-5.1c1.4,0,2.5-1.2,2.4-2.6
	c0-1.4-1.2-2.5-2.6-2.4C211.2,278.7,183.2,280.4,155.5,282.9z M315,307.1c-3.1,1.3-6.3,2.6-9,4.7c-1.3,1.1-2.3,3-4,3.2
	c-2.1,0.3-3.1-2.2-4.6-3.3c-1.9-1.3-4-2.4-6.3-2.1c-4.3,0.1-8.1,3.2-8.9,7.5c0.3,8.7,7.9,22.3,11.1,26.8c1.3,1.8,3.8,6.6,5,8.4
	c1.6,2.1,3.7,2,5-0.3c0.5-1.1,0.8-2.1,1.1-3c2.4-5.9,5.5-11.5,9.8-16.3c3.6-3.8,6.3-8.4,9.5-12.9c1.4-2.1,2.7-7.2,0.6-10.3
	C322.8,307.2,318.4,305.5,315,307.1z M453.1,154.6l-9.4-1.4c-2.2-0.3-3.9-2.1-4.3-4.3l-1.4-9.4c-0.2-1.4-2.3-1.4-2.5,0l-1.4,9.4
	c-0.3,2.2-2.1,3.9-4.3,4.3l-9.4,1.4c-1.4,0.2-1.4,2.3,0,2.5l9.4,1.4c2.2,0.3,3.9,2.1,4.3,4.3l1.4,9.4c0.2,1.4,2.3,1.4,2.5,0l1.4-9.4
	c0.3-2.2,2.1-3.9,4.3-4.3l9.4-1.4C454.6,156.9,454.6,154.8,453.1,154.6z M150.6,184.8c1.7,0.3,3.1,1.6,3.3,3.3l1.1,7.4
	c0.2,1.1,1.8,1.1,1.9,0l1.1-7.4c0.3-1.7,1.6-3.1,3.3-3.3l7.4-1.1c1.1-0.2,1.1-1.8,0-1.9l-7.4-1.1c-1.7-0.3-3.1-1.6-3.3-3.3L157,170
	c-0.2-1.1-1.8-1.1-1.9,0l-1.1,7.4c-0.3,1.7-1.6,3.1-3.3,3.3l-7.4,1.1c-1.1,0.2-1.1,1.8,0,1.9L150.6,184.8z M242.3,95.3
	c0.1,0,0.3,0,0.4,0c-2.6-1.5-5.7-2.4-8.9-2.4c-9.9,0-18,8-18,18c0,9.9,8,18,18,18c3.3,0,6.3-0.9,8.9-2.4c-0.1,0-0.3,0-0.4,0
	c-8.6,0-15.6-7-15.6-15.6C226.7,102.2,233.7,95.3,242.3,95.3z M353.1,106.5c-3,0-5.4,2.4-5.4,5.4c0,3,2.4,5.4,5.4,5.4
	c3,0,5.4-2.4,5.4-5.4C358.5,108.9,356.1,106.5,353.1,106.5z M410.7,184.1c0-1.7-1.4-3.1-3.1-3.1c-1.7,0-3.1,1.4-3.1,3.1
	c0,1.7,1.4,3.1,3.1,3.1C409.3,187.2,410.7,185.8,410.7,184.1z M140.6,150.6c0-1.7-1.4-3.1-3.1-3.1c-1.7,0-3.1,1.4-3.1,3.1
	c0,1.7,1.4,3.1,3.1,3.1C139.2,153.7,140.6,152.3,140.6,150.6z M252.8,494.3c0,0-0.1,0-0.1,0c-18,0.6-36.1,1.9-54.2,3.9
	c-4.2-4.3-8.4-8.7-12.7-12.9c-1.5-1.5-3.8-1.4-5.3,0c-1.5,1.5-1.4,3.9,0,5.3c2.9,2.8,5.7,5.7,8.5,8.6c-3.8,0.5-7.7,1-11.5,1.5
	c-4.3-4.2-8.7-8.4-13.1-12.5c-1.5-1.4-3.9-1.3-5.3,0.2c-1.4,1.5-1.3,3.9,0.2,5.3c3,2.8,5.9,5.6,8.8,8.4c-3.8,0.6-7.7,1.2-11.5,1.8
	c-4.4-4.1-8.9-8.2-13.4-12.1c-1.6-1.4-3.9-1.2-5.3,0.3c-1.4,1.6-1.2,3.9,0.3,5.3c4.2,3.7,8.4,7.5,12.5,11.3c-2.6,5-5.2,10-7.7,15
	c-0.9,1.9-0.2,4.1,1.7,5c0.5,0.3,1.1,0.4,1.7,0.4c1.4,0,2.7-0.8,3.4-2.1c2.6-5.3,5.4-10.6,8.1-15.8c3.8-0.6,7.6-1.2,11.4-1.8
	c-2,3.5-3.9,7.1-5.8,10.7c-1,1.8-0.3,4.1,1.5,5.1c0.6,0.3,1.2,0.4,1.8,0.4c1.3,0,2.6-0.7,3.3-2c2.8-5.2,5.7-10.4,8.5-15.5
	c3.8-0.5,7.6-1,11.4-1.5c-2.1,3.5-4.2,7-6.1,10.5c-1,1.8-0.4,4.1,1.4,5.1c0.6,0.3,1.2,0.5,1.9,0.5c1.3,0,2.6-0.7,3.3-1.9
	c2.9-5,5.9-10.2,9-15.3c17.8-1.9,35.8-3.2,53.6-3.8c2.1-0.1,3.7-1.8,3.6-3.9C256.4,495.9,254.8,494.3,252.8,494.3z M415.7,507.3
	c0.9,0.9,1.4,2.2,1.1,3.4c-0.2,1.3-1.1,2.3-2.3,2.8c-8.4,3.4-16.9,7-25.2,10.8c-0.5,0.2-1,0.3-1.6,0.3c-0.8,0-1.6-0.3-2.3-0.8
	c-1.1-0.8-1.7-2.2-1.4-3.6l1.7-11c-17.3-2.5-34.8-4.5-52.2-5.8c-2.1-0.2-3.6-2-3.5-4c0.2-2.1,1.9-3.7,4-3.5
	c17.6,1.3,35.3,3.3,52.8,5.9l1.7-11.1c0.2-1.3,1.1-2.5,2.4-3c1.3-0.5,2.7-0.2,3.8,0.7C401.9,494.6,408.9,500.9,415.7,507.3z
	 M406.3,508.8c-3.7-3.4-7.5-6.8-11.3-10.1l-1.2,8c0,0,0,0,0,0c0,0,0,0,0,0l-1.2,7.9C397.1,512.7,401.7,510.7,406.3,508.8z
	 M114.4,128.8c1.4,0,2.5-1.1,2.5-2.5c0-7,3-13.8,8.2-18.5c4.6-4.3,10.7-6.6,17-6.6c12.3,0,22.7,8.8,24.8,20.8
	c0.2,1.4,0.4,2.9,0.4,4.3c0,0.8,0,1.5-0.1,2.3c-0.1,1.4,0.9,2.6,2.3,2.7c0.1,0,0.2,0,0.2,0c1.3,0,2.4-1,2.5-2.3
	c0.1-0.9,0.1-1.8,0.1-2.7c0-0.9-0.1-1.9-0.1-2.8c1.4-0.3,2.7-0.5,4.2-0.5c11.3,0,20.6,9.2,20.6,20.8c0,2.1-0.4,4.1-1,6.1
	c-0.4,1.3,0.3,2.7,1.6,3.2c0.3,0.1,0.5,0.1,0.8,0.1c1.1,0,2-0.7,2.4-1.7c0.6-1.7,0.9-3.6,1-5.5c1.9-0.5,3.8-0.8,5.7-0.8
	c13.3,0,24.1,10.8,24.1,24.1c0,0.2,0.1,0.4,0.1,0.7c-17.7,16.9-34.5,29.1-47.9,37.6l-0.9-3.2c-0.3-1.2-1.6-1.9-2.8-1.6
	c-1.2,0.3-1.9,1.6-1.6,2.8l1.3,4.4c0.6,1.9,1.9,4.2,3.6,3.2c0.2-0.1,0.4-0.2,0.6-0.4c9.3-5.8,20.3-13.4,32.2-23.1l6,21.6
	c17.7-0.7,35.5-1.2,53.3-1.3c6.4-23.1,10-44.7,11.8-57.7c1.8,13,5.3,34.7,11.8,57.7c17.8,0.1,35.5,0.6,53.3,1.3l6-21.6
	c11.9,9.8,22.9,17.3,32.2,23.1c2.6,1.4,3.8-1.4,4.2-2.8l1.3-4.4c0.3-1.2-0.4-2.5-1.6-2.8c-1.2-0.3-2.5,0.4-2.8,1.6l-0.9,3.2
	c-13.4-8.5-30.2-20.7-47.9-37.6c0.1-0.2,0.1-0.4,0.1-0.7c0-13.3,10.8-24.1,24.1-24.1c1.9,0,3.8,0.3,5.7,0.7c0.2,1.9,0.5,3.8,1,5.5
	c0.3,1.1,1.3,1.7,2.4,1.7c0.3,0,0.5,0,0.8-0.1c1.3-0.4,2-1.8,1.6-3.2c-0.6-2-1-4-1-6.3c0-11.3,9.2-20.6,20.6-20.6
	c1.4,0,2.8,0.2,4.2,0.5c-0.1,0.9-0.1,1.9-0.1,2.8c0,0.9,0,1.8,0.1,2.7c0.1,1.3,1.2,2.3,2.5,2.3c0.1,0,0.2,0,0.2,0
	c1.4-0.1,2.4-1.3,2.3-2.7c-0.1-0.8-0.1-1.5-0.1-2.3c0-1.4,0.1-2.9,0.4-4.3c2.1-12.1,12.5-20.8,24.8-20.8c6.3,0,12.3,2.3,17,6.6
	c5.2,4.8,8.2,11.5,8.2,18.5c0,1.4,1.1,2.5,2.5,2.5c1.4,0,2.5-1.1,2.5-2.5c0-8.4-3.6-16.5-9.8-22.2c-5.6-5.1-12.8-7.9-20.4-7.9
	c-13.8,0-25.7,9.3-29.1,22.4c-1.7-0.3-3.3-0.6-5-0.6c-13.1,0-23.8,9.8-25.4,22.7c-1.9-0.4-3.8-0.6-5.7-0.6
	c-14.8,0-27,11.1-28.8,25.3c-16.1-16-32.8-36-48.2-60.4l6.8-10.9c0.7-1.1,0.3-2.5-0.7-3.2c-1.1-0.7-2.5-0.4-3.2,0.7l-5.6,9l-5.6-9
	c-0.7-1.1-2.1-1.4-3.2-0.7c-1.1,0.7-1.4,2.1-0.7,3.2l6.8,10.9c-15.4,24.4-32.1,44.3-48.2,60.4c-1.9-14.3-14.1-25.3-28.8-25.3
	c-1.9,0-3.8,0.3-5.7,0.6c-1.4-12.8-12.3-22.7-25.4-22.7c-1.7,0-3.4,0.2-5,0.6c-3.5-13.1-15.3-22.4-29.1-22.4
	c-7.6,0-14.8,2.8-20.4,7.9c-6.2,5.7-9.8,13.8-9.8,22.2C111.9,127.7,113,128.8,114.4,128.8z"/>
</svg>
