<svg id="Layer_1" data-name="Layer 1" xmlns="http://www.w3.org/2000/svg" viewBox="0 0 500 500"><defs><style>.cls-1{fill:#0071bc;}.cls-2{fill:#f95f96;}</style></defs><path class="cls-1" d="M118.7,305.4c-1.1-3.6-2.8-8.6-4.9-14.9l-7.9-23.7c-3.1-9.5-6.7-21.2-10.8-35l5.1-1.4a34.1,34.1,0,0,0,4.2-1.4,10.4,10.4,0,0,0,2.8-1.8,2.8,2.8,0,0,0,.7-2.6,2.8,2.8,0,0,0-1.7-2.2,5.7,5.7,0,0,0-3.5-.4l-3.6.9c-2.2.6-4.9,1.3-8,2.3l-10,3.1L71,231.6l-8.1,2.9-3.8,1.6a3.8,3.8,0,0,0-1.7,1.9,3.1,3.1,0,0,0,1.5,3.6,4.4,4.4,0,0,0,2.6.3,18.2,18.2,0,0,0,3.5-1l4.7-1.7c6,13.6,10.8,25.3,14.3,34.9s6.5,17.6,8.8,23.9,4.1,11.3,5.5,14.7,2.8,5.9,4.3,7.3a6.1,6.1,0,0,0,5.3,1.6,59,59,0,0,0,8.4-2.2,10,10,0,0,0,3.6-1.8q1.2-1.1.9-3.9A43.1,43.1,0,0,0,118.7,305.4Z"/><path class="cls-1" d="M181.1,284.1a3.6,3.6,0,0,0-2.7-.2,4.1,4.1,0,0,0-2.5,1.9,6.7,6.7,0,0,1-.6,1.2,6.9,6.9,0,0,0-.5,1.3,15.6,15.6,0,0,1-2.6,3.9,16.1,16.1,0,0,1-3.7,3.2,15.1,15.1,0,0,1-4.5,2,8.7,8.7,0,0,1-4.8-.2,13.1,13.1,0,0,1-7.6-5.1,34.1,34.1,0,0,1-4.1-8.8l18.4-3.7a55.3,55.3,0,0,0,10.3-2.8c2.3-1,3.8-2.3,4.3-3.9a13.8,13.8,0,0,0,.3-6.6,32.7,32.7,0,0,0-4.7-12.5,36.9,36.9,0,0,0-8.5-9.5,33.9,33.9,0,0,0-11.2-5.7,29.3,29.3,0,0,0-12.1-.8,24.5,24.5,0,0,0-11.2,4.7,26.8,26.8,0,0,0-8.3,10.7,38,38,0,0,0-3.1,11.9,46.1,46.1,0,0,0,.8,12.3,51.7,51.7,0,0,0,3.8,11.7,44.2,44.2,0,0,0,6.2,9.8,34,34,0,0,0,8,6.8,21.3,21.3,0,0,0,9.4,2.8,44.9,44.9,0,0,0,10.3-.9,39.6,39.6,0,0,0,9.6-3.6,31.5,31.5,0,0,0,8-6.1,23.6,23.6,0,0,0,5.2-8.8,3.7,3.7,0,0,0,0-3.1A4.4,4.4,0,0,0,181.1,284.1Zm-35.2-8.9a54.9,54.9,0,0,1-1.5-12.9,26,26,0,0,1,3.1-12.5,6.9,6.9,0,0,1,3-3.1,5.5,5.5,0,0,1,4.3.3,30.4,30.4,0,0,1,12.5,8.7,23.5,23.5,0,0,1,5.4,13.6l-1.2.7-1.3.4-14.7,3.1-6.8,1.5-2.1.4Z"/><path class="cls-1" d="M223.4,259l-5.5-4.3-5.7-4.2c-1.2-.9-2.3-1.7-3.3-2.6a8.3,8.3,0,0,1-2.2-3.3c-1-2.6.1-4,3-4.4a10.5,10.5,0,0,1,5.1.5,12,12,0,0,1,4.1,2.8,9.5,9.5,0,0,0,2,2,8.7,8.7,0,0,0,2.4,1.5,3.2,3.2,0,0,0,3.3-.1,3.1,3.1,0,0,0,1.7-2.7,9.5,9.5,0,0,0-.4-2.8,19.6,19.6,0,0,0-5-6,20.2,20.2,0,0,0-7.9-3.2,23.1,23.1,0,0,0-11.5,1.1,29.5,29.5,0,0,0-9.2,6.1,15.6,15.6,0,0,0-4.4,6.8,16.3,16.3,0,0,0-.1,7.6,19.1,19.1,0,0,0,4,8.5,34.3,34.3,0,0,0,7.2,6.4l6.9,4.2,6.9,4.3,3.4,2.5a29.7,29.7,0,0,1,3.3,2.7,6.5,6.5,0,0,1,2,2.6,5.9,5.9,0,0,1,.6,3.2,4.2,4.2,0,0,1-3.5,4.3,11.9,11.9,0,0,1-5.6.3,19.6,19.6,0,0,1-5.1-2.4l-1-.8a3.4,3.4,0,0,0-1.1-.7,3.8,3.8,0,0,0-4.1.4,2.9,2.9,0,0,0-1.2,3.8,6.4,6.4,0,0,0,1.8,2.5,26.6,26.6,0,0,0,6.7,3.9,15,15,0,0,0,7.6.9,4.7,4.7,0,0,1,1.7-.1,3.9,3.9,0,0,0,1.8-.4l3.6-1.2A10.4,10.4,0,0,0,229,297a17.3,17.3,0,0,0,6.3-10.4,23.9,23.9,0,0,0-2.6-16.8A38.4,38.4,0,0,0,223.4,259Z"/><path class="cls-1" d="M275.2,230.4a7.8,7.8,0,0,0-2.2-.2l-2.2-.2h-1.7l-2.3-.2c0-1.6.1-2.3.1-3.9s.3-5.7.4-8.4.3-5.6.4-8.3a18.4,18.4,0,0,0-.3-4.1,4.1,4.1,0,0,0-1.3-2.7,6.5,6.5,0,0,0-3.4-1,28.2,28.2,0,0,0-4.1-.2h-3.8a41.4,41.4,0,0,0-5.2.1,6.1,6.1,0,0,0-2.9,1,3.6,3.6,0,0,0-1.4,2.3,22.2,22.2,0,0,0-.3,4.1c0,3,0,5.9.1,8.8s.1,5.7.1,8.5v4.1h-5.9c-2.4.3-3.8,1.3-4,3.1s1.2,3.1,4,3.6H244l1.6.2c0,.3,0,1.4.1,3.4s.1,4.5.2,7.5.2,6.4.3,10.2.3,7.6.4,11.5.2,7.6.3,11.2.2,6.9.3,9.5a27.4,27.4,0,0,0,.4,5c.4,2.8,2.1,4.2,4.8,4.5s2.8.3,4.2.3l4.1-.3c3.5-.2,5.4-1.9,5.6-5.5,0-.4,0-2.1.1-5s0-6.4.1-10.5.1-8.5.1-13.2,0-9,.1-13,.1-7.4.1-10.2v-4.7l1.7-.2H270l4.7.3c3.4.1,5.4-1.1,5.7-3.3S278.7,230.8,275.2,230.4Z"/><path class="cls-1" d="M334.4,245.6a33.9,33.9,0,0,0-8.7-9,28.9,28.9,0,0,0-11.2-4.7,25,25,0,0,0-12.1.7,27.3,27.3,0,0,0-11.3,7.5,34.7,34.7,0,0,0-6.7,10.2,41.3,41.3,0,0,0-3.3,11.9,50.6,50.6,0,0,0-.2,12.3,43.7,43.7,0,0,0,2.6,11.2,32.5,32.5,0,0,0,5.3,9.1,19.7,19.7,0,0,0,8,5.7,41.1,41.1,0,0,0,9.9,2.5,35.5,35.5,0,0,0,10.3-.3,29.4,29.4,0,0,0,9.5-3.1,26,26,0,0,0,7.9-6.6,3.9,3.9,0,0,0,.9-3,5.5,5.5,0,0,0-1.2-2.4,3.8,3.8,0,0,0-2.4-1.1,4.9,4.9,0,0,0-3.1,1,4.1,4.1,0,0,1-.9,1l-.9,1.1a15.6,15.6,0,0,1-3.7,2.8,20,20,0,0,1-4.6,1.8,13.4,13.4,0,0,1-4.9.4,8.8,8.8,0,0,1-4.5-1.8,13,13,0,0,1-5.4-7.2,32.6,32.6,0,0,1-1-9.6l18.5,2.4a56.8,56.8,0,0,0,10.7.7c2.5-.2,4.3-.9,5.4-2.2a14.6,14.6,0,0,0,2.3-6.2,31.3,31.3,0,0,0-.3-13.3A36.4,36.4,0,0,0,334.4,245.6ZM331,270.9l-1.4.3h-1.3c-6.6-1-11.6-1.6-14.9-2l-6.9-.7-2.1-.4-.6-.4a57.1,57.1,0,0,1,2.8-12.6,28,28,0,0,1,7-10.9,6.5,6.5,0,0,1,3.8-1.9c1.2-.2,2.6.4,4,1.7a29.5,29.5,0,0,1,8.9,12.3A23.4,23.4,0,0,1,331,270.9Z"/><path class="cls-1" d="M435.6,237.2c-.6-1.4-2.5-2.7-5.5-3.8l-9.5-3.4a11.2,11.2,0,0,0-5.2-.9,3.3,3.3,0,0,0-2.6,2.1A53.3,53.3,0,0,0,411,237c-.7,2.7-1.6,6.1-2.8,10.3a131.8,131.8,0,0,1-5.6,15.2l-1.1-1.5-.9-1.1c-4.1-4.8-8.7-8-13.7-9.5a25.6,25.6,0,0,0-14.5-.3,30.5,30.5,0,0,0-12.7,7.1,33.8,33.8,0,0,0-8.6,12.4,40.9,40.9,0,0,0-2.8,15.4,37,37,0,0,0,4.4,16.5c2.3,4.5,4.8,8,7.7,10.1a26.7,26.7,0,0,0,8.9,4.5,32.5,32.5,0,0,0,8.5,1.1h6.8a21.3,21.3,0,0,0,.4,3.2,3.5,3.5,0,0,0,1.6,2.1,22,22,0,0,0,3.9,1.7l7.6,2.3c2,.6,3.6.6,4.6,0s1.9-1.7,2.6-3.7l3.7-9.6c1.8-4.4,3.7-9.5,5.9-15.2l6.6-17.9c2.3-6.3,4.5-12.1,6.4-17.4l5.1-13.8c1.3-3.9,2.2-6.2,2.5-7.1A5.9,5.9,0,0,0,435.6,237.2Zm-38.2,47.5-1.8,5.7c-.5,1.7-.9,3.1-1.4,4.4s-.8,2.4-1.1,3.5l-1.2,3.1a11.5,11.5,0,0,1-5.6,6.1,19.8,19.8,0,0,1-9,2,23.3,23.3,0,0,1-9.5-2.3,16.9,16.9,0,0,1-7.3-7.2,32.4,32.4,0,0,1-3.8-11.2,34.7,34.7,0,0,1,.2-10.7,27.6,27.6,0,0,1,3.7-9.4,25.8,25.8,0,0,1,6.4-7.1,22.8,22.8,0,0,1,8.2-3.8,16.6,16.6,0,0,1,9.1.4,19.7,19.7,0,0,1,7.9,4.5,21.4,21.4,0,0,1,4.8,6.6,18.7,18.7,0,0,1,1.6,7.7A24.8,24.8,0,0,1,397.4,284.7Z"/><path class="cls-1" d="M353.7,235.6a6,6,0,1,0,8.3-8.7c-1.9-1.7-6.5-4-9.6-3.9a51.1,51.1,0,0,0-3.9-4.2,124,124,0,0,0,22.1.5c2.5,1.8,8,2.2,10.6,1.6a6,6,0,0,0,4.4-7.3,5.9,5.9,0,0,0-7.2-4.4c-2.6.6-7.3,3.5-8.7,6.2a117.4,117.4,0,0,1-18.8-.2l2.3-1.3c3,.5,7.9-1,10-2.4a6.1,6.1,0,0,0,1.5-8.4,5.9,5.9,0,0,0-8.3-1.5c-2.3,1.6-5.9,6.3-6,9.4a56.5,56.5,0,0,1-6.6,3.4,159.1,159.1,0,0,1-23.6-5.4l3.7-1.3c3,1,8,.3,10.3-.8a6,6,0,1,0-5.2-10.8c-2.5,1.1-6.7,5.2-7.3,8.3a44.9,44.9,0,0,1-8,2.4,106.5,106.5,0,0,1-15-6.4l-1.9,3.4a126,126,0,0,0,15.5,6.6,57.3,57.3,0,0,1,6,8c-.9,3,1,8.6,2.7,10.8a6,6,0,0,0,8.4,1.2,6.1,6.1,0,0,0,1.2-8.5c-1.6-2-5.8-4.9-8.9-5.4-.7-1.2-1.6-2.5-2.5-3.8,3,1,6.3,1.9,9.8,2.8s8,1.7,12.4,2.4l.4.3a48.9,48.9,0,0,1,7.5,7.2C348.9,228.5,351.7,233.7,353.7,235.6Z"/><path class="cls-1" d="M140.3,220.9c2.5.6,8,.2,10.6-1.6a124,124,0,0,0,22.1-.5,38.1,38.1,0,0,0-3.9,4.2c-3.1-.1-7.8,2.2-9.6,3.9a6,6,0,1,0,8.3,8.7c2-1.9,4.8-7.1,4.3-10.2a54,54,0,0,1,7.6-7.2l.4-.3c4.3-.7,8.5-1.5,12.4-2.4s6.8-1.8,9.8-2.8c-.9,1.3-1.8,2.6-2.5,3.8-3.1.5-7.3,3.4-8.9,5.4a6.1,6.1,0,0,0,1.1,8.5,6.1,6.1,0,0,0,8.5-1.2c1.7-2.2,3.6-7.8,2.7-10.8a50.4,50.4,0,0,1,6-8,112.3,112.3,0,0,0,15.4-6.6l-1.8-3.4a121.8,121.8,0,0,1-15,6.4,44.9,44.9,0,0,1-8-2.4c-.6-3.1-4.9-7.2-7.4-8.3a5.9,5.9,0,0,0-8,2.8,6,6,0,0,0,2.9,8c2.2,1.1,7.3,1.8,10.2.8l3.7,1.3a154.8,154.8,0,0,1-23.5,5.4A68.6,68.6,0,0,1,171,211c0-3.1-3.6-7.8-5.9-9.4a6.1,6.1,0,0,0-8.4,1.5,6.2,6.2,0,0,0,1.6,8.4c2.1,1.4,6.9,2.9,10,2.4l2.3,1.3a117.4,117.4,0,0,1-18.8.2c-1.5-2.7-6.2-5.6-8.7-6.2a6.1,6.1,0,0,0-7.3,4.4A6.2,6.2,0,0,0,140.3,220.9Z"/><path class="cls-1" d="M97.3,75.5c.1,3.5.1,7,.2,10.4s.1,6.4.1,9,.1,4.8.1,6.5v2.5a3.9,3.9,0,0,0,.4,1.4,1.3,1.3,0,0,0,1,.7l2.3.3,4.1.2,2.9.2a2.1,2.1,0,0,0,1.7-.7,4.6,4.6,0,0,0,.8-2.3c.1-1.2.2-2.9.2-5.2s0-5.3-.2-8.9-.2-8.3-.3-13.8c0-3.9,0-7.6-.1-11.1V60.2c-.1-1.6-.1-3.1-.1-4.5s-.1-2.8-.1-4V48.5a3.8,3.8,0,0,0-.6-2.4,4.1,4.1,0,0,0-2.2-1.1l-.8-.2h-5.5l-2.5.2a2.3,2.3,0,0,0-1.2.5,2.3,2.3,0,0,0-.4,1.1v9.3c0,2.7.1,5.7.1,9.1S97.3,71.9,97.3,75.5Z"/><path class="cls-1" d="M138.2,66.1c0,3.7,0,7.6.1,11.6s0,7.6.1,11.1V98c.1,2.7.1,4.6.2,5.7a3.6,3.6,0,0,0,.6,2.5,4.3,4.3,0,0,0,2.4.5h7.6a3.7,3.7,0,0,0,3.3-1.4c.6-.9.8-2.3.8-4.4s.1-5.1.3-9.1h20.7v1.7c0,.9,0,2,.1,3.2s0,2.4.1,3.5a23.6,23.6,0,0,0,.1,2.9,2.5,2.5,0,0,0,.7,2.1,2.2,2.2,0,0,0,3.2,0,2.6,2.6,0,0,0,.8-2.1v-2.5c-.1-.5-.1-1.1-.2-1.7V97.2c-.2-8.3-.2-15.3-.3-21.1s-.1-10.5-.2-14.3-.1-6.8-.2-9a37.3,37.3,0,0,0-.4-4.7c-.2-1.1-.4-1.7-.8-1.9a2.5,2.5,0,0,0-1.3-.3l-1.1.3a3.1,3.1,0,0,0-.6,1.4,31.3,31.3,0,0,0-.1,3.5V58c0,3,.1,6.9.1,11.5V86.6H153.3c0-.1-.1-.9-.1-2.6s-.2-3.8-.2-6.4-.2-5.3-.3-8.4-.2-6-.3-8.8-.1-5.4-.2-7.7-.2-3.8-.2-4.8a4.4,4.4,0,0,0-.2-1.8c-.1-.4-.5-.7-1.3-.9a13.8,13.8,0,0,0-3.3-.2h-6.5a3.8,3.8,0,0,0-2.2.6,3.5,3.5,0,0,0-.5,2.2c0,2,.1,4.6.1,7.8S138.1,62.3,138.2,66.1Z"/><path class="cls-1" d="M187.4,97.3a15.5,15.5,0,0,0,3.2,4.4,18.4,18.4,0,0,0,4.3,3,14.7,14.7,0,0,0,10.7.6,18.7,18.7,0,0,0,5.2-2.4l1.1-.6,1.3-.8c0,.4.1.8.1,1s.1.6.1.9a3.8,3.8,0,0,0,.8,2.2,2.8,2.8,0,0,0,2,.7h6.2a2.6,2.6,0,0,0,1.5-.6,3.7,3.7,0,0,0,.5-1.5,5.7,5.7,0,0,0,.1-1.3V97.6c0-1.4,0-2.8-.1-4.2V69.1c0-.9-.1-1.8-.1-2.6s-.1-1.8-.2-2.7a5.7,5.7,0,0,0-.4-1.4,1.5,1.5,0,0,0-1.2-.7c-1.4-.2-2.8-.2-4.2-.3h-4.1a1.4,1.4,0,0,0-1.3.5,5.8,5.8,0,0,0-.5,1.4c-.1.4-.1.8-.2,1.2a6.2,6.2,0,0,1-.1,1.3l-1.5-.8-1.4-.6a18.4,18.4,0,0,0-5.6-1.4,13.6,13.6,0,0,0-5.7.6,13.9,13.9,0,0,0-5.2,2.8,14.1,14.1,0,0,0-4,5.4,33.8,33.8,0,0,0-3.1,20.1A16.9,16.9,0,0,0,187.4,97.3Zm2.9-15.1a35.8,35.8,0,0,1,2-7.1,11.6,11.6,0,0,1,3.7-4.7,11.7,11.7,0,0,1,5.1-2.3,12.5,12.5,0,0,1,5.4.3,11.7,11.7,0,0,1,4.9,3.1,4.5,4.5,0,0,1,1.2,3.1V84.7c.1,1.3.1,2.7.2,4.2s.1,3,.2,4.5a3.7,3.7,0,0,1-.1,1.1,2,2,0,0,1-.5.9,23,23,0,0,1-4.4,3.3,14.6,14.6,0,0,1-5,2,9.7,9.7,0,0,1-4.8-.3,10.3,10.3,0,0,1-4-2.1,11.3,11.3,0,0,1-2.9-3.8,13.1,13.1,0,0,1-1.2-4.9A36.4,36.4,0,0,1,190.3,82.2Z"/><path class="cls-1" d="M235.7,100.1a16.1,16.1,0,0,0,6.1,5,16.3,16.3,0,0,0,5.9,1.2,14.2,14.2,0,0,0,5.2-.9l4-1.3.8,1.9a2.5,2.5,0,0,0,1.3.9l2.6.2,4.9-.2a3.7,3.7,0,0,0,2.6-1,3.9,3.9,0,0,0,.7-2.8c0-1.3,0-3.4.1-6.5V74.3c-.1-4.2-.1-8.1-.1-11.8s-.1-6.7-.1-9.2V48.5a4.6,4.6,0,0,0-.8-2.7c-.6-.7-1.6-1-3.3-1h-5a5.4,5.4,0,0,0-2.6.5,2,2,0,0,0-.9,1.8,24.6,24.6,0,0,0,0,3.9c.1,1.7.2,3.9.3,6.7a95.8,95.8,0,0,1-.3,10.2l-.9-.7-.6-.5a14.5,14.5,0,0,0-8.5-3.2,12.7,12.7,0,0,0-7.5,2.2,18.3,18.3,0,0,0-5.8,6.2,24.3,24.3,0,0,0-3.1,8.8,28.2,28.2,0,0,0,.3,10A23.5,23.5,0,0,0,235.7,100.1Zm.1-21.3a16.3,16.3,0,0,1,2.5-5.3,13.4,13.4,0,0,1,3.8-3.7,8.2,8.2,0,0,1,4.8-1.2,9.6,9.6,0,0,1,4.8,1.3,11.9,11.9,0,0,1,3.6,3.1,14.4,14.4,0,0,1,2.1,4.3,15.9,15.9,0,0,1,.7,4.8c0,1.5,0,2.8.1,3.8v5.2a14.8,14.8,0,0,1-.1,2.1,7.4,7.4,0,0,1-2,4.8,11.3,11.3,0,0,1-4.8,2.9,13,13,0,0,1-5.9.2,8.9,8.9,0,0,1-5.3-3.1,19,19,0,0,1-3.8-6.3,22.7,22.7,0,0,1-1.3-6.6A18.8,18.8,0,0,1,235.8,78.8Z"/><path class="cls-1" d="M297,102.2a9.2,9.2,0,0,0,.4,2.9c.2.9.8,1.3,1.9,1.2a1.7,1.7,0,0,0,1.3-.4,3,3,0,0,0,.6-1.1,4.9,4.9,0,0,0,.1-1.2v-1.1c.1-5.1.2-9.6.3-13.3s.1-7.1.2-9.9.3-5.2.5-7.2a30.3,30.3,0,0,1,.8-5.5,32.3,32.3,0,0,1,1.5-4.7,35.7,35.7,0,0,1,2.4-4.8l.9-1.5a6.3,6.3,0,0,1,1-1.2,1.6,1.6,0,0,1,1-.4c.3,0,.6.3.9.8a20.4,20.4,0,0,1,1.4,5.5,83.4,83.4,0,0,1,.9,8.4c.2,3.2.4,6.5.6,10s.3,6.9.4,10.1.2,6.2.4,8.8a59.2,59.2,0,0,0,.5,6.1,3.2,3.2,0,0,0,3.4,2.8l3.5.2a11.4,11.4,0,0,0,2.8-.3,3.2,3.2,0,0,0,2-1,4.9,4.9,0,0,0,.8-2.5,29.3,29.3,0,0,0,0-4.3V91.4c0-2.8,0-5.8.2-9s.4-6.4.8-9.6a63.7,63.7,0,0,1,1.8-9.1,28.9,28.9,0,0,1,3.4-7.5c1.2-1.9,2.3-2.4,3.2-1.4s1.5,2.9,2,5.7.8,6.3,1.1,10.3.5,8.1.6,12.3.2,8,.2,11.6.1,6.4.2,8.4a3.9,3.9,0,0,0,.8,2.5,4.1,4.1,0,0,0,2.5.9l4.4.3a11.9,11.9,0,0,0,2.8-.1,2.1,2.1,0,0,0,1.6-.6,2.7,2.7,0,0,0,.9-1.2,2.6,2.6,0,0,0,.3-1,3.9,3.9,0,0,0,.2-1.3v-2.5c0-1,0-2.5-.1-4.3s0-4.3-.1-7.2,0-6.4-.1-10.7q0-3.3-.3-6.9a53.5,53.5,0,0,0-.8-7,52,52,0,0,0-1.7-6.8,28.6,28.6,0,0,0-2.9-6.1,15.8,15.8,0,0,0-2.2-2.9,9,9,0,0,0-2.7-2.2,7.1,7.1,0,0,0-3.1-1,5.8,5.8,0,0,0-3.4.5,11.3,11.3,0,0,0-4.3,2.7,12.2,12.2,0,0,0-2.7,3.6,25.6,25.6,0,0,0-2.1,4.4,43.8,43.8,0,0,1-2.3,5l-.3-1.7-.3-1.4a24.6,24.6,0,0,0-1.6-4.8,20.8,20.8,0,0,0-2.7-4.1,10.2,10.2,0,0,0-3.8-2.4,6.9,6.9,0,0,0-4.5,0,14.8,14.8,0,0,0-7.4,4.7,25.2,25.2,0,0,0-4.7,8,51.8,51.8,0,0,0-2.5,10.3,105.4,105.4,0,0,0-.9,11.3c-.2,3.8-.2,7.6-.1,11.2S297,99.2,297,102.2Z"/><path class="cls-1" d="M361.2,87.8a66.2,66.2,0,0,0,1.4,7,32.8,32.8,0,0,0,1.7,4.6,12.3,12.3,0,0,0,1.9,3.1,8.5,8.5,0,0,0,6.2,3.4,14.1,14.1,0,0,0,4.5-.2,10.9,10.9,0,0,0,5.1-2.3,20,20,0,0,0,3.5-4.9q-.3,4.5-.6,8.4a14.2,14.2,0,0,1-2,6.3,5.4,5.4,0,0,1-4.8,2.2q-3.2,0-9-3.3a2.7,2.7,0,0,0-2.3-.2,2.3,2.3,0,0,0-1.2,1.5,4.1,4.1,0,0,0,0,2.2,2.6,2.6,0,0,0,1.6,1.8,47.7,47.7,0,0,0,6.6,2.6,19.7,19.7,0,0,0,6.7.9,13.5,13.5,0,0,0,11.4-6.7,30.8,30.8,0,0,0,3.5-9.4,65.9,65.9,0,0,0,1.3-14.5c0-3.3,0-6.6.1-9.8s0-6.1.1-8.6.1-5.3.2-8.4a2.5,2.5,0,0,0-1.4-1.5,7.4,7.4,0,0,0-2.1-.7h-3.7l-2,.2-1.5.4q-1.2.6-1.5,3a49.1,49.1,0,0,0-.3,5.9v7.7c0,2.8,0,5.6-.2,8.3a15.7,15.7,0,0,1-.9,4.3,19.1,19.1,0,0,1-1.8,3.8,12.3,12.3,0,0,1-2.2,2.7,3.9,3.9,0,0,1-2.2,1,2.4,2.4,0,0,1-2-1.2,9.3,9.3,0,0,1-1.3-3.9,54.1,54.1,0,0,1-.7-6.8c-.1-2.2-.1-4.3-.1-6.5s0-4.3.1-6.6V66.7a22.7,22.7,0,0,0-.4-3.5,2.4,2.4,0,0,0-1-1.5,2.3,2.3,0,0,0-1.7-.3l-2.5.2a27.7,27.7,0,0,0-3.8.4,5.3,5.3,0,0,0-2.1.6,1.9,1.9,0,0,0-1,1.2,4.8,4.8,0,0,0-.3,1.8c-.2,4.7-.2,8.8,0,12.5S360.9,85,361.2,87.8Z"/><path class="cls-2" d="M176.8,367.8c.1-1,.1-2.4.1-4.3s0-4.3-.1-7.3-.2-6.8-.3-11.3,0-6.2-.1-9.1v-3.7c0-1.3-.1-2.6-.1-3.7v-5.9a3.4,3.4,0,0,0-.5-2,3,3,0,0,0-1.8-.9h-7.3c-.4.1-.8.2-.9.4a1.2,1.2,0,0,0-.3.9V336c.1,2.8.1,5.7.1,8.6s.1,5.8.1,8.6.1,5.2.1,7.4.1,3.9.1,5.3a15.7,15.7,0,0,0,.1,2,2.9,2.9,0,0,0,.2,1.2,1.5,1.5,0,0,0,.9.6l1.9.2,3.3.2h2.4a1.7,1.7,0,0,0,1.4-.5A5,5,0,0,0,176.8,367.8Z"/><path class="cls-2" d="M183.1,334.1H182a1.8,1.8,0,0,0-1.8,1.6c-.1,1,.4,1.7,1.7,1.9h2.8v1.8c0,1,.1,2.3.1,3.8s.1,3.4.2,5.3.1,4,.1,6,.1,3.9.2,5.8.1,3.5.1,4.9a21.1,21.1,0,0,0,.2,2.6,2.3,2.3,0,0,0,2.5,2.3h2.1l2.1-.2a2.6,2.6,0,0,0,2.7-2.9c0-.2,0-1.1-.1-2.6s-.1-3.3-.1-5.5-.1-4.4-.2-6.8-.2-4.7-.2-6.7-.1-3.9-.2-5.3v-2.5h3.5c1.5,0,2.3-.7,2.4-1.9s-.8-1.8-2.4-1.9a2.7,2.7,0,0,0-.9,0H194v-6.4c.1-1.5.1-2.9.1-4.3a14.9,14.9,0,0,0-.2-2.1,2.3,2.3,0,0,0-.6-1.4,2.6,2.6,0,0,0-1.4-.5h-3.3l-2.2.2a1.7,1.7,0,0,0-1.2.5,1.7,1.7,0,0,0-.6,1.1,14.1,14.1,0,0,0-.1,2.2v11Z"/><path class="cls-2" d="M206.1,335.1a2.2,2.2,0,0,0,2.3-1.4l.3-.9c.1-.3.1-.6.2-.9s.1-1.1.1-2a25.3,25.3,0,0,0,.1-2.8c0-.9.1-1.8.1-2.7v-1.7l-.3-1.5a3.5,3.5,0,0,0-.8-1.3,2.9,2.9,0,0,0-2.3-1,2.5,2.5,0,0,0-2,1.3,10.4,10.4,0,0,0-.4,1c0,.4-.1.7-.1,1.1v8.5a13,13,0,0,0,.3,2.6C203.8,334.4,204.6,335,206.1,335.1Z"/><path class="cls-2" d="M227.6,370.1l1.9-.5a5.6,5.6,0,0,0,1.7-.9,8.6,8.6,0,0,0,3.3-5.2,14,14,0,0,0-1-8.8,22.1,22.1,0,0,0-4.2-5.8,27.3,27.3,0,0,0-2.5-2.3l-2.4-2.4a9.6,9.6,0,0,1-1.4-1.5,5.6,5.6,0,0,1-.9-1.7c-.4-1.4.1-2.1,1.5-2.2a3.5,3.5,0,0,1,2.3.4,6.4,6.4,0,0,1,1.7,1.6,3.1,3.1,0,0,0,.9,1.1l1,.9a1.9,1.9,0,0,0,1.5,0,1.6,1.6,0,0,0,.8-1.4,3.2,3.2,0,0,0-.1-1.4,9.3,9.3,0,0,0-2.1-3.3,8,8,0,0,0-3.4-1.8,8,8,0,0,0-5.1.1,10.4,10.4,0,0,0-4.3,2.7,7.1,7.1,0,0,0-2.3,3.2,10.2,10.2,0,0,0-.5,3.9,10.8,10.8,0,0,0,1.4,4.6,13.6,13.6,0,0,0,3.1,3.7l3.1,2.5,3.1,2.5,1.6,1.4,1.5,1.5a3.4,3.4,0,0,1,.9,1.4,4.7,4.7,0,0,1,.3,1.7,2.2,2.2,0,0,1-1.9,2.1,4.4,4.4,0,0,1-2.8-.1,4.9,4.9,0,0,1-2.4-1.4l-.6-.5a.9.9,0,0,0-.5-.3,1.5,1.5,0,0,0-2,0,1.6,1.6,0,0,0-.8,1.9,6.4,6.4,0,0,0,.8,1.4,11.4,11.4,0,0,0,3.2,2.2,6.9,6.9,0,0,0,3.8.8h1.8Z"/><path class="cls-2" d="M88.5,182.8a26.4,26.4,0,0,0-.9,9.4,28.3,28.3,0,0,0,2.3,9.2,24.1,24.1,0,0,0,5.2,7.5,20.3,20.3,0,0,0,8.3,4.5,18.8,18.8,0,0,0,8.8.2,22.4,22.4,0,0,0,7.8-3.3,30.2,30.2,0,0,0,6.5-5.9,34.2,34.2,0,0,0,4.7-7.4,42.1,42.1,0,0,0,2.7-7.5c.7-2.6,1.2-5.2,1.7-7.8a29.2,29.2,0,0,0,14.7.2,47.3,47.3,0,0,0,14.2-5.6,51.7,51.7,0,0,0,11.7-9.6,31.4,31.4,0,0,0,7.1-11.9,20.4,20.4,0,0,0,.7-7.3,23.6,23.6,0,0,0-1.9-6.9,24.6,24.6,0,0,0-4.3-6,24.9,24.9,0,0,0-6.4-4.6,31.3,31.3,0,0,0-11.1-3.1,64.4,64.4,0,0,0-13.1.4,69.9,69.9,0,0,0-13.8,3.5,68.2,68.2,0,0,0-12.8,6,54.5,54.5,0,0,0-10.2,7.7,27.1,27.1,0,0,0-6.4,8.8,2.7,2.7,0,0,0-.1,2,5.7,5.7,0,0,0,1.3,2.1,5.2,5.2,0,0,0,1.9,1.4,2.3,2.3,0,0,0,2.2-.4,54.8,54.8,0,0,1,9.1-8.6,74.2,74.2,0,0,1,27.9-13.3,40.9,40.9,0,0,1,14.6-.9,24.1,24.1,0,0,1,7.5,1.9,13.1,13.1,0,0,1,4.7,3.3,8.5,8.5,0,0,1,2.1,4.1,10.3,10.3,0,0,1-.2,4.6,19.4,19.4,0,0,1-5.5,9.4,39.5,39.5,0,0,1-9.6,7,45.9,45.9,0,0,1-11.4,4.2,34.1,34.1,0,0,1-11.2,1.1c.3-1.6.8-3.3,1.3-5.1s1.3-3.7,2-5.5a45.6,45.6,0,0,1,2.4-5.5,35.7,35.7,0,0,1,2.6-4.8,3.6,3.6,0,0,0,.4-3,6.4,6.4,0,0,0-2-2.4,4.7,4.7,0,0,0-3.1-.8,4.1,4.1,0,0,0-3.1,1.7,28.5,28.5,0,0,0-4.7,8,50.9,50.9,0,0,0-2.6,8.4,66,66,0,0,0-1.5,8.7c-.4,2.9-.8,5.8-1.3,8.6a57.3,57.3,0,0,1-2.1,8.4,36.1,36.1,0,0,1-3.7,8,25.1,25.1,0,0,1-6.5,7.1,15.4,15.4,0,0,1-7,2.8,13.1,13.1,0,0,1-6.5-1,11.5,11.5,0,0,1-5-4.3,14.2,14.2,0,0,1-2.3-7.1,20.9,20.9,0,0,1,1.5-9.4,25.7,25.7,0,0,1,4.1-6.8,23.7,23.7,0,0,1,6.5-5.4,29,29,0,0,1,3.9-1.7,5.2,5.2,0,0,1,2.5-.4c.5.2.7.6.6,1.4a10.6,10.6,0,0,1-1.7,3.5c-1.3,2.1-2.9,4.2-4.3,6.2s-3,3.9-4.6,5.8a2.3,2.3,0,0,0-.5,1.7,3.9,3.9,0,0,0,.6,1.9,3,3,0,0,0,1.2,1.3c.4.3,1,.1,1.5-.4a57.8,57.8,0,0,0,7-7,66.3,66.3,0,0,0,5.8-8.1,15.9,15.9,0,0,0,1.6-4,10.9,10.9,0,0,0,.2-4,8,8,0,0,0-1.4-3.6,6.9,6.9,0,0,0-3.7-2.3,9.1,9.1,0,0,0-4.4-.5,14.6,14.6,0,0,0-4.5,1,19.5,19.5,0,0,0-4.1,2,32.7,32.7,0,0,0-3.6,2.5,26.3,26.3,0,0,0-6.5,7.2A32.2,32.2,0,0,0,88.5,182.8Z"/><path class="cls-2" d="M264.4,136.5H263a9.8,9.8,0,0,0-3.4.7,9.2,9.2,0,0,0-3,1.6,3.8,3.8,0,0,0-.9,1.5,5.2,5.2,0,0,0-.3,1.8,4.8,4.8,0,0,0,.5,1.7,3,3,0,0,0,1.4,1.1,4.3,4.3,0,0,0,2.2.4l2.3-.4a12.8,12.8,0,0,0,2.3-.6,3.3,3.3,0,0,0,1.9-1.3,4.1,4.1,0,0,0,.8-3,3.3,3.3,0,0,0-1.3-2.8Z"/><path class="cls-2" d="M386.9,204.4a42.9,42.9,0,0,0,8.6-2,47.9,47.9,0,0,0,8-3.3,27.9,27.9,0,0,0,5.8-4,2.6,2.6,0,0,0,.6-1.4,4,4,0,0,0-.1-1.9,2.2,2.2,0,0,0-.8-1.3c-.4-.4-1-.3-1.7.1l-4,2-4.7,2.2-5.2,2a38.6,38.6,0,0,1-5.9,1.2,18.1,18.1,0,0,1-5.7,0,9,9,0,0,1-4.2-1.8,6.2,6.2,0,0,1-2.1-3.8,10.3,10.3,0,0,1,1.2-6,8.8,8.8,0,0,0,5.1,3,22.5,22.5,0,0,0,6.9.6,36.4,36.4,0,0,0,7.2-1.3,15.7,15.7,0,0,0,5.5-2.7,8.7,8.7,0,0,0,3-4,6.9,6.9,0,0,0,.2-5.1c-.9-3.4-2.6-5.8-4.8-7.1a13.6,13.6,0,0,0-7.4-1.8,19.1,19.1,0,0,0-7.9,1.9,29.4,29.4,0,0,0-7,4.1,27.8,27.8,0,0,0-4.2,4.2l-1.4,1.9-2.7,1.6-4.5,2.6a39.8,39.8,0,0,1-5.1,2.4,47.5,47.5,0,0,1-5.7,1.8,22.1,22.1,0,0,1-7.7.6,5.7,5.7,0,0,1-3.9-2.1,5.3,5.3,0,0,1-.8-3.8,12.7,12.7,0,0,1,1.5-4.8,22.6,22.6,0,0,1,3.5-4.8,20.4,20.4,0,0,1,4.8-4c3.7-2.3,6.7-3.6,9.1-3.9s3.7,0,4.2.8-.2,2.1-1.9,3.6-4.4,3.1-8.5,4.6a17.2,17.2,0,0,0,3,2.3,6,6,0,0,0,6.3-.1,13.3,13.3,0,0,0,3.8-2.9,11.5,11.5,0,0,0,2.4-3.9,5,5,0,0,0-.4-4,16.3,16.3,0,0,0-6.4-6.4,14.2,14.2,0,0,0-7.3-1.3,18,18,0,0,0-7.2,2.4,31.8,31.8,0,0,0-6.2,4.5,28.7,28.7,0,0,0-3.9,4.5,18.7,18.7,0,0,0-2.2,3.9l-2,2.3c-1.4,1.6-2.9,3.2-4.5,4.7a58.2,58.2,0,0,1-4.8,4.1,6.9,6.9,0,0,1-4.2,1.6q-1.2,0-1.2-.9a6,6,0,0,1,.7-2,40.5,40.5,0,0,1,5.2-7.1q3.1-3.2,6-6.3l2.1-2.1a23.9,23.9,0,0,0,2.2-2.3c.7-.8,1.3-1.7,1.9-2.5a7.1,7.1,0,0,0,.9-2.8c.3-1.9-.2-3.2-1.6-3.8a9.3,9.3,0,0,0-5.4-.3,46.2,46.2,0,0,0-7.3,2.3,67.1,67.1,0,0,0-7.6,3.7,47.9,47.9,0,0,0-6.2,3.9,17.3,17.3,0,0,0-3.3,2.6,49.6,49.6,0,0,1,4.3-5l4.4-4.8a28.4,28.4,0,0,1,2.4-2.6l2.7-2.6a2.5,2.5,0,0,0,.5-2.9,5.4,5.4,0,0,0-2.2-2.8,6.5,6.5,0,0,0-3.8-1,5.5,5.5,0,0,0-4.2,2.4c-2.4,2.7-4.4,5.1-6.2,7.3a70.7,70.7,0,0,0-5,6.5c-.7.9-1.3,1.9-2,2.9l-2,1.7-3.9,3.3a53.3,53.3,0,0,1-4.6,3.2,43.9,43.9,0,0,1-5.3,2.7,19.1,19.1,0,0,1-5.5,1.3,9.3,9.3,0,0,1-4.5-.7,6.1,6.1,0,0,1-2.9-3.2,12.2,12.2,0,0,1-.3-6.2,8.7,8.7,0,0,0,5.6,1.8,20.3,20.3,0,0,0,6.8-1.2,28,28,0,0,0,6.6-3,15.7,15.7,0,0,0,4.7-3.9,9,9,0,0,0,1.9-4.6,6.6,6.6,0,0,0-1-4.9c-1.7-3.2-3.8-5.1-6.3-5.8a13.7,13.7,0,0,0-7.5,0,20.6,20.6,0,0,0-7.2,3.7,30.7,30.7,0,0,0-5.7,5.7,31.4,31.4,0,0,0-3.1,5.1,32.4,32.4,0,0,0-1.3,3.3l-3.1,4.8a37.7,37.7,0,0,1-4.4,5.9c-2.4,2.6-3.9,3.9-4.7,3.9s-.9-.5-.6-1.9a32,32,0,0,1,2.1-5.6c1.1-2.3,2.2-4.7,3.5-7.1s2.4-4.5,3.5-6.4,1.9-3.1,2.3-3.6,1.3-3,.4-4a3.7,3.7,0,0,0-1.7-1.2,10.1,10.1,0,0,0-2.6-.4,8.4,8.4,0,0,0-2.7.4,3.8,3.8,0,0,0-1.9,1.3c-1.5,2.2-3,4.4-4.4,6.7a54.9,54.9,0,0,0-3.6,7.3,34.4,34.4,0,0,0-1.5,5.5,37.8,37.8,0,0,1-2.2,4,22.5,22.5,0,0,1-4.6,5.8q-2.1,1.5-3-.6c-.6-1.3-.5-4.3.5-8.8a75.2,75.2,0,0,1,6.9-20,167.2,167.2,0,0,1,10.6-18.3h.8c4.6,0,9.2.1,13.8.4s9.2.3,13.8.3a1,1,0,0,0,.9-.4l.3-1.1a1.9,1.9,0,0,0-.3-1,.8.8,0,0,0-.8-.5c-4.4-.5-8.8-.8-13.3-.9H253.1l1-1.5,1.3-1.8a21.4,21.4,0,0,0,1.3-1.9,4.4,4.4,0,0,0,.9-1.6,2.3,2.3,0,0,0-.4-2.1,5.1,5.1,0,0,0-2.1-1.7,6.3,6.3,0,0,0-3.1-.4,5.6,5.6,0,0,0-3.4,1.6,29.5,29.5,0,0,0-3.9,4.1,47.7,47.7,0,0,0-3.4,5v.2c-2.9.1-5.7.1-8.5.3a79.3,79.3,0,0,0-8.4.7c-.3,0-.5.2-.7.5a3.1,3.1,0,0,0-.1,1,1.9,1.9,0,0,0,.3,1,.8.8,0,0,0,.8.4h7.2l7.1-.3c-3.5,6.2-6.4,12.1-8.9,17.7a101.3,101.3,0,0,0-5.1,14.6,38.5,38.5,0,0,1-3.7,6.8,31.5,31.5,0,0,1-4.9,5.7c-1.3,1-2.3,1.5-3.1,1.4a2.2,2.2,0,0,1-1.8-1.3,5.4,5.4,0,0,1-.7-2.7,8,8,0,0,1,.3-3.1,56.5,56.5,0,0,1,4.1-9.6q2.6-4.8,5.1-8.7a2.1,2.1,0,0,0,.3-1.9,4.8,4.8,0,0,0-.9-1.9,9.3,9.3,0,0,0-1.8-1.6L216,147a9.3,9.3,0,0,0-3.3-.4,14.1,14.1,0,0,0-3.5.5,20.1,20.1,0,0,0-3.5,1l-3.1,1.2a32.3,32.3,0,0,0-9.1,5.7,36.6,36.6,0,0,0-6.8,8.1,23.8,23.8,0,0,0-3.2,9,13.4,13.4,0,0,0,1.2,8.4,10.2,10.2,0,0,0,4.2,4.7,10.4,10.4,0,0,0,5.7,1.3,13.3,13.3,0,0,0,6.1-2.2,17.9,17.9,0,0,0,5.3-5.6,6.8,6.8,0,0,0,1.5,4.7,5.9,5.9,0,0,0,3.3,2.1,8.2,8.2,0,0,0,4.1-.2,8.7,8.7,0,0,0,3.7-2.2,29.5,29.5,0,0,0,5-6.5,12.8,12.8,0,0,0,3.1,7.8,5.9,5.9,0,0,0,3.3,2.3,7.7,7.7,0,0,0,3.7,0,12.4,12.4,0,0,0,3.4-1.8,22.9,22.9,0,0,0,2.7-2.7c.8-1.1,1.7-2.3,2.6-3.7l.2-.3.3,1.6a18.7,18.7,0,0,0,1.7,3.5,4.6,4.6,0,0,0,3.1,2.2c1.6.2,3.6-.8,5.5-2.4a35.5,35.5,0,0,0,5.2-5.6l3.2-4.5a15,15,0,0,0,1.5,5.1,11.8,11.8,0,0,0,5.1,5.8,13.9,13.9,0,0,0,7,1.3,23.1,23.1,0,0,0,7.8-1.8,55.6,55.6,0,0,0,7.7-3.9,22.9,22.9,0,0,0-.9,2.8,5.5,5.5,0,0,0,3.1,6.7,1.9,1.9,0,0,0,2.3-.3c2.5-2.4,5-4.9,7.7-7.7s5.5-5.4,8.5-7.9a70.9,70.9,0,0,1,9.3-6.5A32.4,32.4,0,0,1,331,163a56.7,56.7,0,0,1-4.8,5,55.5,55.5,0,0,0-4.8,4.9,47.3,47.3,0,0,0-4,5.4,19.9,19.9,0,0,0-2.6,6.2,15.6,15.6,0,0,0-.3,2.5,10.1,10.1,0,0,0,.3,2.5,6.6,6.6,0,0,0,1.2,2.2,3.8,3.8,0,0,0,2.3,1.3,8.2,8.2,0,0,0,3.1-.3,12.7,12.7,0,0,0,3.2-1.3l2.9-1.9,2.5-1.9,4.3-4a12.7,12.7,0,0,0,.6,2.8,11.3,11.3,0,0,0,4.2,6.5,14.4,14.4,0,0,0,6.7,2.5,24.7,24.7,0,0,0,8-.6,48.1,48.1,0,0,0,8.4-2.6,49.7,49.7,0,0,0,6.1-3.1,16.4,16.4,0,0,0,.3,5.4,11.3,11.3,0,0,0,3.7,6.8,13,13,0,0,0,6.5,3A24.3,24.3,0,0,0,386.9,204.4ZM382.5,181l.2-.2a29.5,29.5,0,0,1,4-2,27.8,27.8,0,0,1,5.1-1.7,11.2,11.2,0,0,1,4.8-.1,3.9,3.9,0,0,1,3.2,2.5,5.2,5.2,0,0,1-3.5,2.6,16.6,16.6,0,0,1-5.5.6,31,31,0,0,1-5.4-.5,9,9,0,0,1-3.1-1C382.4,181,382.5,181,382.5,181ZM273.2,161.7l.2-.3a38.7,38.7,0,0,1,3.3-2.8,27.4,27.4,0,0,1,4.6-2.9,11.9,11.9,0,0,1,4.6-1.3,4,4,0,0,1,3.6,1.7,4.9,4.9,0,0,1-2.7,3.4,22.3,22.3,0,0,1-5.1,1.9,37.1,37.1,0,0,1-5.4.8,8.1,8.1,0,0,1-3.2-.3Zm-68,5.9a55.8,55.8,0,0,1-3.7,6.5,9.4,9.4,0,0,1-4.7,3.9,3.7,3.7,0,0,1-3.3-.6,4.9,4.9,0,0,1-1.6-2.9,10.9,10.9,0,0,1,1.8-6.5,27,27,0,0,1,5-5.8,43.6,43.6,0,0,1,6.7-4.5,57.3,57.3,0,0,1,6.4-3,26.8,26.8,0,0,0-3.4,5.7C207.4,162.8,206.3,165.2,205.2,167.6Z"/><path class="cls-2" d="M88.3,158.4s15.3-27.5,4.9-45.5-25.6-4.4-23,12.6c-12.9-11.4-32.5-5.8-22.9,12.6S88.3,158.4,88.3,158.4Z"/><path class="cls-2" d="M66.5,169.2c-11.7-6.2-15.4,6.3-8.2,14.7-10.9-1.9-19.7,7.8-8.2,14.6s29.2-2.9,29.2-2.9S78.3,175.5,66.5,169.2Z"/><path class="cls-2" d="M452.7,138.1c9.6-18.4-10-24-22.9-12.6,2.6-17-12.6-30.6-23-12.6s4.9,45.5,4.9,45.5S443.1,156.6,452.7,138.1Z"/><path class="cls-2" d="M441.7,183.9c7.2-8.4,3.5-20.9-8.2-14.7s-12.8,26.4-12.8,26.4,17.7,9.7,29.2,2.9S452.6,182,441.7,183.9Z"/><path class="cls-2" d="M245.6,349.9A29.8,29.8,0,0,1,257.1,362a30.2,30.2,0,0,1,11.4-12.1,30.7,30.7,0,0,1-11.4-12.3A30.3,30.3,0,0,1,245.6,349.9Z"/><path class="cls-2" d="M351.3,352.4a30,30,0,0,1,11.5,12.2,30,30,0,0,1,11.5-12.2,30,30,0,0,1-11.5-12.2A30,30,0,0,1,351.3,352.4Z"/><path class="cls-2" d="M302.1,313a44.7,44.7,0,0,1-17.4,18.4,45.3,45.3,0,0,1,17.4,18.4,45.8,45.8,0,0,1,17.3-18.4A45.1,45.1,0,0,1,302.1,313Z"/><path class="cls-2" d="M138.1,361.2a40.5,40.5,0,0,1,15.4-16.4,39.3,39.3,0,0,1-15.4-16.4,39.6,39.6,0,0,1-15.5,16.4A40.8,40.8,0,0,1,138.1,361.2Z"/><path class="cls-2" d="M261.8,322.1a4.8,4.8,0,1,0-4.8,4.8A4.7,4.7,0,0,0,261.8,322.1Z"/><path class="cls-2" d="M98.8,342.9a4.8,4.8,0,1,0,4.8,4.8A4.7,4.7,0,0,0,98.8,342.9Z"/><path class="cls-2" d="M355.8,319.1a4.8,4.8,0,0,0-4.8,4.8,4.8,4.8,0,0,0,9.5,0A4.8,4.8,0,0,0,355.8,319.1Z"/><path class="cls-2" d="M324.1,350.7a4.7,4.7,0,1,0,0,9.4,4.7,4.7,0,1,0,0-9.4Z"/><path class="cls-2" d="M395.5,354.6a4.8,4.8,0,0,0,4.8,4.7,4.7,4.7,0,0,0,4.7-4.7,4.8,4.8,0,0,0-4.7-4.8A4.9,4.9,0,0,0,395.5,354.6Z"/><path class="cls-2" d="M120.9,413.9c-.1-4-.4-8-.7-12s-.7-7.7-1.2-11.3a50.9,50.9,0,0,0-2-9,25.5,25.5,0,0,0-3.7-7.6,30.3,30.3,0,0,0-5.7-6.1,18.3,18.3,0,0,0-6.9-3.3,11.3,11.3,0,0,0-7.2.9,20.7,20.7,0,0,0-8,6.4,33.5,33.5,0,0,0-5,9.8,62.4,62.4,0,0,0-2.8,12.2c-.5,4.4-.9,8.9-1.1,13.5s-.2,9.3-.1,14,.2,9.1.3,13.3a2.4,2.4,0,0,0,.7,2,2.1,2.1,0,0,0,1.6.8,2,2,0,0,0,1.6-.5,3.3,3.3,0,0,0,1.1-1.8,37.6,37.6,0,0,0,.4-6.7c-.1-3-.1-6.4-.1-10.2s0-7.9.1-12.2.6-8.5,1.2-12.6A57,57,0,0,1,86.5,382a23.7,23.7,0,0,1,5.6-8.9,5.5,5.5,0,0,1,8.5.7,17.5,17.5,0,0,1,2,3.5,12.7,12.7,0,0,1,1.1,3.8c.2,1.5.5,3.5.9,6.2s.8,6,1.3,10.3.8,9.4,1.1,15.5.5,13.4.5,21.9a1.3,1.3,0,0,0,.1.6v.6a3.9,3.9,0,0,0,.7,1.8,2.1,2.1,0,0,0,1.7.6,30,30,0,0,0,4.3.3h4.2c1.5,0,2.3-.8,2.5-2.4a34.7,34.7,0,0,0,.2-3.6v-8.1Q121,419.8,120.9,413.9Z"/><path class="cls-2" d="M164.4,416.9a5,5,0,0,0,3.4-2.4,12.4,12.4,0,0,0,.8-4.9,28.5,28.5,0,0,0-1.9-9.8,29,29,0,0,0-4.6-8.1,22.8,22.8,0,0,0-6.5-5.6,17.4,17.4,0,0,0-7.5-2.4,13.7,13.7,0,0,0-7.5,1.7,17.9,17.9,0,0,0-6.8,6.4,27.6,27.6,0,0,0-3.9,8.1,40.3,40.3,0,0,0-1.6,9.2,46.9,46.9,0,0,0,.4,9.2,35,35,0,0,0,2.5,8.3,23.2,23.2,0,0,0,4.4,6.5,13,13,0,0,0,6.2,3.6,23.8,23.8,0,0,0,7.5,1,26.8,26.8,0,0,0,7.5-1.3,20.3,20.3,0,0,0,6.4-3.6,14.9,14.9,0,0,0,4.7-6,2.8,2.8,0,0,0,.3-2.3,3.1,3.1,0,0,0-1.1-1.6,3.2,3.2,0,0,0-1.9-.5,3.6,3.6,0,0,0-2,1.2,3.5,3.5,0,0,1-.5.8,3.1,3.1,0,0,0-.5,1,10.7,10.7,0,0,1-2.3,2.5,12.1,12.1,0,0,1-3,2,13,13,0,0,1-3.4.8,5.6,5.6,0,0,1-3.4-.8,9.3,9.3,0,0,1-4.6-5,24.8,24.8,0,0,1-1.5-7.1h13A27.1,27.1,0,0,0,164.4,416.9Zm-18.4-5h-1.5l-.4-.2a46.9,46.9,0,0,1,.8-9.8,23.4,23.4,0,0,1,3.7-8.7,4.3,4.3,0,0,1,2.3-1.9,3.4,3.4,0,0,1,2.7.8,23.9,23.9,0,0,1,7.1,8.1,19.8,19.8,0,0,1,2.1,10.8l-.9.4-.9.2-10.3.3Z"/><path class="cls-2" d="M218.1,383.7a2,2,0,0,0-1.7-.5,4,4,0,0,0-1.6.8,12,12,0,0,0-1.6,1.6,14.6,14.6,0,0,1-1.6,1.9c-1.4-1.2-2.6-2.1-3.7-2.9a14.8,14.8,0,0,0-3.5-1.9,21.7,21.7,0,0,0-4.4-1.1c-1.7-.2-3.9-.4-6.6-.5a12,12,0,0,0-7.3,2.3,19.3,19.3,0,0,0-5.6,6.6,35.3,35.3,0,0,0-3.6,9.3,55,55,0,0,0-1.3,10.8,48.3,48.3,0,0,0,1.2,10.8,30.1,30.1,0,0,0,4.1,9.5,3.4,3.4,0,0,1,.4,1.2,5.7,5.7,0,0,1,.1,1.3,23.5,23.5,0,0,0,0,3.8,16.5,16.5,0,0,0,.5,2.1l.7,1.6a4.4,4.4,0,0,1,.2,2.1c-.2,2.5-.2,4.6-.2,6.3a5.3,5.3,0,0,0,1.7,4.1c1.2,1,3.3,1.7,6.2,2a73.7,73.7,0,0,0,13,.2l3.5-.2a11.4,11.4,0,0,0,3.2-.7,7.9,7.9,0,0,0,2.5-1.5,4.6,4.6,0,0,0,1.3-2.6,4.4,4.4,0,0,0-.7-3.7,12.4,12.4,0,0,0-2.8-2.8,16.2,16.2,0,0,0-3.5-1.7l-2.5-.9-3.4-.5-2.5-.3-3.6-.5a48.9,48.9,0,0,1-6.4-1.5q-1.9-.6-1.8-3a23.9,23.9,0,0,0,11.3,2.6,16.9,16.9,0,0,0,8.8-2.7,20.5,20.5,0,0,0,6.1-6.9,30.8,30.8,0,0,0,3.6-9.6,45.8,45.8,0,0,0,1-11.2,55,55,0,0,0-1.7-11.5,7.7,7.7,0,0,1-.2-3.3,7.9,7.9,0,0,1,.9-2.3,12.5,12.5,0,0,1,1.2-1.7,4.7,4.7,0,0,0,1-1.1A2.6,2.6,0,0,0,218.1,383.7Zm-29.7,60.8,10,1.4,5.2.9a7.7,7.7,0,0,1,2.5.7,9.2,9.2,0,0,1,1.9,1.3l-2,.3h-1.7l-9.4.2a18.1,18.1,0,0,1-5.1-.3q-1.7-.5-1.8-1.5A7.8,7.8,0,0,1,188.4,444.5Zm23.1-30.4a48.8,48.8,0,0,1-2.4,9.5,9.3,9.3,0,0,1-3.7,5,14.8,14.8,0,0,1-5.8,2,4.4,4.4,0,0,1-4.6-1.7,16.2,16.2,0,0,1-2.4-5.3,51,51,0,0,1-2-16.7,49.2,49.2,0,0,1,2.7-14.3c1.9-4.8,5.2-6.2,9.9-4a11.9,11.9,0,0,1,6.1,6,24.6,24.6,0,0,1,2.5,9.1A45.6,45.6,0,0,1,211.5,414.1Z"/><path class="cls-2" d="M273.2,407.7c0-4.8,0-9.7-.1-14.5,0-1.1-.1-2.1-.1-3.2s-.2-2.1-.2-3.1a4.9,4.9,0,0,0-.6-1.7,1.4,1.4,0,0,0-1.3-.9l-5-.3H261a1.8,1.8,0,0,0-1.6.5,4.8,4.8,0,0,0-.6,1.8,6.8,6.8,0,0,0-.2,1.4c0,.4-.1.9-.1,1.5l-1.8-1-1.7-.7a26.4,26.4,0,0,0-6.7-1.7,19.8,19.8,0,0,0-6.9.7,18,18,0,0,0-6.2,3.4,19.3,19.3,0,0,0-4.8,6.5,41,41,0,0,0-3.6,24,18.3,18.3,0,0,0,2.1,6.6,19.9,19.9,0,0,0,3.8,5.2,20.2,20.2,0,0,0,5.2,3.6,17.5,17.5,0,0,0,12.8.8,26.8,26.8,0,0,0,6.2-2.9l1.3-.8a8.5,8.5,0,0,0,1.5-.9c.1.5.1.9.2,1.2a3.1,3.1,0,0,0,.1,1,4.9,4.9,0,0,0,1,2.7,3.4,3.4,0,0,0,2.4.9h7.4a3,3,0,0,0,1.7-.6,5,5,0,0,0,.7-1.9,7.6,7.6,0,0,0,.1-1.5v-6.4c0-1.7,0-3.3-.1-5Zm-13.8,15.8a2.4,2.4,0,0,1-.6,1.1,27.8,27.8,0,0,1-5.2,4,19.1,19.1,0,0,1-6,2.3,12.5,12.5,0,0,1-5.8-.3,12.3,12.3,0,0,1-4.8-2.5,14.1,14.1,0,0,1-3.4-4.5,18.9,18.9,0,0,1-1.5-6,43,43,0,0,1,.3-8.8,31,31,0,0,1,2.4-8.4,14.1,14.1,0,0,1,4.4-5.7,13.5,13.5,0,0,1,6-2.7,13.1,13.1,0,0,1,6.5.4,12.8,12.8,0,0,1,5.9,3.7,5,5,0,0,1,1.5,3.7c-.1,1.9-.1,3.8-.1,5.8s.1,3.9.1,6.2.1,3.3.1,5l.3,5.4A5.3,5.3,0,0,1,259.4,423.5Z"/><path class="cls-2" d="M303.6,385.3a6.5,6.5,0,0,0-1.4,0h-4v-9.3c.1-2.1.1-4.2.1-6.3a15.3,15.3,0,0,0-.3-3,3.7,3.7,0,0,0-.9-2,3.4,3.4,0,0,0-2.1-.7h-2.4a9.6,9.6,0,0,1-2.4,0h-3.1a3.8,3.8,0,0,0-1.8.8,2.7,2.7,0,0,0-.8,1.7,13.7,13.7,0,0,0-.2,3.1V376c.1,2.2.1,4.3.1,6.5v3h-2.1a9.7,9.7,0,0,0-1.7,0c-1.6.2-2.5.9-2.6,2.3s.7,2.4,2.5,2.8h3l1.1.2v2.5c.1,1.5.1,3.4.2,5.7s.1,4.8.2,7.7.1,5.7.2,8.6.1,5.8.2,8.5.2,5.2.2,7.2a24.3,24.3,0,0,0,.3,3.8,3.5,3.5,0,0,0,3.6,3.3,16.2,16.2,0,0,0,3.1.2l3.1-.3c2.6-.2,3.9-1.6,3.9-4.3,0-.3,0-1.6-.1-3.8s-.1-4.8-.2-7.9-.2-6.4-.3-10-.2-6.8-.3-9.8-.2-5.6-.2-7.7-.1-3.2-.1-3.5l1.1-.2h4c2.2-.1,3.4-1,3.6-2.8S305.9,385.5,303.6,385.3Z"/><path class="cls-2" d="M312.7,391.2a7.8,7.8,0,0,0,1.7,2.6,6.8,6.8,0,0,0,2.6,1.8,6.5,6.5,0,0,0,3.1.5,7,7,0,0,0,4.9-2.2,7.1,7.1,0,0,0,1.8-5,9.7,9.7,0,0,0-2.2-6.2,7.2,7.2,0,0,0-5.5-2.4,6.6,6.6,0,0,0-5.1,2.1,7.5,7.5,0,0,0-1.9,5.3A9.9,9.9,0,0,0,312.7,391.2Z"/><path class="cls-2" d="M323.1,400.2h-5.5c-2.4,0-4,.3-4.8,1.1s-1.2,2.4-1.2,4.8.1,3.5.2,5.7l.3,6.6c.1,2.3.2,4.4.3,6.5s.2,3.8.2,5.3a12.7,12.7,0,0,1-.1,2,14.9,14.9,0,0,0,.2,2.1c.3,2.4,1.6,3.6,4,3.5h2.2l2.3-.3a17,17,0,0,0,3.1-.6,3.8,3.8,0,0,0,1.8-.9,3.7,3.7,0,0,0,.8-1.9,22.8,22.8,0,0,0,.2-3.1v-7.2c0-1.7,0-3.4.1-4.9V404.2C326.9,401.7,325.6,400.4,323.1,400.2Z"/><path class="cls-2" d="M375.2,383.8c-2-.6-3.3.3-4.1,2.7a.7.7,0,0,0-.1.5c-1.2,3.6-2.4,7-3.5,10.5s-2.4,6.8-3.6,10.4c-.3.8-.7,1.7-1,2.6s-.6,1.9-1,2.9l-.7-1.3c-.1-.4-.3-.7-.4-1.1l-2-4.7c-.6-1.5-1.3-3.1-1.9-4.7l-3-7.5c-1.1-2.5-2.1-5-3.1-7.4a3.4,3.4,0,0,0-3.9-2.5h-9.5c-2.8.2-3.7,1.5-3,3.9l.3,1c1.1,2.6,2.1,5.3,3.1,7.9s2,5.2,3.1,7.9l4.8,11.3,4.8,11.2,1.7,3.8a32.4,32.4,0,0,0,2,3.6c1,1.6,2.1,2.4,3.5,2.4s2.6-1,3.5-2.8l1.5-3.3,1.2-3.3,5.1-15c1.7-5,3.4-10,5-15,.6-1.6,1.1-3.2,1.6-4.8l1.5-4.9C377.8,385.8,377.1,384.3,375.2,383.8Z"/><path class="cls-2" d="M416.3,416.9a5.3,5.3,0,0,0,3.4-2.4,12.4,12.4,0,0,0,.8-4.9,28.5,28.5,0,0,0-1.9-9.8,29,29,0,0,0-4.6-8.1,22.8,22.8,0,0,0-6.5-5.6,17.4,17.4,0,0,0-7.5-2.4,14.1,14.1,0,0,0-7.6,1.7,19.4,19.4,0,0,0-6.8,6.4,30.2,30.2,0,0,0-3.8,8.1,35.5,35.5,0,0,0-1.6,9.2,40.3,40.3,0,0,0,.4,9.2,30.9,30.9,0,0,0,2.5,8.3,21.3,21.3,0,0,0,4.4,6.5,13,13,0,0,0,6.2,3.6,23.4,23.4,0,0,0,7.5,1,25.5,25.5,0,0,0,7.4-1.3,19.7,19.7,0,0,0,6.5-3.6,15.8,15.8,0,0,0,4.7-6,3.2,3.2,0,0,0,.3-2.3,3.3,3.3,0,0,0-1.2-1.6,2.7,2.7,0,0,0-1.8-.5,3.3,3.3,0,0,0-2,1.2,3.5,3.5,0,0,1-.5.8,3.1,3.1,0,0,0-.5,1,10.7,10.7,0,0,1-2.3,2.5,12.1,12.1,0,0,1-3,2,12.8,12.8,0,0,1-3.5.8,5.4,5.4,0,0,1-3.3-.8,9.3,9.3,0,0,1-4.6-5,24.8,24.8,0,0,1-1.5-7.1h13A27.6,27.6,0,0,0,416.3,416.9Zm-18.4-5h-1.5l-.4-.2a46.9,46.9,0,0,1,.8-9.8,23.4,23.4,0,0,1,3.7-8.7,4.3,4.3,0,0,1,2.3-1.9,3.4,3.4,0,0,1,2.7.8,23.9,23.9,0,0,1,7.1,8.1,19.8,19.8,0,0,1,2.1,10.8l-.9.4-.9.2-10.3.3Z"/></svg>