<?xml version="1.0" encoding="utf-8"?>
<!-- Generator: Adobe Illustrator 23.0.2, SVG Export Plug-In . SVG Version: 6.00 Build 0)  -->
<svg version="1.1" id="Layer_1" xmlns="http://www.w3.org/2000/svg" xmlns:xlink="http://www.w3.org/1999/xlink" x="0px" y="0px"
	 viewBox="0 0 600 600" style="enable-background:new 0 0 600 600;" xml:space="preserve">
<style type="text/css">
	.st0{fill:#40ADB1;}
	.st1{fill:#434345;}
	.st2{fill:#DC73AD;}
	.st3{fill:#BD2329;}
	.st4{fill:#C71A38;}
	.st5{fill:#FBAB18;}
	.st6{fill:#FFC709;}
</style>
<g>
	<path class="st0" d="M167.75,294.26c-12.36-23.12-14.99-53.44,1.21-60.01c10.9-4.42,22.31-5.94,32.87-5.96L167.75,294.26z
		 M216.54,229.15l-40.25,77.91c2.42,2.89,5.03,5.46,7.78,7.62l43.31-83.84C224.1,230.2,220.44,229.61,216.54,229.15z M254.62,241.7
		c-4.32-3.79-10.21-6.85-18.12-8.83c-0.82-0.2-1.69-0.42-2.6-0.63l-44.43,86c1.62,0.87,3.28,1.61,4.98,2.17
		c6.32,2.07,12.14,3.33,17.49,3.9L254.62,241.7z M219.01,324.66c23.91-0.16,36.85-15.23,41.63-31.14c4.26-14.2,8.14-33.27-1.4-46.73
		L219.01,324.66z M350.06,320.95c6.51,2.87,14.39,4.26,23.8,3.5l46.22-89.48c-0.49-0.26-0.99-0.51-1.52-0.73
		c-6.91-2.8-14.02-4.43-21-5.26L350.06,320.95z M381.64,323.38c3.61-0.69,7.41-1.67,11.41-2.98c27.58-9.03,46.04-62.54,32.02-81.11
		L381.64,323.38z M328.17,297.27l34.56-66.91c-4.54,0.8-8.52,1.71-11.72,2.51c-35.74,8.93-30.33,39.98-24.13,60.66
		C327.26,294.78,327.69,296.03,328.17,297.27z M390.62,228.41c-4.03-0.19-7.97-0.15-11.75,0.06l-42.56,82.39
		c2.31,2.64,5,5.02,8.08,7.03L390.62,228.41z M155.11,477.61c-10.73,0-18.03,9.34-20.23,18.89c-2.35,10.23,2.88,18.88,8.43,27.01
		c3.82,5.6,8.17,11.36,10.3,17.88c3.22,9.84-5.34,12.25-7.87,1.37c-1.57-7.37-9.15-2.27-9.15,3.27c0,7.77,4.51,16.23,13.18,16.23
		c8.76,0,15.37-5.72,17.91-13.8c3.2-10.17-1.97-19.5-7.46-27.86c-3.23-4.92-9.7-11.93-9.7-18.16c0-3.55,1.82-9.39,5.79-10.35
		c5.65-1.37,8.69,5.94,10.11,10.02c2.83,8.14,9.26,3.07,9.27-3.25C175.7,487.45,166.7,477.61,155.11,477.61z M458.76,530.78
		c-0.01,5.47-24.3,15.87-24.41,15.69c1.81,3.12,2.72,6.21,2.72,9.26c0,8.15-3.99,18-13.18,18.75c-7.69,0.63-14.6-5.04-14.6-12.97
		c0-4.65,2.25-9.01,6.76-13.08c-0.67-0.52-11.63-9.04-10.93-9.71c-5.69,5.45-12.9,10.86-21.65,16.25
		c-10.14,6.13-20.68,3.44-25.51-7.6c-1.88,3.1-3.55,6.38-5.32,9.56c-3.92,6.54-7.92,9.81-11.99,9.81
		c-13.08,0-13.73-18.99-14.49-28.22c0.39,4.69-10.79,13.24-14.39,14.99c-5.83,2.83-13.26,3.25-17.06-2.95
		c-3.43,7.37-14.09,21.24-22.57,11.5c-5.62-6.46-4.2-17.25-6.68-24.94c0.75,2.33-9.51,12.34-11.25,13.81
		c-5.16,4.37-10.31,4.8-14.45-0.79c-2.79,2.74-4.75,6.92-6.88,10.29c-4.06,6.42-12.88,10.65-18.4,3.56
		c-4.09-5.26-4.21-13.64-5.46-19.9c0.26,1.25-9.78,10.93-11.46,12.96c-5.07,6.12-13,10.37-16.02,0.38
		c-2.08-6.9-0.85-14.15-0.85-21.18c0-17,2.11-33.38,6.32-49.14c2.4-7.99,4.5-13,6.32-15.03c0.31-0.37,0.63-0.69,0.97-0.98
		c1.63,4.01,4.74,9.03,10.56,12.35c-0.49,2.76-1.17,6.15-2.05,10.2c-5.3,24.19-8.32,41.55-9.04,52.08
		c5.12-5.56,17.85-25.39,26.2-13.13c4.78,7.02,3.22,15.94,3.92,23.89c6.13-7.95,12.36-16.02,16.26-25.34
		c3.84-9.17,7.89-15.46,15.72-21.82c6.39-5.19,13.22-2.73,15.91,4.58c0.26,0.7,4.3,2.2,5.11,3.29c1.25,1.68,1.55,3.94,1.8,5.96
		c0.98,7.98-0.86,15.97,0.23,24.04c0.54,4.03,1.25,6.04,2.12,6.05c7.2,0.03,13.55-22.54,16.4-27.95
		c6.03-11.44,17.32-18.42,30.23-18.58c1.31-5.81,2.62-11.55,3.92-17.21c1.65-7.19,3.08-11.85,4.27-13.99
		c2.33,3.93,6.31,9.45,10.97,10.99c-0.34,2.09-0.77,4.54-1.29,7.36c-1.31,8.28-2.51,16.49-3.6,24.62
		c-1.09,8.13-1.34,16.43-1.19,24.63c0.05,2.93-0.6,10.64,3.43,9.8c6.9-1.47,9.75-14.48,11.52-20c2.86-8.9,5.12-17.87,13.04-23.85
		c12.35-9.32,26.96,2.39,20.59,16.4c-2.86,6.29-7.99,9.88-13.77,13.21c-2.9,1.67-5.77,2.32-4.57,6.37
		c2.71,9.14,17.96-3.81,21.44-6.77c3.54-3.01,7.28-5.58,8.88-9.6c4.95-12.41,9.59-21.73,24.95-21.73c5.44,0,11.77,4.21,11.77,10.13
		c0,4.72-1.42,7.08-4.25,7.08c-1.89,0-3.7-1.05-5.45-3.16c-2.12-2.57-9.45,3.28-9.63,5.97c-0.33,4.92,6.82,9.28,10.17,11.57
		c13.44-7.48,22.08-11.22,25.93-11.22C457.45,527.29,458.76,528.45,458.76,530.78z M371.93,531.32c7.09-1.35,10.53-10.31,8.29-14.28
		C376.37,519.15,371.43,523.59,371.93,531.32z M262.54,522.06c-1.91-0.19-5.61,2-7.42,4.98c-1.82,2.98-2.76,6.2-2.28,10.17
		c3.65-1.72,5.64-3.68,7.27-5.86C261.75,529.17,263.04,526.01,262.54,522.06z M324.1,520.86c-9.73,1.53-15.62,8.83-17.65,21.9
		C314.22,537.68,320.1,530.38,324.1,520.86z M424.99,560.09c0-2.25-0.84-4.21-2.51-5.88c-2.18,2.32-3.27,4.25-3.27,5.77
		c0,2.11,0.8,3.16,2.4,3.16C423.86,563.14,424.99,562.12,424.99,560.09z"/>
	<path d="M180.53,479.17c0.36,2.57-0.36,5.06-3.64,4.08c-3.28-0.89-2.75-4.79-3.11-7.64c-0.71-4.7-0.71-20.33-0.53-24.41
		c0.09-1.6,0.8-10.12,1.24-11.1c0.8-1.69,4.26-0.53,5.24,0.62C181.24,442.68,180.53,479.17,180.53,479.17z M180.38,436.22
		c-0.7,0.87-1.88,1.23-3.4,0.42c-3.37-1.8-1.99-7.98,1.95-6.13C181.37,431.66,181.6,434.71,180.38,436.22z M220.3,456.09
		c0,5.42-2.22,13.49-5.33,17.93c-2.22,3.02-6.75,4.79-10.21,3.02c-4.35-2.31-6.13-8.61-6.3-13.14c-0.27-5.86,1.15-24.86,1.69-27.79
		c0.62-4.17,1.42-9.94,4-13.32c0.53-0.8,3.35-5.3,9.41-2.93c2.27,0.89,3.02,2.93,3.64,5.15c0.44,1.51,1.42,5.68-1.07,6.04
		c-2.57,0.27-2.03-4.03-4-4.35c-4.39-0.71-6.21,18.02-5.95,20.24c5.86-0.62,8.88-2.22,12.96,3.28
		C220.57,452.54,220.13,453.6,220.3,456.09z M215.33,452.09c-2.04-1.24-6.66-0.89-8.79,0c-1.42,0.62-1.86,18.82,1.69,21.04
		c0.89,0.53,2.9-1.55,3.37-2.22C217.5,462.5,215.69,452.89,215.33,452.09z M236.11,482.28c-2.37,1.3-6.3,0.44-8.26-1.51
		c-1.33-1.6-6.1-8.27-1.24-34.36c0.45-2.43,5.68-17.58,10.12-16.6c5.33,1.33,6.13,4.38,7.02,9.44
		C244.28,442.27,248,475.75,236.11,482.28z M237.88,438.6c-5.63,9.4-7.01,28.67-7.01,30.27c-0.09,3.29-0.36,6.21,1.42,9.23
		c2.31-0.27,3.37-2.13,4.35-4c2.93-5.5,2.73-18.36,2.74-18.6C239.76,446.51,237.88,438.6,237.88,438.6z M279.7,430.43
		c-0.98,0-5.77-0.18-6.04,0.8c-0.36,1.51-1.86,46.61-1.78,48.65c0.27,3.37-3.2,3.64-5.24,1.51c-1.07-1.33-0.71-3.28-0.8-5.06
		c-0.27-7.55,1.42-45.1,0.62-45.19c-0.35-0.09-9.41,0.27-9.5,0.89c-0.36,1.42-1.95,45.81-1.86,47.85c0.27,3.37-3.2,3.64-5.24,1.6
		c-0.98-1.33,0.62-49.54-0.18-49.62c-0.35,0-2.4,0.18-3.02,0.18c-1.95,0.09-3.55-0.18-4.17-2.31c-1.07-3.28,3.64-2.66,5.59-2.66
		c7.99-0.09,33.56-2.22,34.27,0.53C282.89,429.46,281.38,430.34,279.7,430.43z M298.08,477.04c-2.31,1.07-3.55-1.24-3.91-3.11
		c-0.53-2.49-1.33-14.2-1.6-14.29c-0.18-0.18-5.06-0.8-5.5-0.18c-0.44,0.71-4.44,16.07-5.06,19.79c-0.35,1.95-0.98,4-3.55,3.29
		c-2.84-0.89-1.95-3.11-1.33-5.42c1.24-5.33,3.28-10.65,4.44-15.98c0.35-1.78-0.18-0.89-1.78-1.86c-1.69-1.07-1.86-3.91,0.53-4.26
		c3.37-0.36,3.2,0.27,4.35-3.55c1.42-4.88,6.48-20.6,7.46-21.39c1.6-1.24,5.24-0.18,6.21,1.33c0.98,1.42,1.6,33.2,1.95,41.46
		C300.38,474.82,300.03,476.15,298.08,477.04z M292.75,441.71c-0.8,1.07-3.64,10.3-3.99,12.07c-0.18,0.98,3.73,1.15,3.99,0
		C293.02,452,293.28,443.04,292.75,441.71z M349.65,478.02c0.09,2.57,0,4.17-3.02,4.17c-1.78-0.09-3.02-1.24-3.28-3.02
		c-0.89-4.79-8.26-28.41-8.26-28.41c-0.8,2.22-6.02,24.85-6.84,28.59c-0.62,2.49-0.89,4.35-4.08,3.2c-0.89-0.35-2.66-1.07-2.84-2.22
		c-0.8-5.42-3.37-53.09-2.84-53.97c1.24-2.13,5.5-0.18,6.57,1.6c0.98,1.6,0.98,5.15,1.15,7.19c0.44,4.97-1.72,34.11,0.89,27.79
		c1.05-2.55,2.49-9.5,3.46-14.03c0.36-1.6,1.15-4.79,2.31-5.95c2.57-2.49,6.13,0.8,7.63,2.93c2.57,4.26,3.37,8.25,5.5,12.52
		c0.09-4.88,2.66-23.53,3.55-27.79c0.18-0.8,0.36-1.6,0.89-2.31c1.07-0.89,3.46-0.27,3.91,0.98
		C354.89,431.14,349.57,475.53,349.65,478.02z M367.68,480.95c-1.24,0.18-9.41,2.31-11.36-0.53c-0.8-1.42-0.53-4.53-0.62-6.13
		c-0.09-2.57,1.24-33.11,1.51-36.49c0.09-2.4,0.71-7.1,3.11-8.17c1.51-0.53,6.13-1.15,7.63-0.62c2.4,0.8,3.2,4.26-0.44,4.53
		c-3.73,0.18-3.37,0.18-3.64,4.26c-0.09,1.6-1.51,14.29-1.15,14.56c0.44,0.36,5.06-1.24,6.92,2.49c1.33,2.66-4.71,1.86-6.21,2.4
		c-2.04,0.8-2.4,17.31-1.78,19.35c2.04,0.53,4.71-1.07,7.1,0.09C370.88,477.75,370.7,480.5,367.68,480.95z M394.4,477.04
		c-2.31,1.07-3.55-1.24-3.91-3.11c-0.53-2.49-1.33-14.2-1.6-14.29c-0.18-0.18-5.06-0.8-5.5-0.18c-0.44,0.71-4.44,16.07-5.06,19.79
		c-0.36,1.95-0.98,4-3.55,3.29c-2.84-0.89-1.95-3.11-1.33-5.42c1.24-5.33,3.28-10.65,4.44-15.98c0.35-1.78-0.18-0.89-1.78-1.86
		c-1.69-1.07-1.86-3.91,0.53-4.26c3.37-0.36,3.2,0.27,4.35-3.55c1.42-4.88,6.48-20.6,7.46-21.39c1.6-1.24,5.24-0.18,6.21,1.33
		c0.98,1.42,1.6,33.2,1.95,41.46C396.71,474.82,396.35,476.15,394.4,477.04z M389.07,441.71c-0.8,1.07-3.64,10.3-3.99,12.07
		c-0.18,0.98,0.09,0.98,1.15,1.06c0.89,0,2.57,0.09,2.84-1.06C389.34,452,389.61,443.04,389.07,441.71z M412.42,459.02
		c0,0,6.48,9.5,8.43,11.27c2.93,2.58,0.09,6.57-3.73,3.29c-3.73-3.46-5.33-7.63-8.26-11.63c-1.69-2.31-1.51-0.71-1.6,1.24
		c-0.09,3.46,1.07,15.71,0.53,16.78c-0.53,0.89-1.69,2.31-2.75,2.4c-2.04,0.18-3.55-1.95-4-3.73c-0.89-4.35,1.51-49.09,1.95-50.25
		c0.8-1.6,2.57-1.15,4.26-1.33c6.13-0.53,10.48-0.71,14.91,4.26c3.64,4,3.37,8.97,0.89,13.49c-1.24,2.22-8.97,9.94-11.27,11.81
		C410.83,457.51,411.62,457.78,412.42,459.02z M412.69,449.7c0,0,11.19-12.87,4.79-16.78c-2.04-1.33-6.3-2.22-8.43-0.62
		c-0.89,0.8-1.33,19.88-1.33,20.86C409.49,452.89,411.36,450.85,412.69,449.7z M165.23,85.66c0.35,3.82-4.79,3.64-5.68,0.62
		c-0.62-2.57,1.78-33.51,0.59-38.42c-1.18,1.8-2.23,6.5-4.5,7.17c-5.03,1.48-6.31-7.51-9.27-9.81c-0.67,2.11-1.95,34.27-1.3,39.28
		c0.27,2.04-0.98,4.97-3.37,4c-1.95-0.89-2.31-3.55-2.31-5.32c0-7.36,0.62-37.06,0.62-44.57c0-2.22,0.35-3.64,2.84-3.82
		c5.69-0.41,8.19,10.62,11.19,14.12c1.95-3.2,3.73-7.19,5.5-10.56c1.24-2.4,4.44-6.48,7.28-3.55
		C168.15,36.21,164.57,78.59,165.23,85.66z M194.43,75.19c-1.42,4.62-1.33,7.19-5.33,10.56c-2.49,2.22-4.97,2.93-7.9,1.07
		c-2.57-2.04-3.64-5.24-4.17-8.34c-0.18-0.89-0.27-3.11,0.36-3.82c1.86-1.69,4.79-0.8,4.97,1.87c0.18,1.95,0.09,3.46,1.51,5.06
		c1.69,1.78,2.84,0.27,3.73-1.42c4.97-9.5,4.35-27.34,3.91-38.08c-0.27-5.59,0-4.08-2.31,0c-1.42,2.57-7.87,22.16-15.95,17.93
		c-0.72-0.38-1.14-19.76-0.39-29.47c0.18-2.31,0.62-3.37,2.66-4.53c2.49-1.42,4.79,1.6,4.71,4.08c0,2.75-2.48,22.54-2.48,23.16
		c0.8-0.71,10.74-18.54,11.62-22.63c0.53-2.31,0.27-5.68,3.82-4.53c2.57,0.8,2.4,4.53,2.57,6.75c0.53,5.86,0.8,12.25,0.89,18.11
		C196.83,58.76,196.56,67.64,194.43,75.19z M221.51,49.8c1.69,0.27,5.86,0.62,4.97,3.2c-1.07,3.11-5.06,0.27-5.68,2.93
		c-0.44,1.86,0,19,0.09,22.99c0,2.04-0.62,3.82-2.66,4.71c-1.95,0.8-3.73-0.18-3.91-2.4c-0.18-2.57,0.98-51.31,1.95-52.82
		c1.42-1.69,5.33-1.6,7.37-1.6c1.86,0,5.95,0.27,6.04,2.84c0.18,2.57-4.44,1.77-5.77,1.86C221.87,31.78,221.42,49.35,221.51,49.8z
		 M257,40.75c-0.09,3.91-1.25,31-13.29,40.03c-4.71,3.53-10.21,4.08-12.43-2.93c-1.15-3.73-0.53-34.18-0.36-38.88
		c0.09-2.49-0.09-4.44,2.84-5.33c4.88-1.24,7.01,3.82,6.48,7.99c-1.24,10.21-2.04,22.55-1.51,32.85c0,0.62,0.23,3.66,0.71,3.37
		c13.06-7.6,12.52-31.69,13.14-43.59c0.09-1.6-0.62-7.46,2.49-6.04C258.89,30,257.09,37.55,257,40.75z M281.52,31.6
		c-0.89,0-5.77-0.18-5.95,0.8c-0.36,1.42-1.95,45.9-1.86,47.94c0.27,3.37-3.2,3.55-5.24,1.51c-0.98-1.33,0.62-49.54-0.18-49.54
		c-0.36-0.09-2.4,0.09-3.02,0.09c-1.95,0.09-3.55-0.18-4.17-2.31c-1.06-3.28,3.64-2.66,5.59-2.66c2.93,0,10.65-0.53,11.36-0.62
		c2.04-0.18,5.5-0.71,6.13,1.95C284.72,30.62,283.21,31.51,281.52,31.6z M307.8,39.32c-0.09,3.91-0.3,20.93-4.62,30.89
		c-1.28,2.95-5.59,8.61-9.05,10.56c-5.15,2.84-10.21,4.08-12.43-2.93c-1.15-3.73-0.53-34.18-0.36-38.88
		c0.09-2.49-0.09-4.44,2.84-5.33c4.88-1.24,7.01,3.82,6.48,7.99c-1.24,10.21-1.33,36.04-0.8,36.22c0.98,0.53,6.63-3.85,8.7-8.61
		c5.05-11.62,3.82-23.08,4.44-34.98c0.09-1.6-0.62-7.46,2.49-6.04C309.31,30,307.89,36.13,307.8,39.32z M323.08,64.8
		c0,0,6.48,9.5,8.43,11.27c2.93,2.58,0.09,6.57-3.73,3.28c-3.73-3.46-5.33-7.63-8.26-11.63c-1.69-2.31-1.51-0.71-1.6,1.24
		c-0.09,3.46,1.07,15.71,0.53,16.78c-0.53,0.89-1.69,2.31-2.75,2.4c-2.04,0.18-3.55-1.95-3.99-3.73
		c-0.89-4.35,1.51-49.09,1.95-50.25c0.8-1.6,14.74-2.04,19.18,2.93c3.64,4,3.37,8.97,0.89,13.49c-1.24,2.22-8.97,9.94-11.27,11.81
		C321.48,63.29,322.28,63.56,323.08,64.8z M328.14,38.7c-1.94-1.48-6.3-2.22-8.43-0.62c-0.89,0.8-1.33,19.88-1.33,20.86
		C320.15,58.67,335.75,44.5,328.14,38.7z M350.06,86.73c-1.24,0.18-9.41,2.31-11.36-0.53c-0.8-1.42,0.62-39.24,0.89-42.61
		c0.09-2.4,0.71-7.1,3.11-8.17c1.51-0.53,6.13-1.15,7.63-0.62c2.4,0.8,3.2,4.26-0.44,4.53c-3.73,0.18-3.37,0.18-3.64,4.26
		c-0.09,1.6-1.51,14.29-1.15,14.56c0.44,0.36,5.06-1.24,6.92,2.49c1.33,2.66-4.71,1.86-6.21,2.4c-2.04,0.8-2.4,17.31-1.78,19.35
		c2.04,0.53,4.71-1.07,7.1,0.09C353.26,83.53,353.08,86.28,350.06,86.73z M360.98,33.11c0.09-1.42-0.18-2.84-0.27-4.17
		c0-0.71,0.36-1.42,1.69-1.42c0.98,0,1.24,0.62,1.51,1.07c0.8,1.86,0.72,6.54-1.51,7.9C359.5,38.25,360.89,34,360.98,33.11z
		 M381.4,86.55c-1.86,2.49-4.53,2.57-7.37,0.89c-3.73-2.4-4.26-6.21-4.17-10.65c0.09-2.93,3.02-3.46,4.44-1.07
		c1.24,1.95-0.89,4.08,1.33,6.92c2.4,2.93,4.08-2.31,4.08-4.62c-0.09-7.37-5.77-18.65-9.23-25.03c-2.98-5.49-3.23-17.24,5.33-20.15
		c2.39-0.81,5.06-0.8,7.1,0.98c1.6,1.6,3.55,5.59,2.04,7.63c-1.07,1.42-2.75,1.07-3.46-0.71c-1.07-2.66,0.36-3.73-3.37-2.13
		c-3.37,1.78-3.02,7.9-1.69,11.01c1.33,3.02,6.48,13.41,7.28,16.96C384.6,70.48,387.25,78.75,381.4,86.55z M420.29,80.69
		c-1.79,6.06-8.52,8.43-11.36,6.75c-3.73-2.4-4.26-6.21-4.17-10.65c0.09-2.93,3.02-3.46,4.44-1.07c1.24,1.95-0.89,4.08,1.33,6.92
		c2.4,2.93,4.08-2.31,4.08-4.62c-0.09-7.37-6.83-18.18-9.23-25.03c-4.12-11.74,2.22-18.91,5.33-20.15c2.4-0.8,5.06-0.8,7.1,0.98
		c1.6,1.6,3.55,5.59,2.04,7.63c-1.07,1.42-2.75,1.07-3.46-0.71c-1.07-2.66,0.35-3.73-3.37-2.13c-3.37,1.78-3.02,7.9-1.69,11.01
		c1.33,3.02,6.48,13.41,7.28,16.96C419.49,70.48,421.42,76.85,420.29,80.69z M436.09,88.06c-2.23,1.53-6.3,0.44-8.26-1.51
		c-1.33-1.6-5.83-9.3-3.91-19.71c4.31-23.26,8.34-32.22,12.78-31.25c5.33,1.33,6.65,4.35,7.54,9.41
		C444.78,48.02,447.5,80.25,436.09,88.06z M439.37,61.87c0-2.04,0.36-3.46,0.18-5.68c-0.27-3.28-0.8-8.79-1.69-11.81
		c-2.66,4.26-4.79,14.03-6.04,19.17c-0.44,2.04-0.62,4.17-0.8,6.21c-0.18,1.6-0.18,3.29-0.18,4.88c-0.09,3.29-0.36,6.21,1.42,9.23
		c2.31-0.27,3.37-2.13,4.35-4C439.55,74.39,439.46,67.91,439.37,61.87z M463.2,211.43c-1.38-5.14-87.7-4.14-111.92,2.18
		c-24.22,6.32-42.76,17.9-57.91,17.9c-15.15,0-33.7-11.58-57.92-17.9c-24.22-6.32-110.54-7.31-111.92-2.18
		c-2.22,8.25-4.32,31.16,0.68,32.41c4.21,1.05,9.1,0.31,17.53,26.63c8.42,26.33,17.58,55.06,47.29,64.51
		c14.05,4.47,27.72,5.65,39.72,4.1c-3.79,3.04-7.61,6.68-11.43,11.02c-17.7,20.09-39.09,16.34-52.53,4.96
		c-5.31-4.49-10.02-0.55-8.27,5.69c4.61,16.46,24.81,51.7,75.48,50.66c33.68-0.69,52.99-17.04,61.38-30.45
		c8.39,13.41,27.7,29.76,61.38,30.45c50.66,1.03,70.87-34.2,75.48-50.66c1.74-6.23-2.96-10.18-8.27-5.69
		c-13.44,11.37-34.83,15.13-52.53-4.96c-3.82-4.33-7.64-7.97-11.43-11.02c12,1.54,25.66,0.37,39.72-4.1
		c29.71-9.45,38.86-38.19,47.29-64.51c8.42-26.32,13.31-25.58,17.53-26.63C467.52,242.59,465.42,219.68,463.2,211.43z
		 M202.82,330.49c-26.32-3.16-45.28-34.75-49.49-54.75c-4.21-20.01-13.69-44.23,22.11-51.6c35.8-7.37,69.5,5.26,69.5,5.26
		c34.75,10.53,31.59,38.96,21.06,68.45C255.47,327.33,229.14,333.65,202.82,330.49z M293.37,338.39
		c-5.12-6.46-17.79-13.82-33.76-12.55c2.88-2.7,5.27-5.74,7.06-9.09c12.67-23.75,12.97-53.65,26.7-53.65
		c13.73,0,14.04,29.9,26.7,53.65c1.79,3.36,4.18,6.4,7.06,9.09C311.16,324.57,298.49,331.93,293.37,338.39z M433.42,275.73
		c-4.21,20.01-23.17,51.59-49.49,54.75c-26.32,3.16-52.65-3.16-63.18-32.64c-10.53-29.48-13.69-57.92,21.06-68.45
		c0,0,33.7-12.63,69.5-5.26C447.11,231.51,437.63,255.73,433.42,275.73z"/>
	<path class="st6" d="M184.8,93.19c-9.63,0.04-19.84,14.75-23.86,21.69c0.36-4.29,0.61-4.53,0.61-9.25c0-7.46-6-13.42-12.88-7.22
		c-5.5,4.95-5.52,13.79-5.73,20.61c-0.52,16.8,1.42,33.85,5.59,50.12c2.33,9.08,8.71,8.76,16.4,6.48
		c7.68-2.28,18.58-7.28,18.58-16.72c0-5.53-4.1-7.3-7.41-10.57c1.76,0.76,11.43-12.94,12.53-14.48c5.82-8.17,11.11-18.99,8.36-29.27
		C195.73,99.92,190.26,93.17,184.8,93.19z M161.38,165.43l0.11-8.28c7.19,0.15,10.79,0.84,10.79,2.07
		C172.27,161.04,168.64,163.11,161.38,165.43z M176.79,126.53c-3.23,6.39-8.05,12.06-14.44,17c0.87-7.77,3-15.22,6.37-22.34
		c3.38-7.12,8.04-12.42,14-15.91C182,113.06,180.03,120.14,176.79,126.53z M251.46,122.21c-3.31-3.22-1.94-10.74,1.66-13.43
		c4.43-3.26,11.22-0.79,11.22,5.12c0,4.77-2.87,10.79-8,10.11C255.04,123.83,252.22,122.95,251.46,122.21z M447.54,140.81
		c-0.98-0.58-1.87-0.87-2.67-0.87c-1.53,0-2.94,1.43-4.25,4.3c-1.31,2.87-3.58,7.03-6.81,12.48c-3.23,5.45-6.03,9.79-8.39,13.02
		c-2.36,3.23-4.19,4.85-5.5,4.85c-1.16,0-1.74-2.29-1.74-6.86c0-7.55,0.65-15.54,1.96-23.97c1.02-6.97,2.54-17,4.58-30.07
		c7.12-0.94,11.98-1.8,14.6-2.56c2.62-0.76,3.92-2.12,3.92-4.08c0-2.98-2.07-4.47-6.21-4.47c-1.89,0-5.49,0.26-10.79,0.76
		c0.29-1.96,0.44-3.59,0.44-4.9c0-4.79-2.54-7.19-7.63-7.19c-3.92,0-6.9,3.27-8.93,9.81l-0.98,3.59c-4.21,0.51-8.46,1.02-12.75,1.53
		c-4.29,0.51-6.43,2.4-6.43,5.67c0.29,2.76,2.72,4.14,7.3,4.14c0,0,9.15-0.54,9.15-0.54c-1.26,0.08-2.76,18.01-2.91,19.8
		c-0.26,3.02,0.08,6.7-1.15,9.31c-2.22,4.68-6.15,8.9-8.85,13.38c-3.45,5.74-6.26,10.21-8.44,13.4c-0.23-8.05,0.91-17.11-3.87-24.13
		c-1.71-2.51-4.05-3.76-7.03-3.76c-2.76,0-5.48,1.6-8.17,4.79c-3.2,3.56-6.86,7.59-11,12.09c0.73-10.53,1.67-17.04,6.98-41.22
		c1.96-9.01,2.94-14.82,2.94-17.44c0-5.67-4.98-7.86-9.76-5.7c-5.79,2.61-7.34,11.15-8.98,16.6c-3.69,13.8-3.69,17.22-4.15,31.97
		c-0.56,0.55-11.79,11.76-12.95,12.63c-2.25-14.75-4.87-22.99-7.84-24.73c3.49-12.79-8.68-13.95-17.78-10.67
		c-10.65,3.84-18.15,13.58-21.12,24.28c-1.65,5.91-9.51,12.06-13.5,16.75c-1.65,1.94-10.02,11.32-10.02,3.64
		c0-7.74,10.24-35.2-4.57-35.42c-6.41-0.09-10.74,14.61-17.39,11.7c-1.89-0.83-2.56-4.83-3.34-6.59c-2.3-5.15-7.65-9.61-12.39-3.92
		c-2.62,3.14-4.15,7.05-6.66,10.18c-0.04-3.7,0.88-7.42,0.88-11.16c0-5.08-2.65-7.77-7.95-8.06c-11.67-0.64-10.13,21.32-10.13,28.44
		c0,7.35-0.46,16.12,2.17,23.17c1.52,4.07,6.38,7.38,10.61,5.02c4.52-2.52,4.7-9.51,5.65-13.95c1.68-7.86,4.67-15.26,8.48-22.31
		c2.17,3.48,5.09,7.64,9.36,8.62c3.84,0.88,7.24-1.55,10.45-3.47c-1.27,0.76-0.15,10.08-0.02,11.44c0.39,4.28,1.12,8.81,3.3,12.59
		c5.91,10.25,17.82,7.23,24.63-0.75c4.52-5.14,8.24-9.49,11.17-13.1c-0.55,0.68,3.03,3.08,3.59,3.31c4.57,1.88,9.97-1.59,13.68-3.93
		c4.72-2.98,9.81-7.01,15.25-12.09c1.12,7.59,1.66,15.33,1.09,22.99c-14.53,15.25-21.79,27.67-21.79,37.26
		c0.07,7.48,3.38,11.22,9.92,11.22c6.03,0,11.82-3.69,17.38-11.06c5.56-7.37,8.48-19.77,8.77-37.21
		c3.41-3.56,10.28-10.88,11.09-11.75c0.14,5.06-0.37,10.54,1.41,15.38c2.67,7.24,8.69,6.56,13.21,0.84
		c4.79-5.81,9.33-10.86,13.62-15.14c-0.7,0.7,1.39,7.88,1.6,8.88c0.72,3.43,1.46,7.15,3.43,10.13c5.34,8.09,14.32,4.47,18.83-2.67
		c3.12-4.94,8.99-14.38,9.21-14.72c0.79,8.42,4.16,24.97,15.2,24.97c8.36,0,14.87-10.26,18.96-16.4c3.41-5.12,6.19-10.21,8.33-15.25
		c2.14-5.05,3.21-8.26,3.21-9.64C449.01,142.44,448.52,141.39,447.54,140.81z M296.48,150.18c0.51-4.22,2.46-8.48,5.94-11.46
		c3.49-2.98,7.24-4.65,11.71-3.68C308.75,140.7,302.87,145.75,296.48,150.18z M312.6,196.26c-1.74,3.99-4.07,6.97-6.97,8.93
		c0-7.63,3.23-14.82,9.7-21.57C315.25,188.06,314.35,192.27,312.6,196.26z M493.32,301.22c0,0-11.41,4.64-13.81,9.11
		c-1.83,3.42-3.64,22.26-3.64,22.26c-1.29,1.99-3.4,1.99-4.69,0c0,0-1.79-18.79-3.62-22.19c-2.4-4.48-13.84-9.15-13.84-9.15
		c-1.89-2.39,0.04-3.89,0.04-3.89s9.56-3.4,11.76-7.17c2.29-3.93,5.66-24.46,5.66-24.46c1.29-1.99,3.4-1.99,4.69,0
		c0,0,3.41,20.34,5.7,24.2c2.21,3.73,11.79,6.98,11.79,6.98S495.63,298.85,493.32,301.22z M146.07,325.08c0,0-11.41,4.64-13.81,9.11
		c-1.84,3.42-3.64,22.26-3.64,22.26c-1.29,1.99-3.4,1.99-4.69,0c0,0-1.79-18.79-3.62-22.19c-2.4-4.48-13.84-9.15-13.84-9.15
		c-1.89-2.39,0.04-3.89,0.04-3.89s9.56-3.4,11.76-7.17c2.29-3.93,5.66-24.46,5.66-24.46c1.29-1.99,3.4-1.99,4.69,0
		c0,0,3.41,20.34,5.7,24.2c2.21,3.73,11.79,6.98,11.79,6.98S148.38,322.7,146.07,325.08z"/>
</g>
</svg>
